<svg xmlns="http://www.w3.org/2000/svg" width="1600" height="900" viewBox="0 0 1600 900">
<rect width="1600" height="900" fill="#101821"/>
<line x1="80" y1="0" x2="80" y2="900" stroke="#263545" stroke-width="1" opacity="0.24"/>
<line x1="160" y1="0" x2="160" y2="900" stroke="#263545" stroke-width="1" opacity="0.24"/>
<line x1="240" y1="0" x2="240" y2="900" stroke="#263545" stroke-width="1" opacity="0.24"/>
<line x1="320" y1="0" x2="320" y2="900" stroke="#263545" stroke-width="1" opacity="0.24"/>
<line x1="400" y1="0" x2="400" y2="900" stroke="#263545" stroke-width="1" opacity="0.24"/>
<line x1="480" y1="0" x2="480" y2="900" stroke="#263545" stroke-width="1" opacity="0.24"/>
<line x1="560" y1="0" x2="560" y2="900" stroke="#263545" stroke-width="1" opacity="0.24"/>
<line x1="640" y1="0" x2="640" y2="900" stroke="#263545" stroke-width="1" opacity="0.24"/>
<line x1="720" y1="0" x2="720" y2="900" stroke="#263545" stroke-width="1" opacity="0.24"/>
<line x1="800" y1="0" x2="800" y2="900" stroke="#263545" stroke-width="1" opacity="0.24"/>
<line x1="880" y1="0" x2="880" y2="900" stroke="#263545" stroke-width="1" opacity="0.24"/>
<line x1="960" y1="0" x2="960" y2="900" stroke="#263545" stroke-width="1" opacity="0.24"/>
<line x1="1040" y1="0" x2="1040" y2="900" stroke="#263545" stroke-width="1" opacity="0.24"/>
<line x1="1120" y1="0" x2="1120" y2="900" stroke="#263545" stroke-width="1" opacity="0.24"/>
<line x1="1200" y1="0" x2="1200" y2="900" stroke="#263545" stroke-width="1" opacity="0.24"/>
<line x1="1280" y1="0" x2="1280" y2="900" stroke="#263545" stroke-width="1" opacity="0.24"/>
<line x1="1360" y1="0" x2="1360" y2="900" stroke="#263545" stroke-width="1" opacity="0.24"/>
<line x1="1440" y1="0" x2="1440" y2="900" stroke="#263545" stroke-width="1" opacity="0.24"/>
<line x1="1520" y1="0" x2="1520" y2="900" stroke="#263545" stroke-width="1" opacity="0.24"/>
<line x1="0" y1="60" x2="1600" y2="60" stroke="#263545" stroke-width="1" opacity="0.18"/>
<line x1="0" y1="120" x2="1600" y2="120" stroke="#263545" stroke-width="1" opacity="0.18"/>
<line x1="0" y1="180" x2="1600" y2="180" stroke="#263545" stroke-width="1" opacity="0.18"/>
<line x1="0" y1="240" x2="1600" y2="240" stroke="#263545" stroke-width="1" opacity="0.18"/>
<line x1="0" y1="300" x2="1600" y2="300" stroke="#263545" stroke-width="1" opacity="0.18"/>
<line x1="0" y1="360" x2="1600" y2="360" stroke="#263545" stroke-width="1" opacity="0.18"/>
<line x1="0" y1="420" x2="1600" y2="420" stroke="#263545" stroke-width="1" opacity="0.18"/>
<line x1="0" y1="480" x2="1600" y2="480" stroke="#263545" stroke-width="1" opacity="0.18"/>
<line x1="0" y1="540" x2="1600" y2="540" stroke="#263545" stroke-width="1" opacity="0.18"/>
<line x1="0" y1="600" x2="1600" y2="600" stroke="#263545" stroke-width="1" opacity="0.18"/>
<line x1="0" y1="660" x2="1600" y2="660" stroke="#263545" stroke-width="1" opacity="0.18"/>
<line x1="0" y1="720" x2="1600" y2="720" stroke="#263545" stroke-width="1" opacity="0.18"/>
<line x1="0" y1="780" x2="1600" y2="780" stroke="#263545" stroke-width="1" opacity="0.18"/>
<line x1="0" y1="840" x2="1600" y2="840" stroke="#263545" stroke-width="1" opacity="0.18"/>
<rect x="40" y="40" width="1520" height="820" rx="0" fill="none" stroke="#2e4054" stroke-width="2" opacity="0.75"/>
<text x="90" y="105" fill="#e9eef4" font-size="40" font-family="'Hiragino Sans GB', 'STHeiti', 'Arial Unicode MS', sans-serif" font-weight="700" text-anchor="start" opacity="1">决策树把特征空间切成小格子</text>
<text x="90" y="150" fill="#9aa8b7" font-size="24" font-family="'Hiragino Sans GB', 'STHeiti', 'Arial Unicode MS', sans-serif" font-weight="400" text-anchor="start" opacity="1">每一刀都是一个 if/else，叶子节点保存这一片区域的历史经验</text>
<rect x="190" y="230" width="990" height="500" rx="8" fill="#0f1722" stroke="#34475e" stroke-width="2" opacity="1"/>
<line x1="270.0" y1="285" x2="270.0" y2="655" stroke="#263545" stroke-width="1" opacity="0.55"/>
<line x1="365.55555555555554" y1="285" x2="365.55555555555554" y2="655" stroke="#263545" stroke-width="1" opacity="0.55"/>
<line x1="461.1111111111111" y1="285" x2="461.1111111111111" y2="655" stroke="#263545" stroke-width="1" opacity="0.55"/>
<line x1="556.6666666666666" y1="285" x2="556.6666666666666" y2="655" stroke="#263545" stroke-width="1" opacity="0.55"/>
<line x1="652.2222222222222" y1="285" x2="652.2222222222222" y2="655" stroke="#263545" stroke-width="1" opacity="0.55"/>
<line x1="747.7777777777778" y1="285" x2="747.7777777777778" y2="655" stroke="#263545" stroke-width="1" opacity="0.55"/>
<line x1="843.3333333333333" y1="285" x2="843.3333333333333" y2="655" stroke="#263545" stroke-width="1" opacity="0.55"/>
<line x1="938.8888888888889" y1="285" x2="938.8888888888889" y2="655" stroke="#263545" stroke-width="1" opacity="0.55"/>
<line x1="1034.4444444444443" y1="285" x2="1034.4444444444443" y2="655" stroke="#263545" stroke-width="1" opacity="0.55"/>
<line x1="1130.0" y1="285" x2="1130.0" y2="655" stroke="#263545" stroke-width="1" opacity="0.55"/>
<line x1="270" y1="655.0" x2="1130" y2="655.0" stroke="#263545" stroke-width="1" opacity="0.55"/>
<line x1="270" y1="593.3333333333334" x2="1130" y2="593.3333333333334" stroke="#263545" stroke-width="1" opacity="0.55"/>
<line x1="270" y1="531.6666666666666" x2="1130" y2="531.6666666666666" stroke="#263545" stroke-width="1" opacity="0.55"/>
<line x1="270" y1="470.0" x2="1130" y2="470.0" stroke="#263545" stroke-width="1" opacity="0.55"/>
<line x1="270" y1="408.33333333333337" x2="1130" y2="408.33333333333337" stroke="#263545" stroke-width="1" opacity="0.55"/>
<line x1="270" y1="346.66666666666663" x2="1130" y2="346.66666666666663" stroke="#263545" stroke-width="1" opacity="0.55"/>
<line x1="270" y1="285.0" x2="1130" y2="285.0" stroke="#263545" stroke-width="1" opacity="0.55"/>
<line x1="270" y1="550.1666666666666" x2="1130" y2="550.1666666666666" stroke="#d7a64a" stroke-width="4" opacity="0.9"/>
<line x1="642.6666666666667" y1="550.1666666666666" x2="642.6666666666667" y2="655" stroke="#d7a64a" stroke-width="4" opacity="0.9"/>
<text x="285" y="536.1666666666666" fill="#d7a64a" font-size="17" font-family="'SF Mono', 'Menlo', 'Consolas', monospace" font-weight="700" text-anchor="start" opacity="1">active_days_30d &lt;= 8.5</text>
<text x="654.6666666666667" y="635" fill="#d7a64a" font-size="17" font-family="'SF Mono', 'Menlo', 'Consolas', monospace" font-weight="700" text-anchor="start" opacity="1">days_since_last_login &gt; 19.5</text>
<circle cx="728.6666666666667" cy="655.0" r="5.2" fill="#e06c75" stroke="#ffffff" stroke-width="0.8" opacity="0.72"/>
<circle cx="690.4444444444445" cy="544.0" r="5.2" fill="#e06c75" stroke="#ffffff" stroke-width="0.8" opacity="0.72"/>
<circle cx="518.4444444444445" cy="507.0" r="5.2" fill="#5cc8a7" stroke="#ffffff" stroke-width="0.8" opacity="0.72"/>
<circle cx="690.4444444444445" cy="482.33333333333337" r="5.2" fill="#5cc8a7" stroke="#ffffff" stroke-width="0.8" opacity="0.72"/>
<circle cx="843.3333333333333" cy="655.0" r="5.2" fill="#e06c75" stroke="#ffffff" stroke-width="0.8" opacity="0.72"/>
<circle cx="537.5555555555555" cy="470.0" r="5.2" fill="#e06c75" stroke="#ffffff" stroke-width="0.8" opacity="0.72"/>
<circle cx="747.7777777777778" cy="618.0" r="5.2" fill="#e06c75" stroke="#ffffff" stroke-width="0.8" opacity="0.72"/>
<circle cx="690.4444444444445" cy="605.6666666666666" r="5.2" fill="#e06c75" stroke="#ffffff" stroke-width="0.8" opacity="0.72"/>
<circle cx="537.5555555555555" cy="507.0" r="5.2" fill="#e06c75" stroke="#ffffff" stroke-width="0.8" opacity="0.72"/>
<circle cx="614.0" cy="457.66666666666663" r="5.2" fill="#5cc8a7" stroke="#ffffff" stroke-width="0.8" opacity="0.72"/>
<circle cx="575.7777777777778" cy="556.3333333333334" r="5.2" fill="#5cc8a7" stroke="#ffffff" stroke-width="0.8" opacity="0.72"/>
<circle cx="652.2222222222222" cy="531.6666666666666" r="5.2" fill="#e06c75" stroke="#ffffff" stroke-width="0.8" opacity="0.72"/>
<circle cx="480.22222222222223" cy="420.6666666666667" r="5.2" fill="#5cc8a7" stroke="#ffffff" stroke-width="0.8" opacity="0.72"/>
<circle cx="289.1111111111111" cy="346.66666666666663" r="5.2" fill="#5cc8a7" stroke="#ffffff" stroke-width="0.8" opacity="0.72"/>
<circle cx="709.5555555555555" cy="605.6666666666666" r="5.2" fill="#5cc8a7" stroke="#ffffff" stroke-width="0.8" opacity="0.72"/>
<circle cx="575.7777777777778" cy="556.3333333333334" r="5.2" fill="#5cc8a7" stroke="#ffffff" stroke-width="0.8" opacity="0.72"/>
<circle cx="900.6666666666666" cy="605.6666666666666" r="5.2" fill="#e06c75" stroke="#ffffff" stroke-width="0.8" opacity="0.72"/>
<circle cx="728.6666666666667" cy="605.6666666666666" r="5.2" fill="#e06c75" stroke="#ffffff" stroke-width="0.8" opacity="0.72"/>
<circle cx="614.0" cy="556.3333333333334" r="5.2" fill="#e06c75" stroke="#ffffff" stroke-width="0.8" opacity="0.72"/>
<circle cx="614.0" cy="494.66666666666663" r="5.2" fill="#e06c75" stroke="#ffffff" stroke-width="0.8" opacity="0.72"/>
<circle cx="652.2222222222222" cy="531.6666666666666" r="5.2" fill="#e06c75" stroke="#ffffff" stroke-width="0.8" opacity="0.72"/>
<circle cx="709.5555555555555" cy="531.6666666666666" r="5.2" fill="#e06c75" stroke="#ffffff" stroke-width="0.8" opacity="0.72"/>
<circle cx="442.0" cy="334.3333333333333" r="5.2" fill="#5cc8a7" stroke="#ffffff" stroke-width="0.8" opacity="0.72"/>
<circle cx="728.6666666666667" cy="544.0" r="5.2" fill="#e06c75" stroke="#ffffff" stroke-width="0.8" opacity="0.72"/>
<circle cx="575.7777777777778" cy="531.6666666666666" r="5.2" fill="#5cc8a7" stroke="#ffffff" stroke-width="0.8" opacity="0.72"/>
<circle cx="671.3333333333333" cy="556.3333333333334" r="5.2" fill="#e06c75" stroke="#ffffff" stroke-width="0.8" opacity="0.72"/>
<circle cx="480.22222222222223" cy="408.33333333333337" r="5.2" fill="#5cc8a7" stroke="#ffffff" stroke-width="0.8" opacity="0.72"/>
<circle cx="709.5555555555555" cy="470.0" r="5.2" fill="#5cc8a7" stroke="#ffffff" stroke-width="0.8" opacity="0.72"/>
<circle cx="747.7777777777778" cy="642.6666666666666" r="5.2" fill="#e06c75" stroke="#ffffff" stroke-width="0.8" opacity="0.72"/>
<circle cx="575.7777777777778" cy="544.0" r="5.2" fill="#e06c75" stroke="#ffffff" stroke-width="0.8" opacity="0.72"/>
<circle cx="499.33333333333337" cy="445.33333333333337" r="5.2" fill="#e06c75" stroke="#ffffff" stroke-width="0.8" opacity="0.72"/>
<circle cx="671.3333333333333" cy="581.0" r="5.2" fill="#e06c75" stroke="#ffffff" stroke-width="0.8" opacity="0.72"/>
<circle cx="556.6666666666666" cy="494.66666666666663" r="5.2" fill="#e06c75" stroke="#ffffff" stroke-width="0.8" opacity="0.72"/>
<circle cx="633.1111111111111" cy="531.6666666666666" r="5.2" fill="#e06c75" stroke="#ffffff" stroke-width="0.8" opacity="0.72"/>
<circle cx="499.33333333333337" cy="445.33333333333337" r="5.2" fill="#5cc8a7" stroke="#ffffff" stroke-width="0.8" opacity="0.72"/>
<circle cx="384.6666666666667" cy="470.0" r="5.2" fill="#5cc8a7" stroke="#ffffff" stroke-width="0.8" opacity="0.72"/>
<circle cx="537.5555555555555" cy="531.6666666666666" r="5.2" fill="#5cc8a7" stroke="#ffffff" stroke-width="0.8" opacity="0.72"/>
<circle cx="518.4444444444445" cy="445.33333333333337" r="5.2" fill="#5cc8a7" stroke="#ffffff" stroke-width="0.8" opacity="0.72"/>
<circle cx="480.22222222222223" cy="433.0" r="5.2" fill="#5cc8a7" stroke="#ffffff" stroke-width="0.8" opacity="0.72"/>
<circle cx="614.0" cy="531.6666666666666" r="5.2" fill="#5cc8a7" stroke="#ffffff" stroke-width="0.8" opacity="0.72"/>
<circle cx="422.8888888888889" cy="519.3333333333334" r="5.2" fill="#5cc8a7" stroke="#ffffff" stroke-width="0.8" opacity="0.72"/>
<circle cx="862.4444444444445" cy="568.6666666666666" r="5.2" fill="#e06c75" stroke="#ffffff" stroke-width="0.8" opacity="0.72"/>
<circle cx="327.3333333333333" cy="396.0" r="5.2" fill="#5cc8a7" stroke="#ffffff" stroke-width="0.8" opacity="0.72"/>
<circle cx="633.1111111111111" cy="507.0" r="5.2" fill="#5cc8a7" stroke="#ffffff" stroke-width="0.8" opacity="0.72"/>
<circle cx="614.0" cy="507.0" r="5.2" fill="#e06c75" stroke="#ffffff" stroke-width="0.8" opacity="0.72"/>
<circle cx="671.3333333333333" cy="494.66666666666663" r="5.2" fill="#5cc8a7" stroke="#ffffff" stroke-width="0.8" opacity="0.72"/>
<circle cx="614.0" cy="494.66666666666663" r="5.2" fill="#5cc8a7" stroke="#ffffff" stroke-width="0.8" opacity="0.72"/>
<circle cx="633.1111111111111" cy="581.0" r="5.2" fill="#e06c75" stroke="#ffffff" stroke-width="0.8" opacity="0.72"/>
<circle cx="728.6666666666667" cy="556.3333333333334" r="5.2" fill="#e06c75" stroke="#ffffff" stroke-width="0.8" opacity="0.72"/>
<circle cx="422.8888888888889" cy="408.33333333333337" r="5.2" fill="#5cc8a7" stroke="#ffffff" stroke-width="0.8" opacity="0.72"/>
<circle cx="805.1111111111111" cy="507.0" r="5.2" fill="#5cc8a7" stroke="#ffffff" stroke-width="0.8" opacity="0.72"/>
<circle cx="270.0" cy="408.33333333333337" r="5.2" fill="#5cc8a7" stroke="#ffffff" stroke-width="0.8" opacity="0.72"/>
<circle cx="270.0" cy="371.3333333333333" r="5.2" fill="#5cc8a7" stroke="#ffffff" stroke-width="0.8" opacity="0.72"/>
<circle cx="594.8888888888889" cy="470.0" r="5.2" fill="#5cc8a7" stroke="#ffffff" stroke-width="0.8" opacity="0.72"/>
<circle cx="766.8888888888889" cy="581.0" r="5.2" fill="#5cc8a7" stroke="#ffffff" stroke-width="0.8" opacity="0.72"/>
<circle cx="881.5555555555555" cy="593.3333333333334" r="5.2" fill="#e06c75" stroke="#ffffff" stroke-width="0.8" opacity="0.72"/>
<circle cx="422.8888888888889" cy="507.0" r="5.2" fill="#5cc8a7" stroke="#ffffff" stroke-width="0.8" opacity="0.72"/>
<circle cx="747.7777777777778" cy="544.0" r="5.2" fill="#e06c75" stroke="#ffffff" stroke-width="0.8" opacity="0.72"/>
<circle cx="537.5555555555555" cy="470.0" r="5.2" fill="#5cc8a7" stroke="#ffffff" stroke-width="0.8" opacity="0.72"/>
<circle cx="461.1111111111111" cy="445.33333333333337" r="5.2" fill="#5cc8a7" stroke="#ffffff" stroke-width="0.8" opacity="0.72"/>
<circle cx="766.8888888888889" cy="519.3333333333334" r="5.2" fill="#5cc8a7" stroke="#ffffff" stroke-width="0.8" opacity="0.72"/>
<circle cx="480.22222222222223" cy="445.33333333333337" r="5.2" fill="#5cc8a7" stroke="#ffffff" stroke-width="0.8" opacity="0.72"/>
<circle cx="556.6666666666666" cy="544.0" r="5.2" fill="#5cc8a7" stroke="#ffffff" stroke-width="0.8" opacity="0.72"/>
<circle cx="442.0" cy="309.6666666666667" r="5.2" fill="#5cc8a7" stroke="#ffffff" stroke-width="0.8" opacity="0.72"/>
<circle cx="652.2222222222222" cy="605.6666666666666" r="5.2" fill="#e06c75" stroke="#ffffff" stroke-width="0.8" opacity="0.72"/>
<circle cx="537.5555555555555" cy="507.0" r="5.2" fill="#5cc8a7" stroke="#ffffff" stroke-width="0.8" opacity="0.72"/>
<circle cx="499.33333333333337" cy="470.0" r="5.2" fill="#5cc8a7" stroke="#ffffff" stroke-width="0.8" opacity="0.72"/>
<circle cx="556.6666666666666" cy="544.0" r="5.2" fill="#5cc8a7" stroke="#ffffff" stroke-width="0.8" opacity="0.72"/>
<circle cx="786.0" cy="519.3333333333334" r="5.2" fill="#e06c75" stroke="#ffffff" stroke-width="0.8" opacity="0.72"/>
<circle cx="633.1111111111111" cy="482.33333333333337" r="5.2" fill="#5cc8a7" stroke="#ffffff" stroke-width="0.8" opacity="0.72"/>
<circle cx="747.7777777777778" cy="593.3333333333334" r="5.2" fill="#5cc8a7" stroke="#ffffff" stroke-width="0.8" opacity="0.72"/>
<circle cx="747.7777777777778" cy="519.3333333333334" r="5.2" fill="#e06c75" stroke="#ffffff" stroke-width="0.8" opacity="0.72"/>
<circle cx="575.7777777777778" cy="383.6666666666667" r="5.2" fill="#5cc8a7" stroke="#ffffff" stroke-width="0.8" opacity="0.72"/>
<circle cx="461.1111111111111" cy="445.33333333333337" r="5.2" fill="#e06c75" stroke="#ffffff" stroke-width="0.8" opacity="0.72"/>
<circle cx="308.22222222222223" cy="359.0" r="5.2" fill="#5cc8a7" stroke="#ffffff" stroke-width="0.8" opacity="0.72"/>
<circle cx="690.4444444444445" cy="605.6666666666666" r="5.2" fill="#e06c75" stroke="#ffffff" stroke-width="0.8" opacity="0.72"/>
<circle cx="384.6666666666667" cy="396.0" r="5.2" fill="#5cc8a7" stroke="#ffffff" stroke-width="0.8" opacity="0.72"/>
<circle cx="403.77777777777777" cy="531.6666666666666" r="5.2" fill="#5cc8a7" stroke="#ffffff" stroke-width="0.8" opacity="0.72"/>
<circle cx="461.1111111111111" cy="408.33333333333337" r="5.2" fill="#5cc8a7" stroke="#ffffff" stroke-width="0.8" opacity="0.72"/>
<circle cx="633.1111111111111" cy="482.33333333333337" r="5.2" fill="#5cc8a7" stroke="#ffffff" stroke-width="0.8" opacity="0.72"/>
<circle cx="977.1111111111111" cy="655.0" r="5.2" fill="#e06c75" stroke="#ffffff" stroke-width="0.8" opacity="0.72"/>
<circle cx="671.3333333333333" cy="519.3333333333334" r="5.2" fill="#5cc8a7" stroke="#ffffff" stroke-width="0.8" opacity="0.72"/>
<circle cx="537.5555555555555" cy="507.0" r="5.2" fill="#e06c75" stroke="#ffffff" stroke-width="0.8" opacity="0.72"/>
<circle cx="652.2222222222222" cy="581.0" r="5.2" fill="#e06c75" stroke="#ffffff" stroke-width="0.8" opacity="0.72"/>
<circle cx="652.2222222222222" cy="507.0" r="5.2" fill="#e06c75" stroke="#ffffff" stroke-width="0.8" opacity="0.72"/>
<circle cx="556.6666666666666" cy="420.6666666666667" r="5.2" fill="#5cc8a7" stroke="#ffffff" stroke-width="0.8" opacity="0.72"/>
<circle cx="614.0" cy="433.0" r="5.2" fill="#e06c75" stroke="#ffffff" stroke-width="0.8" opacity="0.72"/>
<circle cx="671.3333333333333" cy="593.3333333333334" r="5.2" fill="#5cc8a7" stroke="#ffffff" stroke-width="0.8" opacity="0.72"/>
<circle cx="518.4444444444445" cy="408.33333333333337" r="5.2" fill="#5cc8a7" stroke="#ffffff" stroke-width="0.8" opacity="0.72"/>
<circle cx="499.33333333333337" cy="531.6666666666666" r="5.2" fill="#5cc8a7" stroke="#ffffff" stroke-width="0.8" opacity="0.72"/>
<circle cx="633.1111111111111" cy="494.66666666666663" r="5.2" fill="#5cc8a7" stroke="#ffffff" stroke-width="0.8" opacity="0.72"/>
<circle cx="442.0" cy="433.0" r="5.2" fill="#5cc8a7" stroke="#ffffff" stroke-width="0.8" opacity="0.72"/>
<circle cx="786.0" cy="470.0" r="5.2" fill="#e06c75" stroke="#ffffff" stroke-width="0.8" opacity="0.72"/>
<circle cx="633.1111111111111" cy="470.0" r="5.2" fill="#5cc8a7" stroke="#ffffff" stroke-width="0.8" opacity="0.72"/>
<circle cx="671.3333333333333" cy="470.0" r="5.2" fill="#5cc8a7" stroke="#ffffff" stroke-width="0.8" opacity="0.72"/>
<circle cx="728.6666666666667" cy="605.6666666666666" r="5.2" fill="#e06c75" stroke="#ffffff" stroke-width="0.8" opacity="0.72"/>
<circle cx="728.6666666666667" cy="581.0" r="5.2" fill="#e06c75" stroke="#ffffff" stroke-width="0.8" opacity="0.72"/>
<circle cx="537.5555555555555" cy="408.33333333333337" r="5.2" fill="#5cc8a7" stroke="#ffffff" stroke-width="0.8" opacity="0.72"/>
<circle cx="480.22222222222223" cy="470.0" r="5.2" fill="#5cc8a7" stroke="#ffffff" stroke-width="0.8" opacity="0.72"/>
<circle cx="747.7777777777778" cy="605.6666666666666" r="5.2" fill="#e06c75" stroke="#ffffff" stroke-width="0.8" opacity="0.72"/>
<circle cx="403.77777777777777" cy="445.33333333333337" r="5.2" fill="#5cc8a7" stroke="#ffffff" stroke-width="0.8" opacity="0.72"/>
<circle cx="786.0" cy="593.3333333333334" r="5.2" fill="#e06c75" stroke="#ffffff" stroke-width="0.8" opacity="0.72"/>
<circle cx="900.6666666666666" cy="568.6666666666666" r="5.2" fill="#e06c75" stroke="#ffffff" stroke-width="0.8" opacity="0.72"/>
<circle cx="270.0" cy="309.6666666666667" r="5.2" fill="#5cc8a7" stroke="#ffffff" stroke-width="0.8" opacity="0.72"/>
<circle cx="614.0" cy="445.33333333333337" r="5.2" fill="#5cc8a7" stroke="#ffffff" stroke-width="0.8" opacity="0.72"/>
<circle cx="518.4444444444445" cy="470.0" r="5.2" fill="#e06c75" stroke="#ffffff" stroke-width="0.8" opacity="0.72"/>
<circle cx="480.22222222222223" cy="457.66666666666663" r="5.2" fill="#e06c75" stroke="#ffffff" stroke-width="0.8" opacity="0.72"/>
<circle cx="766.8888888888889" cy="605.6666666666666" r="5.2" fill="#e06c75" stroke="#ffffff" stroke-width="0.8" opacity="0.72"/>
<circle cx="652.2222222222222" cy="544.0" r="5.2" fill="#5cc8a7" stroke="#ffffff" stroke-width="0.8" opacity="0.72"/>
<circle cx="518.4444444444445" cy="470.0" r="5.2" fill="#5cc8a7" stroke="#ffffff" stroke-width="0.8" opacity="0.72"/>
<circle cx="766.8888888888889" cy="581.0" r="5.2" fill="#e06c75" stroke="#ffffff" stroke-width="0.8" opacity="0.72"/>
<circle cx="575.7777777777778" cy="507.0" r="5.2" fill="#5cc8a7" stroke="#ffffff" stroke-width="0.8" opacity="0.72"/>
<circle cx="881.5555555555555" cy="630.3333333333334" r="5.2" fill="#e06c75" stroke="#ffffff" stroke-width="0.8" opacity="0.72"/>
<circle cx="938.8888888888889" cy="630.3333333333334" r="5.2" fill="#e06c75" stroke="#ffffff" stroke-width="0.8" opacity="0.72"/>
<circle cx="537.5555555555555" cy="457.66666666666663" r="5.2" fill="#5cc8a7" stroke="#ffffff" stroke-width="0.8" opacity="0.72"/>
<circle cx="556.6666666666666" cy="482.33333333333337" r="5.2" fill="#e06c75" stroke="#ffffff" stroke-width="0.8" opacity="0.72"/>
<circle cx="633.1111111111111" cy="544.0" r="5.2" fill="#e06c75" stroke="#ffffff" stroke-width="0.8" opacity="0.72"/>
<circle cx="671.3333333333333" cy="531.6666666666666" r="5.2" fill="#5cc8a7" stroke="#ffffff" stroke-width="0.8" opacity="0.72"/>
<circle cx="786.0" cy="593.3333333333334" r="5.2" fill="#e06c75" stroke="#ffffff" stroke-width="0.8" opacity="0.72"/>
<circle cx="652.2222222222222" cy="494.66666666666663" r="5.2" fill="#e06c75" stroke="#ffffff" stroke-width="0.8" opacity="0.72"/>
<circle cx="575.7777777777778" cy="396.0" r="5.2" fill="#5cc8a7" stroke="#ffffff" stroke-width="0.8" opacity="0.72"/>
<circle cx="614.0" cy="519.3333333333334" r="5.2" fill="#5cc8a7" stroke="#ffffff" stroke-width="0.8" opacity="0.72"/>
<circle cx="690.4444444444445" cy="593.3333333333334" r="5.2" fill="#e06c75" stroke="#ffffff" stroke-width="0.8" opacity="0.72"/>
<circle cx="518.4444444444445" cy="408.33333333333337" r="5.2" fill="#5cc8a7" stroke="#ffffff" stroke-width="0.8" opacity="0.72"/>
<circle cx="422.8888888888889" cy="346.66666666666663" r="5.2" fill="#5cc8a7" stroke="#ffffff" stroke-width="0.8" opacity="0.72"/>
<circle cx="594.8888888888889" cy="581.0" r="5.2" fill="#5cc8a7" stroke="#ffffff" stroke-width="0.8" opacity="0.72"/>
<circle cx="690.4444444444445" cy="507.0" r="5.2" fill="#5cc8a7" stroke="#ffffff" stroke-width="0.8" opacity="0.72"/>
<circle cx="422.8888888888889" cy="371.3333333333333" r="5.2" fill="#5cc8a7" stroke="#ffffff" stroke-width="0.8" opacity="0.72"/>
<circle cx="996.2222222222222" cy="655.0" r="5.2" fill="#e06c75" stroke="#ffffff" stroke-width="0.8" opacity="0.72"/>
<circle cx="365.55555555555554" cy="408.33333333333337" r="5.2" fill="#5cc8a7" stroke="#ffffff" stroke-width="0.8" opacity="0.72"/>
<circle cx="977.1111111111111" cy="581.0" r="5.2" fill="#e06c75" stroke="#ffffff" stroke-width="0.8" opacity="0.72"/>
<circle cx="747.7777777777778" cy="556.3333333333334" r="5.2" fill="#e06c75" stroke="#ffffff" stroke-width="0.8" opacity="0.72"/>
<circle cx="690.4444444444445" cy="568.6666666666666" r="5.2" fill="#e06c75" stroke="#ffffff" stroke-width="0.8" opacity="0.72"/>
<circle cx="786.0" cy="519.3333333333334" r="5.2" fill="#e06c75" stroke="#ffffff" stroke-width="0.8" opacity="0.72"/>
<circle cx="365.55555555555554" cy="371.3333333333333" r="5.2" fill="#5cc8a7" stroke="#ffffff" stroke-width="0.8" opacity="0.72"/>
<circle cx="518.4444444444445" cy="470.0" r="5.2" fill="#5cc8a7" stroke="#ffffff" stroke-width="0.8" opacity="0.72"/>
<circle cx="652.2222222222222" cy="457.66666666666663" r="5.2" fill="#e06c75" stroke="#ffffff" stroke-width="0.8" opacity="0.72"/>
<circle cx="747.7777777777778" cy="593.3333333333334" r="5.2" fill="#5cc8a7" stroke="#ffffff" stroke-width="0.8" opacity="0.72"/>
<circle cx="633.1111111111111" cy="507.0" r="5.2" fill="#e06c75" stroke="#ffffff" stroke-width="0.8" opacity="0.72"/>
<circle cx="652.2222222222222" cy="470.0" r="5.2" fill="#5cc8a7" stroke="#ffffff" stroke-width="0.8" opacity="0.72"/>
<circle cx="575.7777777777778" cy="433.0" r="5.2" fill="#5cc8a7" stroke="#ffffff" stroke-width="0.8" opacity="0.72"/>
<circle cx="709.5555555555555" cy="507.0" r="5.2" fill="#e06c75" stroke="#ffffff" stroke-width="0.8" opacity="0.72"/>
<circle cx="633.1111111111111" cy="568.6666666666666" r="5.2" fill="#5cc8a7" stroke="#ffffff" stroke-width="0.8" opacity="0.72"/>
<circle cx="480.22222222222223" cy="457.66666666666663" r="5.2" fill="#5cc8a7" stroke="#ffffff" stroke-width="0.8" opacity="0.72"/>
<circle cx="614.0" cy="470.0" r="5.2" fill="#5cc8a7" stroke="#ffffff" stroke-width="0.8" opacity="0.72"/>
<circle cx="633.1111111111111" cy="581.0" r="5.2" fill="#5cc8a7" stroke="#ffffff" stroke-width="0.8" opacity="0.72"/>
<circle cx="556.6666666666666" cy="507.0" r="5.2" fill="#5cc8a7" stroke="#ffffff" stroke-width="0.8" opacity="0.72"/>
<circle cx="919.7777777777777" cy="593.3333333333334" r="5.2" fill="#e06c75" stroke="#ffffff" stroke-width="0.8" opacity="0.72"/>
<circle cx="766.8888888888889" cy="605.6666666666666" r="5.2" fill="#e06c75" stroke="#ffffff" stroke-width="0.8" opacity="0.72"/>
<circle cx="614.0" cy="445.33333333333337" r="5.2" fill="#e06c75" stroke="#ffffff" stroke-width="0.8" opacity="0.72"/>
<circle cx="499.33333333333337" cy="457.66666666666663" r="5.2" fill="#5cc8a7" stroke="#ffffff" stroke-width="0.8" opacity="0.72"/>
<circle cx="614.0" cy="494.66666666666663" r="5.2" fill="#5cc8a7" stroke="#ffffff" stroke-width="0.8" opacity="0.72"/>
<circle cx="747.7777777777778" cy="581.0" r="5.2" fill="#e06c75" stroke="#ffffff" stroke-width="0.8" opacity="0.72"/>
<circle cx="633.1111111111111" cy="519.3333333333334" r="5.2" fill="#5cc8a7" stroke="#ffffff" stroke-width="0.8" opacity="0.72"/>
<circle cx="556.6666666666666" cy="482.33333333333337" r="5.2" fill="#e06c75" stroke="#ffffff" stroke-width="0.8" opacity="0.72"/>
<circle cx="881.5555555555555" cy="655.0" r="5.2" fill="#e06c75" stroke="#ffffff" stroke-width="0.8" opacity="0.72"/>
<circle cx="442.0" cy="433.0" r="5.2" fill="#5cc8a7" stroke="#ffffff" stroke-width="0.8" opacity="0.72"/>
<circle cx="824.2222222222223" cy="568.6666666666666" r="5.2" fill="#e06c75" stroke="#ffffff" stroke-width="0.8" opacity="0.72"/>
<circle cx="747.7777777777778" cy="605.6666666666666" r="5.2" fill="#e06c75" stroke="#ffffff" stroke-width="0.8" opacity="0.72"/>
<circle cx="652.2222222222222" cy="581.0" r="5.2" fill="#e06c75" stroke="#ffffff" stroke-width="0.8" opacity="0.72"/>
<circle cx="843.3333333333333" cy="605.6666666666666" r="5.2" fill="#e06c75" stroke="#ffffff" stroke-width="0.8" opacity="0.72"/>
<circle cx="594.8888888888889" cy="531.6666666666666" r="5.2" fill="#e06c75" stroke="#ffffff" stroke-width="0.8" opacity="0.72"/>
<circle cx="461.1111111111111" cy="457.66666666666663" r="5.2" fill="#5cc8a7" stroke="#ffffff" stroke-width="0.8" opacity="0.72"/>
<circle cx="518.4444444444445" cy="507.0" r="5.2" fill="#e06c75" stroke="#ffffff" stroke-width="0.8" opacity="0.72"/>
<circle cx="633.1111111111111" cy="593.3333333333334" r="5.2" fill="#e06c75" stroke="#ffffff" stroke-width="0.8" opacity="0.72"/>
<circle cx="805.1111111111111" cy="568.6666666666666" r="5.2" fill="#e06c75" stroke="#ffffff" stroke-width="0.8" opacity="0.72"/>
<circle cx="614.0" cy="519.3333333333334" r="5.2" fill="#5cc8a7" stroke="#ffffff" stroke-width="0.8" opacity="0.72"/>
<circle cx="594.8888888888889" cy="544.0" r="5.2" fill="#5cc8a7" stroke="#ffffff" stroke-width="0.8" opacity="0.72"/>
<circle cx="308.22222222222223" cy="309.6666666666667" r="5.2" fill="#5cc8a7" stroke="#ffffff" stroke-width="0.8" opacity="0.72"/>
<circle cx="461.1111111111111" cy="408.33333333333337" r="5.2" fill="#5cc8a7" stroke="#ffffff" stroke-width="0.8" opacity="0.72"/>
<circle cx="422.8888888888889" cy="507.0" r="5.2" fill="#5cc8a7" stroke="#ffffff" stroke-width="0.8" opacity="0.72"/>
<circle cx="919.7777777777777" cy="581.0" r="5.2" fill="#e06c75" stroke="#ffffff" stroke-width="0.8" opacity="0.72"/>
<circle cx="461.1111111111111" cy="445.33333333333337" r="5.2" fill="#e06c75" stroke="#ffffff" stroke-width="0.8" opacity="0.72"/>
<circle cx="766.8888888888889" cy="556.3333333333334" r="5.2" fill="#e06c75" stroke="#ffffff" stroke-width="0.8" opacity="0.72"/>
<circle cx="480.22222222222223" cy="482.33333333333337" r="5.2" fill="#5cc8a7" stroke="#ffffff" stroke-width="0.8" opacity="0.72"/>
<circle cx="537.5555555555555" cy="470.0" r="5.2" fill="#5cc8a7" stroke="#ffffff" stroke-width="0.8" opacity="0.72"/>
<circle cx="709.5555555555555" cy="605.6666666666666" r="5.2" fill="#e06c75" stroke="#ffffff" stroke-width="0.8" opacity="0.72"/>
<circle cx="747.7777777777778" cy="605.6666666666666" r="5.2" fill="#e06c75" stroke="#ffffff" stroke-width="0.8" opacity="0.72"/>
<circle cx="919.7777777777777" cy="568.6666666666666" r="5.2" fill="#e06c75" stroke="#ffffff" stroke-width="0.8" opacity="0.72"/>
<circle cx="881.5555555555555" cy="655.0" r="5.2" fill="#e06c75" stroke="#ffffff" stroke-width="0.8" opacity="0.72"/>
<circle cx="499.33333333333337" cy="482.33333333333337" r="5.2" fill="#5cc8a7" stroke="#ffffff" stroke-width="0.8" opacity="0.72"/>
<circle cx="461.1111111111111" cy="519.3333333333334" r="5.2" fill="#5cc8a7" stroke="#ffffff" stroke-width="0.8" opacity="0.72"/>
<circle cx="709.5555555555555" cy="568.6666666666666" r="5.2" fill="#e06c75" stroke="#ffffff" stroke-width="0.8" opacity="0.72"/>
<circle cx="499.33333333333337" cy="445.33333333333337" r="5.2" fill="#5cc8a7" stroke="#ffffff" stroke-width="0.8" opacity="0.72"/>
<circle cx="652.2222222222222" cy="544.0" r="5.2" fill="#e06c75" stroke="#ffffff" stroke-width="0.8" opacity="0.72"/>
<circle cx="594.8888888888889" cy="556.3333333333334" r="5.2" fill="#5cc8a7" stroke="#ffffff" stroke-width="0.8" opacity="0.72"/>
<circle cx="862.4444444444445" cy="642.6666666666666" r="5.2" fill="#e06c75" stroke="#ffffff" stroke-width="0.8" opacity="0.72"/>
<circle cx="499.33333333333337" cy="457.66666666666663" r="5.2" fill="#5cc8a7" stroke="#ffffff" stroke-width="0.8" opacity="0.72"/>
<circle cx="728.6666666666667" cy="556.3333333333334" r="5.2" fill="#e06c75" stroke="#ffffff" stroke-width="0.8" opacity="0.72"/>
<circle cx="556.6666666666666" cy="408.33333333333337" r="5.2" fill="#5cc8a7" stroke="#ffffff" stroke-width="0.8" opacity="0.72"/>
<circle cx="824.2222222222223" cy="655.0" r="5.2" fill="#e06c75" stroke="#ffffff" stroke-width="0.8" opacity="0.72"/>
<circle cx="633.1111111111111" cy="494.66666666666663" r="5.2" fill="#5cc8a7" stroke="#ffffff" stroke-width="0.8" opacity="0.72"/>
<circle cx="690.4444444444445" cy="507.0" r="5.2" fill="#5cc8a7" stroke="#ffffff" stroke-width="0.8" opacity="0.72"/>
<circle cx="518.4444444444445" cy="531.6666666666666" r="5.2" fill="#5cc8a7" stroke="#ffffff" stroke-width="0.8" opacity="0.72"/>
<circle cx="518.4444444444445" cy="470.0" r="5.2" fill="#5cc8a7" stroke="#ffffff" stroke-width="0.8" opacity="0.72"/>
<circle cx="881.5555555555555" cy="630.3333333333334" r="5.2" fill="#e06c75" stroke="#ffffff" stroke-width="0.8" opacity="0.72"/>
<circle cx="977.1111111111111" cy="655.0" r="5.2" fill="#e06c75" stroke="#ffffff" stroke-width="0.8" opacity="0.72"/>
<circle cx="766.8888888888889" cy="556.3333333333334" r="5.2" fill="#e06c75" stroke="#ffffff" stroke-width="0.8" opacity="0.72"/>
<circle cx="919.7777777777777" cy="556.3333333333334" r="5.2" fill="#e06c75" stroke="#ffffff" stroke-width="0.8" opacity="0.72"/>
<circle cx="614.0" cy="581.0" r="5.2" fill="#5cc8a7" stroke="#ffffff" stroke-width="0.8" opacity="0.72"/>
<circle cx="671.3333333333333" cy="593.3333333333334" r="5.2" fill="#e06c75" stroke="#ffffff" stroke-width="0.8" opacity="0.72"/>
<circle cx="633.1111111111111" cy="470.0" r="5.2" fill="#5cc8a7" stroke="#ffffff" stroke-width="0.8" opacity="0.72"/>
<circle cx="422.8888888888889" cy="507.0" r="5.2" fill="#e06c75" stroke="#ffffff" stroke-width="0.8" opacity="0.72"/>
<circle cx="575.7777777777778" cy="568.6666666666666" r="5.2" fill="#e06c75" stroke="#ffffff" stroke-width="0.8" opacity="0.72"/>
<circle cx="709.5555555555555" cy="531.6666666666666" r="5.2" fill="#e06c75" stroke="#ffffff" stroke-width="0.8" opacity="0.72"/>
<circle cx="461.1111111111111" cy="433.0" r="5.2" fill="#5cc8a7" stroke="#ffffff" stroke-width="0.8" opacity="0.72"/>
<circle cx="633.1111111111111" cy="556.3333333333334" r="5.2" fill="#5cc8a7" stroke="#ffffff" stroke-width="0.8" opacity="0.72"/>
<circle cx="633.1111111111111" cy="494.66666666666663" r="5.2" fill="#e06c75" stroke="#ffffff" stroke-width="0.8" opacity="0.72"/>
<circle cx="442.0" cy="408.33333333333337" r="5.2" fill="#5cc8a7" stroke="#ffffff" stroke-width="0.8" opacity="0.72"/>
<circle cx="556.6666666666666" cy="470.0" r="5.2" fill="#5cc8a7" stroke="#ffffff" stroke-width="0.8" opacity="0.72"/>
<circle cx="594.8888888888889" cy="531.6666666666666" r="5.2" fill="#5cc8a7" stroke="#ffffff" stroke-width="0.8" opacity="0.72"/>
<circle cx="900.6666666666666" cy="655.0" r="5.2" fill="#e06c75" stroke="#ffffff" stroke-width="0.8" opacity="0.72"/>
<circle cx="556.6666666666666" cy="420.6666666666667" r="5.2" fill="#e06c75" stroke="#ffffff" stroke-width="0.8" opacity="0.72"/>
<circle cx="270.0" cy="396.0" r="5.2" fill="#5cc8a7" stroke="#ffffff" stroke-width="0.8" opacity="0.72"/>
<circle cx="671.3333333333333" cy="568.6666666666666" r="5.2" fill="#5cc8a7" stroke="#ffffff" stroke-width="0.8" opacity="0.72"/>
<circle cx="843.3333333333333" cy="655.0" r="5.2" fill="#e06c75" stroke="#ffffff" stroke-width="0.8" opacity="0.72"/>
<circle cx="671.3333333333333" cy="544.0" r="5.2" fill="#e06c75" stroke="#ffffff" stroke-width="0.8" opacity="0.72"/>
<circle cx="537.5555555555555" cy="531.6666666666666" r="5.2" fill="#5cc8a7" stroke="#ffffff" stroke-width="0.8" opacity="0.72"/>
<circle cx="594.8888888888889" cy="507.0" r="5.2" fill="#e06c75" stroke="#ffffff" stroke-width="0.8" opacity="0.72"/>
<circle cx="824.2222222222223" cy="445.33333333333337" r="5.2" fill="#5cc8a7" stroke="#ffffff" stroke-width="0.8" opacity="0.72"/>
<circle cx="594.8888888888889" cy="482.33333333333337" r="5.2" fill="#5cc8a7" stroke="#ffffff" stroke-width="0.8" opacity="0.72"/>
<circle cx="537.5555555555555" cy="507.0" r="5.2" fill="#5cc8a7" stroke="#ffffff" stroke-width="0.8" opacity="0.72"/>
<circle cx="422.8888888888889" cy="433.0" r="5.2" fill="#5cc8a7" stroke="#ffffff" stroke-width="0.8" opacity="0.72"/>
<circle cx="633.1111111111111" cy="457.66666666666663" r="5.2" fill="#5cc8a7" stroke="#ffffff" stroke-width="0.8" opacity="0.72"/>
<circle cx="537.5555555555555" cy="507.0" r="5.2" fill="#5cc8a7" stroke="#ffffff" stroke-width="0.8" opacity="0.72"/>
<circle cx="709.5555555555555" cy="494.66666666666663" r="5.2" fill="#5cc8a7" stroke="#ffffff" stroke-width="0.8" opacity="0.72"/>
<circle cx="671.3333333333333" cy="494.66666666666663" r="5.2" fill="#e06c75" stroke="#ffffff" stroke-width="0.8" opacity="0.72"/>
<circle cx="384.6666666666667" cy="433.0" r="5.2" fill="#5cc8a7" stroke="#ffffff" stroke-width="0.8" opacity="0.72"/>
<circle cx="403.77777777777777" cy="482.33333333333337" r="5.2" fill="#5cc8a7" stroke="#ffffff" stroke-width="0.8" opacity="0.72"/>
<circle cx="633.1111111111111" cy="544.0" r="5.2" fill="#5cc8a7" stroke="#ffffff" stroke-width="0.8" opacity="0.72"/>
<circle cx="556.6666666666666" cy="568.6666666666666" r="5.2" fill="#5cc8a7" stroke="#ffffff" stroke-width="0.8" opacity="0.72"/>
<circle cx="728.6666666666667" cy="544.0" r="5.2" fill="#5cc8a7" stroke="#ffffff" stroke-width="0.8" opacity="0.72"/>
<circle cx="537.5555555555555" cy="581.0" r="5.2" fill="#e06c75" stroke="#ffffff" stroke-width="0.8" opacity="0.72"/>
<circle cx="556.6666666666666" cy="482.33333333333337" r="5.2" fill="#5cc8a7" stroke="#ffffff" stroke-width="0.8" opacity="0.72"/>
<circle cx="766.8888888888889" cy="618.0" r="5.2" fill="#e06c75" stroke="#ffffff" stroke-width="0.8" opacity="0.72"/>
<circle cx="633.1111111111111" cy="568.6666666666666" r="5.2" fill="#e06c75" stroke="#ffffff" stroke-width="0.8" opacity="0.72"/>
<circle cx="594.8888888888889" cy="482.33333333333337" r="5.2" fill="#5cc8a7" stroke="#ffffff" stroke-width="0.8" opacity="0.72"/>
<circle cx="862.4444444444445" cy="655.0" r="5.2" fill="#e06c75" stroke="#ffffff" stroke-width="0.8" opacity="0.72"/>
<circle cx="442.0" cy="371.3333333333333" r="5.2" fill="#5cc8a7" stroke="#ffffff" stroke-width="0.8" opacity="0.72"/>
<circle cx="461.1111111111111" cy="494.66666666666663" r="5.2" fill="#e06c75" stroke="#ffffff" stroke-width="0.8" opacity="0.72"/>
<line x1="270" y1="655" x2="1130" y2="655" stroke="#9aa8b7" stroke-width="2" opacity="1"/>
<line x1="270" y1="655" x2="270" y2="285" stroke="#9aa8b7" stroke-width="2" opacity="1"/>
<text x="685.0" y="700" fill="#9aa8b7" font-size="22" font-family="'Hiragino Sans GB', 'STHeiti', 'Arial Unicode MS', sans-serif" font-weight="400" text-anchor="middle" opacity="1">最近登录距今天数</text>
<text x="216" y="288" fill="#9aa8b7" font-size="21" font-family="'Hiragino Sans GB', 'STHeiti', 'Arial Unicode MS', sans-serif" font-weight="400" text-anchor="start" opacity="1">活跃天数</text>
<rect x="1240" y="315" width="220" height="160" rx="8" fill="#0f1722" stroke="#34475e" stroke-width="2" opacity="1"/>
<circle cx="1270" cy="360" r="7" fill="#e06c75" stroke="#ffffff" stroke-width="1" opacity="1"/>
<text x="1290" y="368" fill="#e9eef4" font-size="21" font-family="'Hiragino Sans GB', 'STHeiti', 'Arial Unicode MS', sans-serif" font-weight="400" text-anchor="start" opacity="1">下月取消订阅</text>
<circle cx="1270" cy="415" r="7" fill="#5cc8a7" stroke="#ffffff" stroke-width="1" opacity="1"/>
<text x="1290" y="423" fill="#e9eef4" font-size="21" font-family="'Hiragino Sans GB', 'STHeiti', 'Arial Unicode MS', sans-serif" font-weight="400" text-anchor="start" opacity="1">下月未取消</text>
<text x="190" y="800" fill="#9aa8b7" font-size="28" font-family="'Hiragino Sans GB', 'STHeiti', 'Arial Unicode MS', sans-serif" font-weight="400" text-anchor="start" opacity="1">树模型不是寻找一条平滑边界，而是用一组条件把样本送进不同小区域。</text>
</svg>