<svg xmlns="http://www.w3.org/2000/svg" width="1600" height="900" viewBox="0 0 1600 900">
<rect width="1600" height="900" fill="#101821"/>
<line x1="80" y1="0" x2="80" y2="900" stroke="#263545" stroke-width="1" opacity="0.24"/>
<line x1="160" y1="0" x2="160" y2="900" stroke="#263545" stroke-width="1" opacity="0.24"/>
<line x1="240" y1="0" x2="240" y2="900" stroke="#263545" stroke-width="1" opacity="0.24"/>
<line x1="320" y1="0" x2="320" y2="900" stroke="#263545" stroke-width="1" opacity="0.24"/>
<line x1="400" y1="0" x2="400" y2="900" stroke="#263545" stroke-width="1" opacity="0.24"/>
<line x1="480" y1="0" x2="480" y2="900" stroke="#263545" stroke-width="1" opacity="0.24"/>
<line x1="560" y1="0" x2="560" y2="900" stroke="#263545" stroke-width="1" opacity="0.24"/>
<line x1="640" y1="0" x2="640" y2="900" stroke="#263545" stroke-width="1" opacity="0.24"/>
<line x1="720" y1="0" x2="720" y2="900" stroke="#263545" stroke-width="1" opacity="0.24"/>
<line x1="800" y1="0" x2="800" y2="900" stroke="#263545" stroke-width="1" opacity="0.24"/>
<line x1="880" y1="0" x2="880" y2="900" stroke="#263545" stroke-width="1" opacity="0.24"/>
<line x1="960" y1="0" x2="960" y2="900" stroke="#263545" stroke-width="1" opacity="0.24"/>
<line x1="1040" y1="0" x2="1040" y2="900" stroke="#263545" stroke-width="1" opacity="0.24"/>
<line x1="1120" y1="0" x2="1120" y2="900" stroke="#263545" stroke-width="1" opacity="0.24"/>
<line x1="1200" y1="0" x2="1200" y2="900" stroke="#263545" stroke-width="1" opacity="0.24"/>
<line x1="1280" y1="0" x2="1280" y2="900" stroke="#263545" stroke-width="1" opacity="0.24"/>
<line x1="1360" y1="0" x2="1360" y2="900" stroke="#263545" stroke-width="1" opacity="0.24"/>
<line x1="1440" y1="0" x2="1440" y2="900" stroke="#263545" stroke-width="1" opacity="0.24"/>
<line x1="1520" y1="0" x2="1520" y2="900" stroke="#263545" stroke-width="1" opacity="0.24"/>
<line x1="0" y1="60" x2="1600" y2="60" stroke="#263545" stroke-width="1" opacity="0.18"/>
<line x1="0" y1="120" x2="1600" y2="120" stroke="#263545" stroke-width="1" opacity="0.18"/>
<line x1="0" y1="180" x2="1600" y2="180" stroke="#263545" stroke-width="1" opacity="0.18"/>
<line x1="0" y1="240" x2="1600" y2="240" stroke="#263545" stroke-width="1" opacity="0.18"/>
<line x1="0" y1="300" x2="1600" y2="300" stroke="#263545" stroke-width="1" opacity="0.18"/>
<line x1="0" y1="360" x2="1600" y2="360" stroke="#263545" stroke-width="1" opacity="0.18"/>
<line x1="0" y1="420" x2="1600" y2="420" stroke="#263545" stroke-width="1" opacity="0.18"/>
<line x1="0" y1="480" x2="1600" y2="480" stroke="#263545" stroke-width="1" opacity="0.18"/>
<line x1="0" y1="540" x2="1600" y2="540" stroke="#263545" stroke-width="1" opacity="0.18"/>
<line x1="0" y1="600" x2="1600" y2="600" stroke="#263545" stroke-width="1" opacity="0.18"/>
<line x1="0" y1="660" x2="1600" y2="660" stroke="#263545" stroke-width="1" opacity="0.18"/>
<line x1="0" y1="720" x2="1600" y2="720" stroke="#263545" stroke-width="1" opacity="0.18"/>
<line x1="0" y1="780" x2="1600" y2="780" stroke="#263545" stroke-width="1" opacity="0.18"/>
<line x1="0" y1="840" x2="1600" y2="840" stroke="#263545" stroke-width="1" opacity="0.18"/>
<rect x="40" y="40" width="1520" height="820" rx="0" fill="none" stroke="#2e4054" stroke-width="2" opacity="0.75"/>
<text x="90" y="105" fill="#e9eef4" font-size="40" font-family="'Hiragino Sans GB', 'STHeiti', 'Arial Unicode MS', sans-serif" font-weight="700" text-anchor="start" opacity="1">集成模型把许多小判断组织起来</text>
<text x="90" y="150" fill="#9aa8b7" font-size="24" font-family="'Hiragino Sans GB', 'STHeiti', 'Arial Unicode MS', sans-serif" font-weight="400" text-anchor="start" opacity="1">浅树给规则，森林给稳健基线，提升树给强模型候选</text>
<rect x="210" y="245" width="1000" height="455" rx="8" fill="#0f1722" stroke="#34475e" stroke-width="2" opacity="1"/>
<rect x="320.0" y="446.8489583333333" width="52" height="173.15104166666669" rx="5" fill="#6ea8fe" stroke="none" stroke-width="2" opacity="0.9"/>
<text x="346.0" y="434.8489583333333" fill="#6ea8fe" font-size="18" font-family="'SF Mono', 'Menlo', 'Consolas', monospace" font-weight="700" text-anchor="middle" opacity="1">0.820</text>
<text x="346.0" y="650" fill="#9aa8b7" font-size="16" font-family="'Hiragino Sans GB', 'STHeiti', 'Arial Unicode MS', sans-serif" font-weight="400" text-anchor="middle" opacity="1">验证</text>
<rect x="392.0" y="459.61052322163437" width="52" height="160.38947677836563" rx="5" fill="#d7a64a" stroke="none" stroke-width="2" opacity="0.9"/>
<text x="418.0" y="447.61052322163437" fill="#d7a64a" font-size="18" font-family="'SF Mono', 'Menlo', 'Consolas', monospace" font-weight="700" text-anchor="middle" opacity="1">0.808</text>
<text x="418.0" y="650" fill="#9aa8b7" font-size="16" font-family="'Hiragino Sans GB', 'STHeiti', 'Arial Unicode MS', sans-serif" font-weight="400" text-anchor="middle" opacity="1">测试</text>
<text x="382.0" y="692" fill="#e9eef4" font-size="22" font-family="'Hiragino Sans GB', 'STHeiti', 'Arial Unicode MS', sans-serif" font-weight="700" text-anchor="middle" opacity="1">浅树</text>
<rect x="653.3333333333333" y="421.25578703703695" width="52" height="198.74421296296302" rx="5" fill="#6ea8fe" stroke="none" stroke-width="2" opacity="0.9"/>
<text x="679.3333333333333" y="409.25578703703695" fill="#6ea8fe" font-size="18" font-family="'SF Mono', 'Menlo', 'Consolas', monospace" font-weight="700" text-anchor="middle" opacity="1">0.845</text>
<text x="679.3333333333333" y="650" fill="#9aa8b7" font-size="16" font-family="'Hiragino Sans GB', 'STHeiti', 'Arial Unicode MS', sans-serif" font-weight="400" text-anchor="middle" opacity="1">验证</text>
<rect x="725.3333333333333" y="369.9573780129336" width="52" height="250.0426219870664" rx="5" fill="#d7a64a" stroke="none" stroke-width="2" opacity="0.9"/>
<text x="751.3333333333333" y="357.9573780129336" fill="#d7a64a" font-size="18" font-family="'SF Mono', 'Menlo', 'Consolas', monospace" font-weight="700" text-anchor="middle" opacity="1">0.896</text>
<text x="751.3333333333333" y="650" fill="#9aa8b7" font-size="16" font-family="'Hiragino Sans GB', 'STHeiti', 'Arial Unicode MS', sans-serif" font-weight="400" text-anchor="middle" opacity="1">测试</text>
<text x="715.3333333333333" y="692" fill="#e9eef4" font-size="22" font-family="'Hiragino Sans GB', 'STHeiti', 'Arial Unicode MS', sans-serif" font-weight="700" text-anchor="middle" opacity="1">随机森林</text>
<rect x="986.6666666666666" y="449.4965277777777" width="52" height="170.50347222222226" rx="5" fill="#6ea8fe" stroke="none" stroke-width="2" opacity="0.9"/>
<text x="1012.6666666666666" y="437.4965277777777" fill="#6ea8fe" font-size="18" font-family="'SF Mono', 'Menlo', 'Consolas', monospace" font-weight="700" text-anchor="middle" opacity="1">0.818</text>
<text x="1012.6666666666666" y="650" fill="#9aa8b7" font-size="16" font-family="'Hiragino Sans GB', 'STHeiti', 'Arial Unicode MS', sans-serif" font-weight="400" text-anchor="middle" opacity="1">验证</text>
<rect x="1058.6666666666665" y="409.4047619047619" width="52" height="210.59523809523805" rx="5" fill="#d7a64a" stroke="none" stroke-width="2" opacity="0.9"/>
<text x="1084.6666666666665" y="397.4047619047619" fill="#d7a64a" font-size="18" font-family="'SF Mono', 'Menlo', 'Consolas', monospace" font-weight="700" text-anchor="middle" opacity="1">0.857</text>
<text x="1084.6666666666665" y="650" fill="#9aa8b7" font-size="16" font-family="'Hiragino Sans GB', 'STHeiti', 'Arial Unicode MS', sans-serif" font-weight="400" text-anchor="middle" opacity="1">测试</text>
<text x="1048.6666666666665" y="692" fill="#e9eef4" font-size="22" font-family="'Hiragino Sans GB', 'STHeiti', 'Arial Unicode MS', sans-serif" font-weight="700" text-anchor="middle" opacity="1">提升树</text>
<line x1="290" y1="569.1666666666667" x2="1140" y2="569.1666666666667" stroke="#263545" stroke-width="1" opacity="0.48"/>
<text x="270" y="575.1666666666667" fill="#9aa8b7" font-size="17" font-family="'SF Mono', 'Menlo', 'Consolas', monospace" font-weight="400" text-anchor="end" opacity="1">0.70</text>
<line x1="290" y1="467.49999999999994" x2="1140" y2="467.49999999999994" stroke="#263545" stroke-width="1" opacity="0.48"/>
<text x="270" y="473.49999999999994" fill="#9aa8b7" font-size="17" font-family="'SF Mono', 'Menlo', 'Consolas', monospace" font-weight="400" text-anchor="end" opacity="1">0.80</text>
<line x1="290" y1="365.83333333333326" x2="1140" y2="365.83333333333326" stroke="#263545" stroke-width="1" opacity="0.48"/>
<text x="270" y="371.83333333333326" fill="#9aa8b7" font-size="17" font-family="'SF Mono', 'Menlo', 'Consolas', monospace" font-weight="400" text-anchor="end" opacity="1">0.90</text>
<rect x="1275" y="315" width="190" height="125" rx="8" fill="#0f1722" stroke="#34475e" stroke-width="2" opacity="1"/>
<rect x="1300" y="350" width="24" height="16" rx="3" fill="#6ea8fe" stroke="none" stroke-width="2" opacity="1"/>
<text x="1340" y="367" fill="#e9eef4" font-size="21" font-family="'Hiragino Sans GB', 'STHeiti', 'Arial Unicode MS', sans-serif" font-weight="400" text-anchor="start" opacity="1">验证 AUC</text>
<rect x="1300" y="402" width="24" height="16" rx="3" fill="#d7a64a" stroke="none" stroke-width="2" opacity="1"/>
<text x="1340" y="419" fill="#e9eef4" font-size="21" font-family="'Hiragino Sans GB', 'STHeiti', 'Arial Unicode MS', sans-serif" font-weight="400" text-anchor="start" opacity="1">测试 AUC</text>
<text x="210" y="800" fill="#9aa8b7" font-size="28" font-family="'Hiragino Sans GB', 'STHeiti', 'Arial Unicode MS', sans-serif" font-weight="400" text-anchor="start" opacity="1">最高分只是选型证据之一；解释成本、调参成本和生产监控同样进入工程判断。</text>
</svg>