<svg xmlns="http://www.w3.org/2000/svg" width="1600" height="900" viewBox="0 0 1600 900">
<rect width="1600" height="900" fill="#101821"/>
<line x1="80" y1="0" x2="80" y2="900" stroke="#263545" stroke-width="1" opacity="0.24"/>
<line x1="160" y1="0" x2="160" y2="900" stroke="#263545" stroke-width="1" opacity="0.24"/>
<line x1="240" y1="0" x2="240" y2="900" stroke="#263545" stroke-width="1" opacity="0.24"/>
<line x1="320" y1="0" x2="320" y2="900" stroke="#263545" stroke-width="1" opacity="0.24"/>
<line x1="400" y1="0" x2="400" y2="900" stroke="#263545" stroke-width="1" opacity="0.24"/>
<line x1="480" y1="0" x2="480" y2="900" stroke="#263545" stroke-width="1" opacity="0.24"/>
<line x1="560" y1="0" x2="560" y2="900" stroke="#263545" stroke-width="1" opacity="0.24"/>
<line x1="640" y1="0" x2="640" y2="900" stroke="#263545" stroke-width="1" opacity="0.24"/>
<line x1="720" y1="0" x2="720" y2="900" stroke="#263545" stroke-width="1" opacity="0.24"/>
<line x1="800" y1="0" x2="800" y2="900" stroke="#263545" stroke-width="1" opacity="0.24"/>
<line x1="880" y1="0" x2="880" y2="900" stroke="#263545" stroke-width="1" opacity="0.24"/>
<line x1="960" y1="0" x2="960" y2="900" stroke="#263545" stroke-width="1" opacity="0.24"/>
<line x1="1040" y1="0" x2="1040" y2="900" stroke="#263545" stroke-width="1" opacity="0.24"/>
<line x1="1120" y1="0" x2="1120" y2="900" stroke="#263545" stroke-width="1" opacity="0.24"/>
<line x1="1200" y1="0" x2="1200" y2="900" stroke="#263545" stroke-width="1" opacity="0.24"/>
<line x1="1280" y1="0" x2="1280" y2="900" stroke="#263545" stroke-width="1" opacity="0.24"/>
<line x1="1360" y1="0" x2="1360" y2="900" stroke="#263545" stroke-width="1" opacity="0.24"/>
<line x1="1440" y1="0" x2="1440" y2="900" stroke="#263545" stroke-width="1" opacity="0.24"/>
<line x1="1520" y1="0" x2="1520" y2="900" stroke="#263545" stroke-width="1" opacity="0.24"/>
<line x1="0" y1="60" x2="1600" y2="60" stroke="#263545" stroke-width="1" opacity="0.18"/>
<line x1="0" y1="120" x2="1600" y2="120" stroke="#263545" stroke-width="1" opacity="0.18"/>
<line x1="0" y1="180" x2="1600" y2="180" stroke="#263545" stroke-width="1" opacity="0.18"/>
<line x1="0" y1="240" x2="1600" y2="240" stroke="#263545" stroke-width="1" opacity="0.18"/>
<line x1="0" y1="300" x2="1600" y2="300" stroke="#263545" stroke-width="1" opacity="0.18"/>
<line x1="0" y1="360" x2="1600" y2="360" stroke="#263545" stroke-width="1" opacity="0.18"/>
<line x1="0" y1="420" x2="1600" y2="420" stroke="#263545" stroke-width="1" opacity="0.18"/>
<line x1="0" y1="480" x2="1600" y2="480" stroke="#263545" stroke-width="1" opacity="0.18"/>
<line x1="0" y1="540" x2="1600" y2="540" stroke="#263545" stroke-width="1" opacity="0.18"/>
<line x1="0" y1="600" x2="1600" y2="600" stroke="#263545" stroke-width="1" opacity="0.18"/>
<line x1="0" y1="660" x2="1600" y2="660" stroke="#263545" stroke-width="1" opacity="0.18"/>
<line x1="0" y1="720" x2="1600" y2="720" stroke="#263545" stroke-width="1" opacity="0.18"/>
<line x1="0" y1="780" x2="1600" y2="780" stroke="#263545" stroke-width="1" opacity="0.18"/>
<line x1="0" y1="840" x2="1600" y2="840" stroke="#263545" stroke-width="1" opacity="0.18"/>
<rect x="40" y="40" width="1520" height="820" rx="0" fill="none" stroke="#2e4054" stroke-width="2" opacity="0.75"/>
<text x="90" y="105" fill="#e9eef4" font-size="40" font-family="'Hiragino Sans GB', 'STHeiti', 'Arial Unicode MS', sans-serif" font-weight="700" text-anchor="start" opacity="1">树越深，训练集越容易被记住</text>
<text x="90" y="150" fill="#9aa8b7" font-size="24" font-family="'Hiragino Sans GB', 'STHeiti', 'Arial Unicode MS', sans-serif" font-weight="400" text-anchor="start" opacity="1">验证分数和叶子数一起看，才能判断复杂度是否仍有证据支撑</text>
<rect x="210" y="235" width="980" height="480" rx="8" fill="#0f1722" stroke="#34475e" stroke-width="2" opacity="1"/>
<line x1="300" y1="300.0" x2="1110" y2="300.0" stroke="#263545" stroke-width="1" opacity="0.55"/>
<line x1="300" y1="369.0" x2="1110" y2="369.0" stroke="#263545" stroke-width="1" opacity="0.55"/>
<line x1="300" y1="438.0" x2="1110" y2="438.0" stroke="#263545" stroke-width="1" opacity="0.55"/>
<line x1="300" y1="507.0" x2="1110" y2="507.0" stroke="#263545" stroke-width="1" opacity="0.55"/>
<line x1="300" y1="576.0" x2="1110" y2="576.0" stroke="#263545" stroke-width="1" opacity="0.55"/>
<line x1="300" y1="645.0" x2="1110" y2="645.0" stroke="#263545" stroke-width="1" opacity="0.55"/>
<line x1="300" y1="645" x2="1110" y2="645" stroke="#9aa8b7" stroke-width="2" opacity="1"/>
<line x1="300" y1="300" x2="300" y2="645" stroke="#9aa8b7" stroke-width="2" opacity="1"/>
<polyline points="300.00,538.98 435.00,440.38 570.00,404.67 705.00,380.63 840.00,372.77 975.00,361.77 1110.00,361.77" fill="none" stroke="#6ea8fe" stroke-width="5" stroke-linecap="round" stroke-linejoin="round"/>
<polyline points="300.00,577.92 435.00,500.05 570.00,449.14 705.00,447.14 840.00,425.18 975.00,414.20 1110.00,414.20" fill="none" stroke="#d7a64a" stroke-width="5" stroke-linecap="round" stroke-linejoin="round"/>
<line x1="300.0" y1="645" x2="300.0" y2="653" stroke="#9aa8b7" stroke-width="2" opacity="1"/>
<text x="300.0" y="683" fill="#9aa8b7" font-size="18" font-family="'SF Mono', 'Menlo', 'Consolas', monospace" font-weight="400" text-anchor="middle" opacity="1">1</text>
<circle cx="300.0" cy="538.984375" r="7" fill="#6ea8fe" stroke="#ffffff" stroke-width="1.5" opacity="1"/>
<circle cx="300.0" cy="577.9166666666666" r="7" fill="#d7a64a" stroke="#ffffff" stroke-width="1.5" opacity="1"/>
<text x="300.0" y="278" fill="#9aa8b7" font-size="17" font-family="'Hiragino Sans GB', 'STHeiti', 'Arial Unicode MS', sans-serif" font-weight="400" text-anchor="middle" opacity="1">2 叶</text>
<line x1="435.0" y1="645" x2="435.0" y2="653" stroke="#9aa8b7" stroke-width="2" opacity="1"/>
<text x="435.0" y="683" fill="#9aa8b7" font-size="18" font-family="'SF Mono', 'Menlo', 'Consolas', monospace" font-weight="400" text-anchor="middle" opacity="1">2</text>
<circle cx="435.0" cy="440.380859375" r="7" fill="#6ea8fe" stroke="#ffffff" stroke-width="1.5" opacity="1"/>
<circle cx="435.0" cy="500.05208333333337" r="7" fill="#d7a64a" stroke="#ffffff" stroke-width="1.5" opacity="1"/>
<text x="435.0" y="278" fill="#9aa8b7" font-size="17" font-family="'Hiragino Sans GB', 'STHeiti', 'Arial Unicode MS', sans-serif" font-weight="400" text-anchor="middle" opacity="1">4 叶</text>
<line x1="570.0" y1="645" x2="570.0" y2="653" stroke="#9aa8b7" stroke-width="2" opacity="1"/>
<text x="570.0" y="683" fill="#9aa8b7" font-size="18" font-family="'SF Mono', 'Menlo', 'Consolas', monospace" font-weight="400" text-anchor="middle" opacity="1">3</text>
<circle cx="570.0" cy="404.66796874999994" r="7" fill="#6ea8fe" stroke="#ffffff" stroke-width="1.5" opacity="1"/>
<circle cx="570.0" cy="449.140625" r="7" fill="#d7a64a" stroke="#ffffff" stroke-width="1.5" opacity="1"/>
<text x="570.0" y="278" fill="#9aa8b7" font-size="17" font-family="'Hiragino Sans GB', 'STHeiti', 'Arial Unicode MS', sans-serif" font-weight="400" text-anchor="middle" opacity="1">7 叶</text>
<line x1="705.0" y1="645" x2="705.0" y2="653" stroke="#9aa8b7" stroke-width="2" opacity="1"/>
<text x="705.0" y="683" fill="#9aa8b7" font-size="18" font-family="'SF Mono', 'Menlo', 'Consolas', monospace" font-weight="400" text-anchor="middle" opacity="1">4</text>
<circle cx="705.0" cy="380.634765625" r="7" fill="#6ea8fe" stroke="#ffffff" stroke-width="1.5" opacity="1"/>
<circle cx="705.0" cy="447.1440972222222" r="7" fill="#d7a64a" stroke="#ffffff" stroke-width="1.5" opacity="1"/>
<text x="705.0" y="278" fill="#9aa8b7" font-size="17" font-family="'Hiragino Sans GB', 'STHeiti', 'Arial Unicode MS', sans-serif" font-weight="400" text-anchor="middle" opacity="1">9 叶</text>
<line x1="840.0" y1="645" x2="840.0" y2="653" stroke="#9aa8b7" stroke-width="2" opacity="1"/>
<text x="840.0" y="683" fill="#9aa8b7" font-size="18" font-family="'SF Mono', 'Menlo', 'Consolas', monospace" font-weight="400" text-anchor="middle" opacity="1">5</text>
<circle cx="840.0" cy="372.77343749999994" r="7" fill="#6ea8fe" stroke="#ffffff" stroke-width="1.5" opacity="1"/>
<circle cx="840.0" cy="425.1822916666666" r="7" fill="#d7a64a" stroke="#ffffff" stroke-width="1.5" opacity="1"/>
<text x="840.0" y="278" fill="#9aa8b7" font-size="17" font-family="'Hiragino Sans GB', 'STHeiti', 'Arial Unicode MS', sans-serif" font-weight="400" text-anchor="middle" opacity="1">10 叶</text>
<line x1="975.0" y1="645" x2="975.0" y2="653" stroke="#9aa8b7" stroke-width="2" opacity="1"/>
<text x="975.0" y="683" fill="#9aa8b7" font-size="18" font-family="'SF Mono', 'Menlo', 'Consolas', monospace" font-weight="400" text-anchor="middle" opacity="1">7</text>
<circle cx="975.0" cy="361.767578125" r="7" fill="#6ea8fe" stroke="#ffffff" stroke-width="1.5" opacity="1"/>
<circle cx="975.0" cy="414.2013888888889" r="7" fill="#d7a64a" stroke="#ffffff" stroke-width="1.5" opacity="1"/>
<text x="975.0" y="278" fill="#9aa8b7" font-size="17" font-family="'Hiragino Sans GB', 'STHeiti', 'Arial Unicode MS', sans-serif" font-weight="400" text-anchor="middle" opacity="1">12 叶</text>
<line x1="1110.0" y1="645" x2="1110.0" y2="653" stroke="#9aa8b7" stroke-width="2" opacity="1"/>
<text x="1110.0" y="683" fill="#9aa8b7" font-size="18" font-family="'SF Mono', 'Menlo', 'Consolas', monospace" font-weight="400" text-anchor="middle" opacity="1">none</text>
<circle cx="1110.0" cy="361.767578125" r="7" fill="#6ea8fe" stroke="#ffffff" stroke-width="1.5" opacity="1"/>
<circle cx="1110.0" cy="414.2013888888889" r="7" fill="#d7a64a" stroke="#ffffff" stroke-width="1.5" opacity="1"/>
<text x="1110.0" y="278" fill="#9aa8b7" font-size="17" font-family="'Hiragino Sans GB', 'STHeiti', 'Arial Unicode MS', sans-serif" font-weight="400" text-anchor="middle" opacity="1">12 叶</text>
<text x="282" y="593.5000000000001" fill="#9aa8b7" font-size="17" font-family="'SF Mono', 'Menlo', 'Consolas', monospace" font-weight="400" text-anchor="end" opacity="1">0.70</text>
<text x="282" y="478.4999999999999" fill="#9aa8b7" font-size="17" font-family="'SF Mono', 'Menlo', 'Consolas', monospace" font-weight="400" text-anchor="end" opacity="1">0.80</text>
<text x="282" y="363.49999999999994" fill="#9aa8b7" font-size="17" font-family="'SF Mono', 'Menlo', 'Consolas', monospace" font-weight="400" text-anchor="end" opacity="1">0.90</text>
<text x="705.0" y="695" fill="#9aa8b7" font-size="22" font-family="'SF Mono', 'Menlo', 'Consolas', monospace" font-weight="400" text-anchor="middle" opacity="1">max_depth</text>
<rect x="1240" y="325" width="220" height="130" rx="8" fill="#0f1722" stroke="#34475e" stroke-width="2" opacity="1"/>
<line x1="1270" y1="360" x2="1330" y2="360" stroke="#6ea8fe" stroke-width="5" opacity="1"/>
<text x="1350" y="368" fill="#e9eef4" font-size="21" font-family="'Hiragino Sans GB', 'STHeiti', 'Arial Unicode MS', sans-serif" font-weight="400" text-anchor="start" opacity="1">训练 AUC</text>
<line x1="1270" y1="415" x2="1330" y2="415" stroke="#d7a64a" stroke-width="5" opacity="1"/>
<text x="1350" y="423" fill="#e9eef4" font-size="21" font-family="'Hiragino Sans GB', 'STHeiti', 'Arial Unicode MS', sans-serif" font-weight="400" text-anchor="start" opacity="1">验证 AUC</text>
<text x="210" y="800" fill="#9aa8b7" font-size="28" font-family="'Hiragino Sans GB', 'STHeiti', 'Arial Unicode MS', sans-serif" font-weight="400" text-anchor="start" opacity="1">训练分数继续上升并不罕见；验证曲线和叶子数才暴露树是否开始背训练集。</text>
</svg>