<svg xmlns="http://www.w3.org/2000/svg" width="1600" height="900" viewBox="0 0 1600 900">
<defs>
<marker id="arrow" viewBox="0 0 10 10" refX="9" refY="5" markerWidth="8" markerHeight="8" orient="auto-start-reverse">
<path d="M 0 0 L 10 5 L 0 10 z" fill="#9aa8b7"/>
</marker>
<marker id="red-arrow" viewBox="0 0 10 10" refX="9" refY="5" markerWidth="8" markerHeight="8" orient="auto-start-reverse">
<path d="M 0 0 L 10 5 L 0 10 z" fill="#e06c75"/>
</marker>
</defs>
<rect width="1600" height="900" fill="#101821"/>
<line x1="80" y1="0" x2="80" y2="900" stroke="#263545" stroke-width="1" opacity="0.2"/>
<line x1="160" y1="0" x2="160" y2="900" stroke="#263545" stroke-width="1" opacity="0.2"/>
<line x1="240" y1="0" x2="240" y2="900" stroke="#263545" stroke-width="1" opacity="0.2"/>
<line x1="320" y1="0" x2="320" y2="900" stroke="#263545" stroke-width="1" opacity="0.2"/>
<line x1="400" y1="0" x2="400" y2="900" stroke="#263545" stroke-width="1" opacity="0.2"/>
<line x1="480" y1="0" x2="480" y2="900" stroke="#263545" stroke-width="1" opacity="0.2"/>
<line x1="560" y1="0" x2="560" y2="900" stroke="#263545" stroke-width="1" opacity="0.2"/>
<line x1="640" y1="0" x2="640" y2="900" stroke="#263545" stroke-width="1" opacity="0.2"/>
<line x1="720" y1="0" x2="720" y2="900" stroke="#263545" stroke-width="1" opacity="0.2"/>
<line x1="800" y1="0" x2="800" y2="900" stroke="#263545" stroke-width="1" opacity="0.2"/>
<line x1="880" y1="0" x2="880" y2="900" stroke="#263545" stroke-width="1" opacity="0.2"/>
<line x1="960" y1="0" x2="960" y2="900" stroke="#263545" stroke-width="1" opacity="0.2"/>
<line x1="1040" y1="0" x2="1040" y2="900" stroke="#263545" stroke-width="1" opacity="0.2"/>
<line x1="1120" y1="0" x2="1120" y2="900" stroke="#263545" stroke-width="1" opacity="0.2"/>
<line x1="1200" y1="0" x2="1200" y2="900" stroke="#263545" stroke-width="1" opacity="0.2"/>
<line x1="1280" y1="0" x2="1280" y2="900" stroke="#263545" stroke-width="1" opacity="0.2"/>
<line x1="1360" y1="0" x2="1360" y2="900" stroke="#263545" stroke-width="1" opacity="0.2"/>
<line x1="1440" y1="0" x2="1440" y2="900" stroke="#263545" stroke-width="1" opacity="0.2"/>
<line x1="1520" y1="0" x2="1520" y2="900" stroke="#263545" stroke-width="1" opacity="0.2"/>
<line x1="0" y1="60" x2="1600" y2="60" stroke="#263545" stroke-width="1" opacity="0.16"/>
<line x1="0" y1="120" x2="1600" y2="120" stroke="#263545" stroke-width="1" opacity="0.16"/>
<line x1="0" y1="180" x2="1600" y2="180" stroke="#263545" stroke-width="1" opacity="0.16"/>
<line x1="0" y1="240" x2="1600" y2="240" stroke="#263545" stroke-width="1" opacity="0.16"/>
<line x1="0" y1="300" x2="1600" y2="300" stroke="#263545" stroke-width="1" opacity="0.16"/>
<line x1="0" y1="360" x2="1600" y2="360" stroke="#263545" stroke-width="1" opacity="0.16"/>
<line x1="0" y1="420" x2="1600" y2="420" stroke="#263545" stroke-width="1" opacity="0.16"/>
<line x1="0" y1="480" x2="1600" y2="480" stroke="#263545" stroke-width="1" opacity="0.16"/>
<line x1="0" y1="540" x2="1600" y2="540" stroke="#263545" stroke-width="1" opacity="0.16"/>
<line x1="0" y1="600" x2="1600" y2="600" stroke="#263545" stroke-width="1" opacity="0.16"/>
<line x1="0" y1="660" x2="1600" y2="660" stroke="#263545" stroke-width="1" opacity="0.16"/>
<line x1="0" y1="720" x2="1600" y2="720" stroke="#263545" stroke-width="1" opacity="0.16"/>
<line x1="0" y1="780" x2="1600" y2="780" stroke="#263545" stroke-width="1" opacity="0.16"/>
<line x1="0" y1="840" x2="1600" y2="840" stroke="#263545" stroke-width="1" opacity="0.16"/>
<rect x="40" y="40" width="1520" height="820" rx="0" fill="none" stroke="#2e4054" stroke-width="2" opacity="0.75"/>
<text x="90" y="105" fill="#e9eef4" font-size="40" font-family="'Hiragino Sans GB', 'STHeiti', 'Arial Unicode MS', sans-serif" font-weight="700" text-anchor="start" opacity="1">从业务事件到训练样本</text>
<text x="90" y="150" fill="#9aa8b7" font-size="24" font-family="'Hiragino Sans GB', 'STHeiti', 'Arial Unicode MS', sans-serif" font-weight="400" text-anchor="start" opacity="1">原始记录要按预测时间点改造成特征和标签</text>
<rect x="95" y="245" width="365" height="410" rx="8" fill="#0f1722" stroke="#6ea8fe" stroke-width="3" opacity="1"/>
<text x="277" y="295" fill="#e9eef4" font-size="28" font-family="'Hiragino Sans GB', 'STHeiti', 'Arial Unicode MS', sans-serif" font-weight="700" text-anchor="middle" opacity="1">原始事件</text>
<text x="130" y="350" fill="#e9eef4" font-size="21" font-family="'SF Mono', 'Menlo', 'Consolas', monospace" font-weight="400" text-anchor="start" opacity="1">listed_at: 2026-03-01</text>
<text x="130" y="392" fill="#e9eef4" font-size="21" font-family="'SF Mono', 'Menlo', 'Consolas', monospace" font-weight="400" text-anchor="start" opacity="1">area_m2: 70</text>
<text x="130" y="434" fill="#e9eef4" font-size="21" font-family="'SF Mono', 'Menlo', 'Consolas', monospace" font-weight="400" text-anchor="start" opacity="1">rooms: 2</text>
<text x="130" y="476" fill="#e9eef4" font-size="21" font-family="'SF Mono', 'Menlo', 'Consolas', monospace" font-weight="400" text-anchor="start" opacity="1">built_year: 2016</text>
<text x="130" y="518" fill="#e9eef4" font-size="21" font-family="'SF Mono', 'Menlo', 'Consolas', monospace" font-weight="400" text-anchor="start" opacity="1">subway_meters: 950</text>
<text x="130" y="560" fill="#e9eef4" font-size="21" font-family="'SF Mono', 'Menlo', 'Consolas', monospace" font-weight="400" text-anchor="start" opacity="1">asking_price: 810000</text>
<text x="130" y="602" fill="#e06c75" font-size="21" font-family="'SF Mono', 'Menlo', 'Consolas', monospace" font-weight="400" text-anchor="start" opacity="1">sold_at: 2026-04-18</text>
<rect x="585" y="340" width="300" height="90" rx="8" fill="#132033" stroke="#5cc8a7" stroke-width="3" opacity="1"/>
<text x="735.0" y="382" fill="#e9eef4" font-size="26" font-family="'Hiragino Sans GB', 'STHeiti', 'Arial Unicode MS', sans-serif" font-weight="700" text-anchor="middle" opacity="1">特征加工</text>
<text x="735.0" y="415" fill="#9aa8b7" font-size="20" font-family="'Hiragino Sans GB', 'STHeiti', 'Arial Unicode MS', sans-serif" font-weight="400" text-anchor="middle" opacity="1">房龄 / 近地铁 / 单价</text>
<line x1="460" y1="450" x2="577" y2="390" stroke="#6ea8fe" stroke-width="4" opacity="1" marker-end="url(#arrow)"/>
<rect x="870" y="270" width="624" height="175" rx="8" fill="#0f1722" stroke="#5ec8d8" stroke-width="3" opacity="1"/>
<text x="910.0" y="322" fill="#e9eef4" font-size="20" font-family="'Hiragino Sans GB', 'STHeiti', 'Arial Unicode MS', sans-serif" font-weight="700" text-anchor="middle" opacity="1">面积</text>
<text x="994.0" y="322" fill="#e9eef4" font-size="20" font-family="'Hiragino Sans GB', 'STHeiti', 'Arial Unicode MS', sans-serif" font-weight="700" text-anchor="middle" opacity="1">房间</text>
<text x="1078.0" y="322" fill="#e9eef4" font-size="20" font-family="'Hiragino Sans GB', 'STHeiti', 'Arial Unicode MS', sans-serif" font-weight="700" text-anchor="middle" opacity="1">房龄</text>
<text x="1166.0" y="322" fill="#e9eef4" font-size="20" font-family="'Hiragino Sans GB', 'STHeiti', 'Arial Unicode MS', sans-serif" font-weight="700" text-anchor="middle" opacity="1">近地铁</text>
<text x="1269.0" y="322" fill="#e9eef4" font-size="20" font-family="'Hiragino Sans GB', 'STHeiti', 'Arial Unicode MS', sans-serif" font-weight="700" text-anchor="middle" opacity="1">单价</text>
<text x="1409.0" y="322" fill="#d7a64a" font-size="20" font-family="'Hiragino Sans GB', 'STHeiti', 'Arial Unicode MS', sans-serif" font-weight="700" text-anchor="middle" opacity="1">标签</text>
<line x1="870" y1="345" x2="1494" y2="345" stroke="#34475e" stroke-width="2" opacity="1"/>
<text x="910.0" y="395" fill="#e9eef4" font-size="18" font-family="'Hiragino Sans GB', 'STHeiti', 'Arial Unicode MS', sans-serif" font-weight="400" text-anchor="middle" opacity="1">70</text>
<text x="994.0" y="395" fill="#e9eef4" font-size="18" font-family="'Hiragino Sans GB', 'STHeiti', 'Arial Unicode MS', sans-serif" font-weight="400" text-anchor="middle" opacity="1">2</text>
<text x="1078.0" y="395" fill="#e9eef4" font-size="18" font-family="'Hiragino Sans GB', 'STHeiti', 'Arial Unicode MS', sans-serif" font-weight="400" text-anchor="middle" opacity="1">10</text>
<text x="1166.0" y="395" fill="#e9eef4" font-size="18" font-family="'Hiragino Sans GB', 'STHeiti', 'Arial Unicode MS', sans-serif" font-weight="400" text-anchor="middle" opacity="1">1</text>
<text x="1269.0" y="395" fill="#e9eef4" font-size="18" font-family="'Hiragino Sans GB', 'STHeiti', 'Arial Unicode MS', sans-serif" font-weight="400" text-anchor="middle" opacity="1">11571</text>
<text x="1409.0" y="395" fill="#d7a64a" font-size="18" font-family="'Hiragino Sans GB', 'STHeiti', 'Arial Unicode MS', sans-serif" font-weight="700" text-anchor="middle" opacity="1">30 天内未售出</text>
<line x1="885" y1="390" x2="862" y2="355" stroke="#5cc8a7" stroke-width="4" opacity="1" marker-end="url(#arrow)"/>
<polyline points="380.0,605.0 720.0,760.0 1115.0,455.0" fill="none" stroke="#e06c75" stroke-width="4" stroke-linecap="round" stroke-linejoin="round" opacity="0.9" stroke-dasharray="8 8" marker-end="url(#arrow)"/>
<text x="715" y="792" fill="#e06c75" font-size="25" font-family="'Hiragino Sans GB', 'STHeiti', 'Arial Unicode MS', sans-serif" font-weight="700" text-anchor="middle" opacity="1">成交时间只用于生成标签，不能进入特征列</text>
</svg>