<svg xmlns="http://www.w3.org/2000/svg" width="800" height="1120" viewBox="0 0 800 1120">
<defs>
  <linearGradient id="bg" x1="0" y1="0" x2="0.18" y2="1">
    <stop offset="0%" stop-color="#080914"/>
    <stop offset="42%" stop-color="#11161d"/>
    <stop offset="100%" stop-color="#08090e"/>
  </linearGradient>
  <linearGradient id="brass" x1="0" y1="0" x2="1" y2="1">
    <stop offset="0%" stop-color="#f6d08a"/>
    <stop offset="58%" stop-color="#d79a46"/>
    <stop offset="100%" stop-color="#7c5427"/>
  </linearGradient>
  <radialGradient id="horizon" cx="0.62" cy="0.58" r="0.58">
    <stop offset="0%" stop-color="#d79a46" stop-opacity="0.13"/>
    <stop offset="48%" stop-color="#334155" stop-opacity="0.06"/>
    <stop offset="100%" stop-color="#000000" stop-opacity="0"/>
  </radialGradient>
  <radialGradient id="bluehaze" cx="0.26" cy="0.78" r="0.55">
    <stop offset="0%" stop-color="#5da7ff" stop-opacity="0.11"/>
    <stop offset="58%" stop-color="#2dd4bf" stop-opacity="0.035"/>
    <stop offset="100%" stop-color="#000000" stop-opacity="0"/>
  </radialGradient>
  <pattern id="grid" width="40" height="40" patternUnits="userSpaceOnUse">
    <line x1="0" y1="0" x2="40" y2="0" stroke="#334155" stroke-width="0.45" opacity="0.18"/>
    <line x1="0" y1="0" x2="0" y2="40" stroke="#334155" stroke-width="0.45" opacity="0.18"/>
  </pattern>
  <filter id="blur22" x="-100%" y="-100%" width="300%" height="300%"><feGaussianBlur stdDeviation="22"/></filter>
  <filter id="soft" x="-80%" y="-80%" width="260%" height="260%"><feGaussianBlur stdDeviation="2.2" result="b"/><feMerge><feMergeNode in="b"/><feMergeNode in="SourceGraphic"/></feMerge></filter>
  <marker id="arrow" viewBox="0 0 10 10" refX="9" refY="5" markerWidth="5" markerHeight="5" orient="auto"><path d="M 0 0 L 10 5 L 0 10 z" fill="#d79a46" opacity="0.58"/></marker>
</defs>
<rect width="800" height="1120" fill="url(#bg)"/>
<rect width="800" height="1120" fill="url(#grid)"/>
<rect width="800" height="1120" fill="url(#horizon)"/>
<rect width="800" height="1120" fill="url(#bluehaze)"/>
<rect x="30" y="30" width="740" height="1060" fill="none" stroke="#2b3545" stroke-width="0.55" opacity="0.48" rx="2"/>
<g stroke="#d79a46" stroke-width="0.9" opacity="0.45">
  <path d="M 54 62 L 54 88 M 54 62 L 80 62"/>
  <path d="M 746 62 L 746 88 M 746 62 L 720 62"/>
  <path d="M 54 1058 L 54 1032 M 54 1058 L 80 1058"/>
  <path d="M 746 1058 L 746 1032 M 746 1058 L 720 1058"/>
</g>
<rect x="112" y="0" width="3" height="1120" fill="url(#brass)" opacity="0.95"/>
<text x="150" y="700" font-family="'Noto Serif CJK SC', 'Source Han Serif SC', 'Songti SC', serif" font-size="30" fill="#d79a46" opacity="0.045" transform="rotate(-12,400,700)">loss turns a mistake into a direction</text>
<g opacity="1"><line x1="180" y1="145.0" x2="180" y2="167.0" stroke="#f87171" stroke-width="0.9" opacity="0.30"/><circle cx="180" cy="145.0" r="3.2" fill="#5da7ff" opacity="0.48"/><circle cx="180" cy="167.0" r="3.2" fill="#d79a46" opacity="0.50"/><line x1="235" y1="171.6" x2="235" y2="141.6" stroke="#f87171" stroke-width="0.9" opacity="0.30"/><circle cx="235" cy="171.6" r="3.2" fill="#5da7ff" opacity="0.48"/><circle cx="235" cy="141.6" r="3.2" fill="#d79a46" opacity="0.50"/><line x1="295" y1="178.1" x2="295" y2="216.1" stroke="#f87171" stroke-width="0.9" opacity="0.30"/><circle cx="295" cy="178.1" r="3.2" fill="#5da7ff" opacity="0.48"/><circle cx="295" cy="216.1" r="3.2" fill="#d79a46" opacity="0.50"/><line x1="365" y1="159.5" x2="365" y2="137.5" stroke="#f87171" stroke-width="0.9" opacity="0.30"/><circle cx="365" cy="159.5" r="3.2" fill="#5da7ff" opacity="0.48"/><circle cx="365" cy="137.5" r="3.2" fill="#d79a46" opacity="0.50"/><line x1="435" y1="130.0" x2="435" y2="160.0" stroke="#f87171" stroke-width="0.9" opacity="0.30"/><circle cx="435" cy="130.0" r="3.2" fill="#5da7ff" opacity="0.48"/><circle cx="435" cy="160.0" r="3.2" fill="#d79a46" opacity="0.50"/><line x1="505" y1="111.8" x2="505" y2="73.8" stroke="#f87171" stroke-width="0.9" opacity="0.30"/><circle cx="505" cy="111.8" r="3.2" fill="#5da7ff" opacity="0.48"/><circle cx="505" cy="73.8" r="3.2" fill="#d79a46" opacity="0.50"/><line x1="580" y1="118.7" x2="580" y2="140.7" stroke="#f87171" stroke-width="0.9" opacity="0.30"/><circle cx="580" cy="118.7" r="3.2" fill="#5da7ff" opacity="0.48"/><circle cx="580" cy="140.7" r="3.2" fill="#d79a46" opacity="0.50"/></g><path d="M 160 830 C 290 710, 500 710, 640 830" fill="none" stroke="#d79a46" stroke-width="0.8" opacity="0.220"/><path d="M 178 823 C 290 713, 500 713, 622 823" fill="none" stroke="#d79a46" stroke-width="0.8" opacity="0.194"/><path d="M 196 816 C 290 716, 500 716, 604 816" fill="none" stroke="#d79a46" stroke-width="0.8" opacity="0.168"/><path d="M 214 809 C 290 719, 500 719, 586 809" fill="none" stroke="#d79a46" stroke-width="0.8" opacity="0.142"/><path d="M 232 802 C 290 722, 500 722, 568 802" fill="none" stroke="#d79a46" stroke-width="0.8" opacity="0.116"/><path d="M 250 795 C 290 725, 500 725, 550 795" fill="none" stroke="#d79a46" stroke-width="0.8" opacity="0.090"/><path d="M 268 788 C 290 728, 500 728, 532 788" fill="none" stroke="#d79a46" stroke-width="0.8" opacity="0.064"/><circle cx="402" cy="780" r="5" fill="#f6d08a" opacity="0.58" filter="url(#soft)"/><text x="430" y="782" font-family="'SF Mono', 'JetBrains Mono', 'Menlo', monospace" font-size="11" fill="#9fb2c8" opacity="0.52">minimum penalty</text>
<g id="title">
  <rect x="105" y="372" width="620" height="235" fill="#08090e" opacity="0.25" filter="url(#blur22)"/>
  <text x="148" y="428" font-family="'SF Mono', 'JetBrains Mono', 'Menlo', monospace" font-size="36" fill="#d79a46" letter-spacing="6">第 03 章</text>
  <text x="148" y="506" font-family="'Noto Serif CJK SC', 'Source Han Serif SC', 'Songti SC', serif" font-size="68" fill="#f8fafc" font-weight="800">定义目标</text>
  <text x="150" y="552" font-family="'Noto Sans CJK SC', 'Source Han Sans SC', 'PingFang SC', 'Microsoft YaHei', 'Inter', sans-serif" font-size="19" fill="#aebcd0" letter-spacing="1.2">参数、预测、损失函数</text>
  <line x1="150" y1="584" x2="340" y2="584" stroke="#d79a46" stroke-width="1.4" opacity="0.58"/>
</g>
<text x="150" y="1018" font-family="'SF Mono', 'JetBrains Mono', 'Menlo', monospace" font-size="13" fill="#9fb2c8" opacity="0.58" letter-spacing="1.5">模型 · 预测 · 误差 · 损失</text>
</svg>
