<svg xmlns="http://www.w3.org/2000/svg" width="800" height="1120" viewBox="0 0 800 1120">
<defs>
  <linearGradient id="bg" x1="0" y1="0" x2="0.18" y2="1">
    <stop offset="0%" stop-color="#080914"/>
    <stop offset="42%" stop-color="#11161d"/>
    <stop offset="100%" stop-color="#08090e"/>
  </linearGradient>
  <linearGradient id="brass" x1="0" y1="0" x2="1" y2="1">
    <stop offset="0%" stop-color="#f6d08a"/>
    <stop offset="58%" stop-color="#d79a46"/>
    <stop offset="100%" stop-color="#7c5427"/>
  </linearGradient>
  <radialGradient id="horizon" cx="0.62" cy="0.58" r="0.58">
    <stop offset="0%" stop-color="#d79a46" stop-opacity="0.13"/>
    <stop offset="48%" stop-color="#334155" stop-opacity="0.06"/>
    <stop offset="100%" stop-color="#000000" stop-opacity="0"/>
  </radialGradient>
  <radialGradient id="bluehaze" cx="0.26" cy="0.78" r="0.55">
    <stop offset="0%" stop-color="#5da7ff" stop-opacity="0.11"/>
    <stop offset="58%" stop-color="#2dd4bf" stop-opacity="0.035"/>
    <stop offset="100%" stop-color="#000000" stop-opacity="0"/>
  </radialGradient>
  <pattern id="grid" width="40" height="40" patternUnits="userSpaceOnUse">
    <line x1="0" y1="0" x2="40" y2="0" stroke="#334155" stroke-width="0.45" opacity="0.18"/>
    <line x1="0" y1="0" x2="0" y2="40" stroke="#334155" stroke-width="0.45" opacity="0.18"/>
  </pattern>
  <filter id="blur22" x="-100%" y="-100%" width="300%" height="300%"><feGaussianBlur stdDeviation="22"/></filter>
  <filter id="soft" x="-80%" y="-80%" width="260%" height="260%"><feGaussianBlur stdDeviation="2.2" result="b"/><feMerge><feMergeNode in="b"/><feMergeNode in="SourceGraphic"/></feMerge></filter>
  <marker id="arrow" viewBox="0 0 10 10" refX="9" refY="5" markerWidth="5" markerHeight="5" orient="auto"><path d="M 0 0 L 10 5 L 0 10 z" fill="#d79a46" opacity="0.58"/></marker>
</defs>
<rect width="800" height="1120" fill="url(#bg)"/>
<rect width="800" height="1120" fill="url(#grid)"/>
<rect width="800" height="1120" fill="url(#horizon)"/>
<rect width="800" height="1120" fill="url(#bluehaze)"/>
<rect x="30" y="30" width="740" height="1060" fill="none" stroke="#2b3545" stroke-width="0.55" opacity="0.48" rx="2"/>
<g stroke="#d79a46" stroke-width="0.9" opacity="0.45">
  <path d="M 54 62 L 54 88 M 54 62 L 80 62"/>
  <path d="M 746 62 L 746 88 M 746 62 L 720 62"/>
  <path d="M 54 1058 L 54 1032 M 54 1058 L 80 1058"/>
  <path d="M 746 1058 L 746 1032 M 746 1058 L 720 1058"/>
</g>
<rect x="112" y="0" width="3" height="1120" fill="url(#brass)" opacity="0.95"/>
<text x="150" y="700" font-family="'Noto Serif CJK SC', 'Source Han Serif SC', 'Songti SC', serif" font-size="30" fill="#d79a46" opacity="0.045" transform="rotate(-12,400,700)">optimization is a path through error</text>
<ellipse cx="410" cy="170" rx="70" ry="24" fill="none" stroke="#d79a46" stroke-width="0.7" opacity="0.240" transform="rotate(-18,410,170)"/><ellipse cx="410" cy="170" rx="102" ry="41" fill="none" stroke="#d79a46" stroke-width="0.7" opacity="0.216" transform="rotate(-18,410,170)"/><ellipse cx="410" cy="170" rx="134" ry="58" fill="none" stroke="#d79a46" stroke-width="0.7" opacity="0.192" transform="rotate(-18,410,170)"/><ellipse cx="410" cy="170" rx="166" ry="75" fill="none" stroke="#d79a46" stroke-width="0.7" opacity="0.168" transform="rotate(-18,410,170)"/><ellipse cx="410" cy="170" rx="198" ry="92" fill="none" stroke="#d79a46" stroke-width="0.7" opacity="0.144" transform="rotate(-18,410,170)"/><ellipse cx="410" cy="170" rx="230" ry="109" fill="none" stroke="#d79a46" stroke-width="0.7" opacity="0.120" transform="rotate(-18,410,170)"/><ellipse cx="410" cy="170" rx="262" ry="126" fill="none" stroke="#d79a46" stroke-width="0.7" opacity="0.096" transform="rotate(-18,410,170)"/><ellipse cx="410" cy="170" rx="294" ry="143" fill="none" stroke="#d79a46" stroke-width="0.7" opacity="0.072" transform="rotate(-18,410,170)"/><path d="M 615 92 C 560 108, 520 128, 485 145 C 450 164, 420 172, 392 184 C 360 198, 335 218, 312 246" fill="none" stroke="#5da7ff" stroke-width="1.2" opacity="0.42" marker-end="url(#arrow)"/><circle cx="615" cy="92" r="3" fill="#5da7ff" opacity="0.48"/><circle cx="540" cy="119" r="3" fill="#5da7ff" opacity="0.48"/><circle cx="478" cy="149" r="3" fill="#5da7ff" opacity="0.48"/><circle cx="420" cy="173" r="3" fill="#5da7ff" opacity="0.48"/><circle cx="360" cy="199" r="3" fill="#5da7ff" opacity="0.48"/><circle cx="312" cy="246" r="3" fill="#5da7ff" opacity="0.48"/><path d="M 190 760 C 275 700, 385 712, 520 660" fill="none" stroke="#f87171" stroke-width="1" opacity="0.22"/><path d="M 190 788 C 275 708, 385 716, 520 677" fill="none" stroke="#5da7ff" stroke-width="1" opacity="0.22"/><path d="M 190 816 C 275 716, 385 720, 520 694" fill="none" stroke="#d79a46" stroke-width="1" opacity="0.22"/><text x="170" y="836" font-family="'SF Mono', 'JetBrains Mono', 'Menlo', monospace" font-size="11" fill="#9fb2c8" opacity="0.5">step size leaves a trace</text>
<g id="title">
  <rect x="105" y="372" width="620" height="235" fill="#08090e" opacity="0.25" filter="url(#blur22)"/>
  <text x="148" y="428" font-family="'SF Mono', 'JetBrains Mono', 'Menlo', monospace" font-size="36" fill="#d79a46" letter-spacing="6">第 04 章</text>
  <text x="148" y="506" font-family="'Noto Serif CJK SC', 'Source Han Serif SC', 'Songti SC', serif" font-size="62" fill="#f8fafc" font-weight="800">沿着错误往下走</text>
  <text x="150" y="552" font-family="'Noto Sans CJK SC', 'Source Han Sans SC', 'PingFang SC', 'Microsoft YaHei', 'Inter', sans-serif" font-size="19" fill="#aebcd0" letter-spacing="1.2">梯度、学习率、优化路径</text>
  <line x1="150" y1="584" x2="340" y2="584" stroke="#d79a46" stroke-width="1.4" opacity="0.58"/>
</g>
<text x="150" y="1018" font-family="'SF Mono', 'JetBrains Mono', 'Menlo', monospace" font-size="13" fill="#9fb2c8" opacity="0.58" letter-spacing="1.5">损失地形 · 学习率 · 下降路径</text>
</svg>