<svg xmlns="http://www.w3.org/2000/svg" width="800" height="1120" viewBox="0 0 800 1120">
<defs>
  <linearGradient id="bg" x1="0" y1="0" x2="0.18" y2="1">
    <stop offset="0%" stop-color="#080914"/>
    <stop offset="42%" stop-color="#11161d"/>
    <stop offset="100%" stop-color="#08090e"/>
  </linearGradient>
  <linearGradient id="brass" x1="0" y1="0" x2="1" y2="1">
    <stop offset="0%" stop-color="#f6d08a"/>
    <stop offset="58%" stop-color="#d79a46"/>
    <stop offset="100%" stop-color="#7c5427"/>
  </linearGradient>
  <radialGradient id="horizon" cx="0.62" cy="0.58" r="0.58">
    <stop offset="0%" stop-color="#d79a46" stop-opacity="0.13"/>
    <stop offset="48%" stop-color="#334155" stop-opacity="0.06"/>
    <stop offset="100%" stop-color="#000000" stop-opacity="0"/>
  </radialGradient>
  <radialGradient id="bluehaze" cx="0.26" cy="0.78" r="0.55">
    <stop offset="0%" stop-color="#5da7ff" stop-opacity="0.11"/>
    <stop offset="58%" stop-color="#2dd4bf" stop-opacity="0.035"/>
    <stop offset="100%" stop-color="#000000" stop-opacity="0"/>
  </radialGradient>
  <pattern id="grid" width="40" height="40" patternUnits="userSpaceOnUse">
    <line x1="0" y1="0" x2="40" y2="0" stroke="#334155" stroke-width="0.45" opacity="0.18"/>
    <line x1="0" y1="0" x2="0" y2="40" stroke="#334155" stroke-width="0.45" opacity="0.18"/>
  </pattern>
  <filter id="blur22" x="-100%" y="-100%" width="300%" height="300%"><feGaussianBlur stdDeviation="22"/></filter>
  <filter id="soft" x="-80%" y="-80%" width="260%" height="260%"><feGaussianBlur stdDeviation="2.2" result="b"/><feMerge><feMergeNode in="b"/><feMergeNode in="SourceGraphic"/></feMerge></filter>
  <marker id="arrow" viewBox="0 0 10 10" refX="9" refY="5" markerWidth="5" markerHeight="5" orient="auto"><path d="M 0 0 L 10 5 L 0 10 z" fill="#d79a46" opacity="0.58"/></marker>
</defs>
<rect width="800" height="1120" fill="url(#bg)"/>
<rect width="800" height="1120" fill="url(#grid)"/>
<rect width="800" height="1120" fill="url(#horizon)"/>
<rect width="800" height="1120" fill="url(#bluehaze)"/>
<rect x="30" y="30" width="740" height="1060" fill="none" stroke="#2b3545" stroke-width="0.55" opacity="0.48" rx="2"/>
<g stroke="#d79a46" stroke-width="0.9" opacity="0.45">
  <path d="M 54 62 L 54 88 M 54 62 L 80 62"/>
  <path d="M 746 62 L 746 88 M 746 62 L 720 62"/>
  <path d="M 54 1058 L 54 1032 M 54 1058 L 80 1058"/>
  <path d="M 746 1058 L 746 1032 M 746 1058 L 720 1058"/>
</g>
<rect x="112" y="0" width="3" height="1120" fill="url(#brass)" opacity="0.95"/>
<text x="150" y="700" font-family="'Noto Serif CJK SC', 'Source Han Serif SC', 'Songti SC', serif" font-size="30" fill="#d79a46" opacity="0.045" transform="rotate(-12,400,700)">a line can be a disciplined assumption</text>
<circle cx="412.5" cy="131.7" r="1.8" fill="#d79a46" opacity="0.32"/><circle cx="525.5" cy="225.6" r="2.2" fill="#5da7ff" opacity="0.32"/><circle cx="219.5" cy="171.2" r="2.7" fill="#5da7ff" opacity="0.32"/><circle cx="532.1" cy="141.3" r="1.8" fill="#5da7ff" opacity="0.32"/><circle cx="394.5" cy="234.1" r="2.2" fill="#d79a46" opacity="0.32"/><circle cx="366.5" cy="146.5" r="2.7" fill="#5da7ff" opacity="0.32"/><circle cx="552.5" cy="194.9" r="1.8" fill="#5da7ff" opacity="0.32"/><circle cx="247.0" cy="209.3" r="2.2" fill="#5da7ff" opacity="0.32"/><circle cx="458.9" cy="131.2" r="2.7" fill="#d79a46" opacity="0.32"/><circle cx="488.4" cy="224.8" r="1.8" fill="#5da7ff" opacity="0.32"/><circle cx="244.8" cy="146.4" r="2.2" fill="#5da7ff" opacity="0.32"/><circle cx="539.8" cy="166.6" r="2.7" fill="#5da7ff" opacity="0.32"/><circle cx="328.4" cy="230.9" r="1.8" fill="#d79a46" opacity="0.32"/><circle cx="392.9" cy="137.1" r="2.2" fill="#5da7ff" opacity="0.32"/><circle cx="534.3" cy="200.9" r="2.7" fill="#5da7ff" opacity="0.32"/><circle cx="244.0" cy="188.1" r="1.8" fill="#5da7ff" opacity="0.32"/><circle cx="494.7" cy="150.3" r="2.2" fill="#d79a46" opacity="0.32"/><circle cx="430.3" cy="231.3" r="2.7" fill="#5da7ff" opacity="0.32"/><circle cx="274.6" cy="118.1" r="1.8" fill="#5da7ff" opacity="0.32"/><circle cx="532.6" cy="174.0" r="2.2" fill="#5da7ff" opacity="0.32"/><circle cx="290.4" cy="220.0" r="2.7" fill="#d79a46" opacity="0.32"/><circle cx="448.9" cy="103.3" r="1.8" fill="#5da7ff" opacity="0.32"/><circle cx="507.0" cy="213.7" r="2.2" fill="#5da7ff" opacity="0.32"/><circle cx="248.6" cy="155.5" r="2.7" fill="#5da7ff" opacity="0.32"/><circle cx="502.1" cy="154.7" r="1.8" fill="#d79a46" opacity="0.32"/><circle cx="369.6" cy="233.3" r="2.2" fill="#5da7ff" opacity="0.32"/><path d="M 170 255 C 280 196, 420 165, 660 104" fill="none" stroke="#f6d08a" stroke-width="1.4" opacity="0.42"/><g transform="translate(230 762)" opacity="0.34" stroke="#d79a46" fill="none"><line x1="0" y1="70" x2="270" y2="70"/><line x1="70" y1="132" x2="70" y2="0"/><path d="M 70 70 L 185 24" marker-end="url(#arrow)"/><path d="M 70 70 L 128 112" stroke="#5da7ff" marker-end="url(#arrow)"/><text x="196" y="28" font-family="'SF Mono', 'JetBrains Mono', 'Menlo', monospace" font-size="12" fill="#d79a46" stroke="none">w</text><text x="132" y="130" font-family="'SF Mono', 'JetBrains Mono', 'Menlo', monospace" font-size="11" fill="#9fb2c8" stroke="none">bias shifts the line</text></g>
<g id="title">
  <rect x="105" y="372" width="620" height="235" fill="#08090e" opacity="0.25" filter="url(#blur22)"/>
  <text x="148" y="428" font-family="'SF Mono', 'JetBrains Mono', 'Menlo', monospace" font-size="36" fill="#d79a46" letter-spacing="6">第 07 章</text>
  <text x="148" y="506" font-family="'Noto Serif CJK SC', 'Source Han Serif SC', 'Songti SC', serif" font-size="62" fill="#f8fafc" font-weight="800">一条线的判断力</text>
  <text x="150" y="552" font-family="'Noto Sans CJK SC', 'Source Han Sans SC', 'PingFang SC', 'Microsoft YaHei', 'Inter', sans-serif" font-size="19" fill="#aebcd0" letter-spacing="1.2">线性模型、权重、可解释性</text>
  <line x1="150" y1="584" x2="340" y2="584" stroke="#d79a46" stroke-width="1.4" opacity="0.58"/>
</g>
<text x="150" y="1018" font-family="'SF Mono', 'JetBrains Mono', 'Menlo', monospace" font-size="13" fill="#9fb2c8" opacity="0.58" letter-spacing="1.5">特征 · 权重 · 边界 · 解释</text>
</svg>