<svg xmlns="http://www.w3.org/2000/svg" width="800" height="1120" viewBox="0 0 800 1120">
<defs>
  <linearGradient id="bg" x1="0" y1="0" x2="0.18" y2="1">
    <stop offset="0%" stop-color="#080914"/>
    <stop offset="42%" stop-color="#11161d"/>
    <stop offset="100%" stop-color="#08090e"/>
  </linearGradient>
  <linearGradient id="brass" x1="0" y1="0" x2="1" y2="1">
    <stop offset="0%" stop-color="#f6d08a"/>
    <stop offset="58%" stop-color="#d79a46"/>
    <stop offset="100%" stop-color="#7c5427"/>
  </linearGradient>
  <radialGradient id="horizon" cx="0.62" cy="0.58" r="0.58">
    <stop offset="0%" stop-color="#d79a46" stop-opacity="0.13"/>
    <stop offset="48%" stop-color="#334155" stop-opacity="0.06"/>
    <stop offset="100%" stop-color="#000000" stop-opacity="0"/>
  </radialGradient>
  <radialGradient id="bluehaze" cx="0.26" cy="0.78" r="0.55">
    <stop offset="0%" stop-color="#5da7ff" stop-opacity="0.11"/>
    <stop offset="58%" stop-color="#2dd4bf" stop-opacity="0.035"/>
    <stop offset="100%" stop-color="#000000" stop-opacity="0"/>
  </radialGradient>
  <pattern id="grid" width="40" height="40" patternUnits="userSpaceOnUse">
    <line x1="0" y1="0" x2="40" y2="0" stroke="#334155" stroke-width="0.45" opacity="0.18"/>
    <line x1="0" y1="0" x2="0" y2="40" stroke="#334155" stroke-width="0.45" opacity="0.18"/>
  </pattern>
  <filter id="blur22" x="-100%" y="-100%" width="300%" height="300%"><feGaussianBlur stdDeviation="22"/></filter>
  <filter id="soft" x="-80%" y="-80%" width="260%" height="260%"><feGaussianBlur stdDeviation="2.2" result="b"/><feMerge><feMergeNode in="b"/><feMergeNode in="SourceGraphic"/></feMerge></filter>
  <marker id="arrow" viewBox="0 0 10 10" refX="9" refY="5" markerWidth="5" markerHeight="5" orient="auto"><path d="M 0 0 L 10 5 L 0 10 z" fill="#d79a46" opacity="0.58"/></marker>
</defs>
<rect width="800" height="1120" fill="url(#bg)"/>
<rect width="800" height="1120" fill="url(#grid)"/>
<rect width="800" height="1120" fill="url(#horizon)"/>
<rect width="800" height="1120" fill="url(#bluehaze)"/>
<rect x="30" y="30" width="740" height="1060" fill="none" stroke="#2b3545" stroke-width="0.55" opacity="0.48" rx="2"/>
<g stroke="#d79a46" stroke-width="0.9" opacity="0.45">
  <path d="M 54 62 L 54 88 M 54 62 L 80 62"/>
  <path d="M 746 62 L 746 88 M 746 62 L 720 62"/>
  <path d="M 54 1058 L 54 1032 M 54 1058 L 80 1058"/>
  <path d="M 746 1058 L 746 1032 M 746 1058 L 720 1058"/>
</g>
<rect x="112" y="0" width="3" height="1120" fill="url(#brass)" opacity="0.95"/>
<text x="150" y="700" font-family="'Noto Serif CJK SC', 'Source Han Serif SC', 'Songti SC', serif" font-size="30" fill="#d79a46" opacity="0.045" transform="rotate(-12,400,700)">representation is learned shape</text>
<g><line x1="190" y1="95.0" x2="300" y2="129.0" stroke="#5da7ff" stroke-width="0.5" opacity="0.12"/><line x1="190" y1="95.0" x2="300" y2="231.0" stroke="#5da7ff" stroke-width="0.5" opacity="0.12"/><line x1="190" y1="151.7" x2="300" y2="163.0" stroke="#5da7ff" stroke-width="0.5" opacity="0.12"/><line x1="190" y1="151.7" x2="300" y2="265.0" stroke="#5da7ff" stroke-width="0.5" opacity="0.12"/><line x1="190" y1="208.3" x2="300" y2="163.0" stroke="#5da7ff" stroke-width="0.5" opacity="0.12"/><line x1="190" y1="208.3" x2="300" y2="265.0" stroke="#5da7ff" stroke-width="0.5" opacity="0.12"/><line x1="190" y1="265.0" x2="300" y2="163.0" stroke="#5da7ff" stroke-width="0.5" opacity="0.12"/><line x1="190" y1="265.0" x2="300" y2="265.0" stroke="#5da7ff" stroke-width="0.5" opacity="0.12"/><line x1="300" y1="95.0" x2="410" y2="163.0" stroke="#5da7ff" stroke-width="0.5" opacity="0.12"/><line x1="300" y1="95.0" x2="410" y2="265.0" stroke="#5da7ff" stroke-width="0.5" opacity="0.12"/><line x1="300" y1="129.0" x2="410" y2="129.0" stroke="#5da7ff" stroke-width="0.5" opacity="0.12"/><line x1="300" y1="129.0" x2="410" y2="231.0" stroke="#5da7ff" stroke-width="0.5" opacity="0.12"/><line x1="300" y1="163.0" x2="410" y2="95.0" stroke="#5da7ff" stroke-width="0.5" opacity="0.12"/><line x1="300" y1="163.0" x2="410" y2="197.0" stroke="#5da7ff" stroke-width="0.5" opacity="0.12"/><line x1="300" y1="197.0" x2="410" y2="163.0" stroke="#5da7ff" stroke-width="0.5" opacity="0.12"/><line x1="300" y1="197.0" x2="410" y2="265.0" stroke="#5da7ff" stroke-width="0.5" opacity="0.12"/><line x1="300" y1="231.0" x2="410" y2="129.0" stroke="#5da7ff" stroke-width="0.5" opacity="0.12"/><line x1="300" y1="231.0" x2="410" y2="231.0" stroke="#5da7ff" stroke-width="0.5" opacity="0.12"/><line x1="300" y1="265.0" x2="410" y2="95.0" stroke="#5da7ff" stroke-width="0.5" opacity="0.12"/><line x1="300" y1="265.0" x2="410" y2="197.0" stroke="#5da7ff" stroke-width="0.5" opacity="0.12"/><line x1="410" y1="95.0" x2="520" y2="95.0" stroke="#5da7ff" stroke-width="0.5" opacity="0.12"/><line x1="410" y1="95.0" x2="520" y2="137.5" stroke="#5da7ff" stroke-width="0.5" opacity="0.12"/><line x1="410" y1="129.0" x2="520" y2="265.0" stroke="#5da7ff" stroke-width="0.5" opacity="0.12"/><line x1="410" y1="163.0" x2="520" y2="180.0" stroke="#5da7ff" stroke-width="0.5" opacity="0.12"/><line x1="410" y1="163.0" x2="520" y2="222.5" stroke="#5da7ff" stroke-width="0.5" opacity="0.12"/><line x1="410" y1="197.0" x2="520" y2="95.0" stroke="#5da7ff" stroke-width="0.5" opacity="0.12"/><line x1="410" y1="197.0" x2="520" y2="137.5" stroke="#5da7ff" stroke-width="0.5" opacity="0.12"/><line x1="410" y1="231.0" x2="520" y2="265.0" stroke="#5da7ff" stroke-width="0.5" opacity="0.12"/><line x1="410" y1="265.0" x2="520" y2="180.0" stroke="#5da7ff" stroke-width="0.5" opacity="0.12"/><line x1="410" y1="265.0" x2="520" y2="222.5" stroke="#5da7ff" stroke-width="0.5" opacity="0.12"/><line x1="520" y1="95.0" x2="620" y2="180.0" stroke="#5da7ff" stroke-width="0.5" opacity="0.12"/><line x1="520" y1="137.5" x2="620" y2="180.0" stroke="#5da7ff" stroke-width="0.5" opacity="0.12"/><line x1="520" y1="180.0" x2="620" y2="95.0" stroke="#5da7ff" stroke-width="0.5" opacity="0.12"/><line x1="520" y1="222.5" x2="620" y2="95.0" stroke="#5da7ff" stroke-width="0.5" opacity="0.12"/><line x1="520" y1="265.0" x2="620" y2="265.0" stroke="#5da7ff" stroke-width="0.5" opacity="0.12"/><circle cx="190" cy="95.0" r="2.8" fill="#5da7ff" opacity="0.34"/><circle cx="190" cy="151.7" r="2.8" fill="#5da7ff" opacity="0.34"/><circle cx="190" cy="208.3" r="2.8" fill="#5da7ff" opacity="0.34"/><circle cx="190" cy="265.0" r="2.8" fill="#5da7ff" opacity="0.34"/><circle cx="300" cy="95.0" r="2.8" fill="#5da7ff" opacity="0.34"/><circle cx="300" cy="129.0" r="2.8" fill="#5da7ff" opacity="0.34"/><circle cx="300" cy="163.0" r="2.8" fill="#5da7ff" opacity="0.34"/><circle cx="300" cy="197.0" r="2.8" fill="#5da7ff" opacity="0.34"/><circle cx="300" cy="231.0" r="2.8" fill="#5da7ff" opacity="0.34"/><circle cx="300" cy="265.0" r="2.8" fill="#5da7ff" opacity="0.34"/><circle cx="410" cy="95.0" r="2.8" fill="#5da7ff" opacity="0.34"/><circle cx="410" cy="129.0" r="2.8" fill="#5da7ff" opacity="0.34"/><circle cx="410" cy="163.0" r="2.8" fill="#5da7ff" opacity="0.34"/><circle cx="410" cy="197.0" r="2.8" fill="#5da7ff" opacity="0.34"/><circle cx="410" cy="231.0" r="2.8" fill="#5da7ff" opacity="0.34"/><circle cx="410" cy="265.0" r="2.8" fill="#5da7ff" opacity="0.34"/><circle cx="520" cy="95.0" r="2.8" fill="#5da7ff" opacity="0.34"/><circle cx="520" cy="137.5" r="2.8" fill="#5da7ff" opacity="0.34"/><circle cx="520" cy="180.0" r="2.8" fill="#5da7ff" opacity="0.34"/><circle cx="520" cy="222.5" r="2.8" fill="#5da7ff" opacity="0.34"/><circle cx="520" cy="265.0" r="2.8" fill="#5da7ff" opacity="0.34"/><circle cx="620" cy="95.0" r="2.8" fill="#d79a46" opacity="0.46"/><circle cx="620" cy="180.0" r="2.8" fill="#d79a46" opacity="0.46"/><circle cx="620" cy="265.0" r="2.8" fill="#d79a46" opacity="0.46"/></g><text x="176" y="82" font-family="'SF Mono', 'JetBrains Mono', 'Menlo', monospace" font-size="11" fill="#9fb2c8" opacity="0.5">representation grows between layers</text><circle cx="250" cy="770" r="58" fill="#5da7ff" opacity="0.055"/><circle cx="265.5" cy="776.0" r="1.8" fill="#d79a46" opacity="0.24"/><circle cx="238.5" cy="782.4" r="2.2" fill="#5da7ff" opacity="0.24"/><circle cx="260.1" cy="743.9" r="2.7" fill="#5da7ff" opacity="0.24"/><circle cx="262.4" cy="775.1" r="1.8" fill="#5da7ff" opacity="0.24"/><circle cx="217.2" cy="769.8" r="2.2" fill="#d79a46" opacity="0.24"/><circle cx="271.6" cy="763.7" r="2.7" fill="#5da7ff" opacity="0.24"/><circle cx="242.4" cy="783.6" r="1.8" fill="#5da7ff" opacity="0.24"/><circle cx="241.5" cy="747.5" r="2.2" fill="#5da7ff" opacity="0.24"/><circle cx="292.7" cy="774.6" r="2.7" fill="#d79a46" opacity="0.24"/><circle cx="231.4" cy="779.9" r="1.8" fill="#5da7ff" opacity="0.24"/><circle cx="400" cy="800" r="52" fill="#2dd4bf" opacity="0.055"/><circle cx="415.7" cy="812.2" r="1.8" fill="#d79a46" opacity="0.24"/><circle cx="383.7" cy="792.0" r="2.2" fill="#5da7ff" opacity="0.24"/><circle cx="428.7" cy="785.2" r="2.7" fill="#5da7ff" opacity="0.24"/><circle cx="387.6" cy="812.7" r="1.8" fill="#5da7ff" opacity="0.24"/><circle cx="382.0" cy="790.2" r="2.2" fill="#d79a46" opacity="0.24"/><circle cx="427.9" cy="811.0" r="2.7" fill="#5da7ff" opacity="0.24"/><circle cx="385.0" cy="799.4" r="1.8" fill="#5da7ff" opacity="0.24"/><circle cx="421.9" cy="779.3" r="2.2" fill="#5da7ff" opacity="0.24"/><circle cx="406.8" cy="812.2" r="2.7" fill="#d79a46" opacity="0.24"/><circle cx="376.2" cy="797.4" r="1.8" fill="#5da7ff" opacity="0.24"/><circle cx="555" cy="750" r="62" fill="#d79a46" opacity="0.055"/><circle cx="552.9" cy="760.8" r="1.8" fill="#d79a46" opacity="0.24"/><circle cx="546.4" cy="724.7" r="2.2" fill="#5da7ff" opacity="0.24"/><circle cx="583.3" cy="761.9" r="2.7" fill="#5da7ff" opacity="0.24"/><circle cx="522.6" cy="759.3" r="1.8" fill="#5da7ff" opacity="0.24"/><circle cx="572.0" cy="735.5" r="2.2" fill="#d79a46" opacity="0.24"/><circle cx="562.9" cy="758.3" r="2.7" fill="#5da7ff" opacity="0.24"/><circle cx="541.2" cy="732.9" r="1.8" fill="#5da7ff" opacity="0.24"/><circle cx="594.6" cy="749.3" r="2.2" fill="#5da7ff" opacity="0.24"/><circle cx="535.6" cy="765.9" r="2.7" fill="#d79a46" opacity="0.24"/><circle cx="547.9" cy="732.8" r="1.8" fill="#5da7ff" opacity="0.24"/>
<g id="title">
  <rect x="105" y="372" width="620" height="235" fill="#08090e" opacity="0.25" filter="url(#blur22)"/>
  <text x="148" y="428" font-family="'SF Mono', 'JetBrains Mono', 'Menlo', monospace" font-size="36" fill="#d79a46" letter-spacing="6">第 09 章</text>
  <text x="148" y="506" font-family="'Noto Serif CJK SC', 'Source Han Serif SC', 'Songti SC', serif" font-size="62" fill="#f8fafc" font-weight="800">让表示自己长出来</text>
  <text x="150" y="552" font-family="'Noto Sans CJK SC', 'Source Han Sans SC', 'PingFang SC', 'Microsoft YaHei', 'Inter', sans-serif" font-size="19" fill="#aebcd0" letter-spacing="1.2">神经网络、激活、嵌入</text>
  <line x1="150" y1="584" x2="340" y2="584" stroke="#d79a46" stroke-width="1.4" opacity="0.58"/>
</g>
<text x="150" y="1018" font-family="'SF Mono', 'JetBrains Mono', 'Menlo', monospace" font-size="13" fill="#9fb2c8" opacity="0.58" letter-spacing="1.5">层 · 激活 · 表示 · embedding</text>
</svg>