<svg xmlns="http://www.w3.org/2000/svg" width="1600" height="900" viewBox="0 0 1600 900">
<defs>
<marker id="arrow" viewBox="0 0 10 10" refX="9" refY="5" markerWidth="8" markerHeight="8" orient="auto-start-reverse">
<path d="M 0 0 L 10 5 L 0 10 z" fill="#9aa8b7"/>
</marker>
</defs>
<rect width="1600" height="900" fill="#101821"/>
<line x1="80" y1="0" x2="80" y2="900" stroke="#263545" stroke-width="1" opacity="0.2"/>
<line x1="160" y1="0" x2="160" y2="900" stroke="#263545" stroke-width="1" opacity="0.2"/>
<line x1="240" y1="0" x2="240" y2="900" stroke="#263545" stroke-width="1" opacity="0.2"/>
<line x1="320" y1="0" x2="320" y2="900" stroke="#263545" stroke-width="1" opacity="0.2"/>
<line x1="400" y1="0" x2="400" y2="900" stroke="#263545" stroke-width="1" opacity="0.2"/>
<line x1="480" y1="0" x2="480" y2="900" stroke="#263545" stroke-width="1" opacity="0.2"/>
<line x1="560" y1="0" x2="560" y2="900" stroke="#263545" stroke-width="1" opacity="0.2"/>
<line x1="640" y1="0" x2="640" y2="900" stroke="#263545" stroke-width="1" opacity="0.2"/>
<line x1="720" y1="0" x2="720" y2="900" stroke="#263545" stroke-width="1" opacity="0.2"/>
<line x1="800" y1="0" x2="800" y2="900" stroke="#263545" stroke-width="1" opacity="0.2"/>
<line x1="880" y1="0" x2="880" y2="900" stroke="#263545" stroke-width="1" opacity="0.2"/>
<line x1="960" y1="0" x2="960" y2="900" stroke="#263545" stroke-width="1" opacity="0.2"/>
<line x1="1040" y1="0" x2="1040" y2="900" stroke="#263545" stroke-width="1" opacity="0.2"/>
<line x1="1120" y1="0" x2="1120" y2="900" stroke="#263545" stroke-width="1" opacity="0.2"/>
<line x1="1200" y1="0" x2="1200" y2="900" stroke="#263545" stroke-width="1" opacity="0.2"/>
<line x1="1280" y1="0" x2="1280" y2="900" stroke="#263545" stroke-width="1" opacity="0.2"/>
<line x1="1360" y1="0" x2="1360" y2="900" stroke="#263545" stroke-width="1" opacity="0.2"/>
<line x1="1440" y1="0" x2="1440" y2="900" stroke="#263545" stroke-width="1" opacity="0.2"/>
<line x1="1520" y1="0" x2="1520" y2="900" stroke="#263545" stroke-width="1" opacity="0.2"/>
<line x1="0" y1="60" x2="1600" y2="60" stroke="#263545" stroke-width="1" opacity="0.16"/>
<line x1="0" y1="120" x2="1600" y2="120" stroke="#263545" stroke-width="1" opacity="0.16"/>
<line x1="0" y1="180" x2="1600" y2="180" stroke="#263545" stroke-width="1" opacity="0.16"/>
<line x1="0" y1="240" x2="1600" y2="240" stroke="#263545" stroke-width="1" opacity="0.16"/>
<line x1="0" y1="300" x2="1600" y2="300" stroke="#263545" stroke-width="1" opacity="0.16"/>
<line x1="0" y1="360" x2="1600" y2="360" stroke="#263545" stroke-width="1" opacity="0.16"/>
<line x1="0" y1="420" x2="1600" y2="420" stroke="#263545" stroke-width="1" opacity="0.16"/>
<line x1="0" y1="480" x2="1600" y2="480" stroke="#263545" stroke-width="1" opacity="0.16"/>
<line x1="0" y1="540" x2="1600" y2="540" stroke="#263545" stroke-width="1" opacity="0.16"/>
<line x1="0" y1="600" x2="1600" y2="600" stroke="#263545" stroke-width="1" opacity="0.16"/>
<line x1="0" y1="660" x2="1600" y2="660" stroke="#263545" stroke-width="1" opacity="0.16"/>
<line x1="0" y1="720" x2="1600" y2="720" stroke="#263545" stroke-width="1" opacity="0.16"/>
<line x1="0" y1="780" x2="1600" y2="780" stroke="#263545" stroke-width="1" opacity="0.16"/>
<line x1="0" y1="840" x2="1600" y2="840" stroke="#263545" stroke-width="1" opacity="0.16"/>
<rect x="40" y="40" width="1520" height="820" rx="0" fill="none" stroke="#2e4054" stroke-width="2" opacity="0.75"/>
<text x="90" y="105" fill="#e9eef4" font-size="40" font-family="'Hiragino Sans GB', 'STHeiti', 'Arial Unicode MS', sans-serif" font-weight="700" text-anchor="start" opacity="1">规则程序与学习程序的差别</text>
<text x="90" y="150" fill="#9aa8b7" font-size="24" font-family="'Hiragino Sans GB', 'STHeiti', 'Arial Unicode MS', sans-serif" font-weight="400" text-anchor="start" opacity="1">测试用例检查规则；训练样本塑造模型</text>
<line x1="800" y1="210" x2="800" y2="710" stroke="#34475e" stroke-width="3" opacity="0.8" stroke-dasharray="10 10"/>
<text x="395" y="230" fill="#e9eef4" font-size="34" font-family="'Hiragino Sans GB', 'STHeiti', 'Arial Unicode MS', sans-serif" font-weight="700" text-anchor="middle" opacity="1">规则程序</text>
<text x="1205" y="230" fill="#e9eef4" font-size="34" font-family="'Hiragino Sans GB', 'STHeiti', 'Arial Unicode MS', sans-serif" font-weight="700" text-anchor="middle" opacity="1">学习程序</text>
<rect x="210" y="300" width="370" height="96" rx="8" fill="#132033" stroke="#9aa8b7" stroke-width="3" opacity="1"/>
<text x="395.0" y="346" fill="#e9eef4" font-size="28" font-family="'Hiragino Sans GB', 'STHeiti', 'Arial Unicode MS', sans-serif" font-weight="700" text-anchor="middle" opacity="1">程序员写规则</text>
<text x="395.0" y="382" fill="#9aa8b7" font-size="21" font-family="'Hiragino Sans GB', 'STHeiti', 'Arial Unicode MS', sans-serif" font-weight="400" text-anchor="middle" opacity="1">if / else / 配置</text>
<rect x="210" y="510" width="370" height="96" rx="8" fill="#132033" stroke="#6ea8fe" stroke-width="3" opacity="1"/>
<text x="395.0" y="556" fill="#e9eef4" font-size="28" font-family="'Hiragino Sans GB', 'STHeiti', 'Arial Unicode MS', sans-serif" font-weight="700" text-anchor="middle" opacity="1">输入样本</text>
<text x="395.0" y="592" fill="#9aa8b7" font-size="21" font-family="'Hiragino Sans GB', 'STHeiti', 'Arial Unicode MS', sans-serif" font-weight="400" text-anchor="middle" opacity="1">被规则处理</text>
<rect x="290" y="690" width="210" height="82" rx="8" fill="#132033" stroke="#5ec8d8" stroke-width="3" opacity="1"/>
<text x="395.0" y="736" fill="#e9eef4" font-size="28" font-family="'Hiragino Sans GB', 'STHeiti', 'Arial Unicode MS', sans-serif" font-weight="700" text-anchor="middle" opacity="1">输出判断</text>
<polyline points="395.0,396.0 625.0,396.0 625.0,731.0 508.0,731.0" fill="none" stroke="#9aa8b7" stroke-width="4" stroke-linecap="round" stroke-linejoin="round" opacity="1" marker-end="url(#arrow)"/>
<polyline points="395.0,606.0 395.0,642.0 395.0,682.0" fill="none" stroke="#6ea8fe" stroke-width="4" stroke-linecap="round" stroke-linejoin="round" opacity="1" marker-end="url(#arrow)"/>
<rect x="930" y="275" width="330" height="82" rx="8" fill="#132033" stroke="#6ea8fe" stroke-width="3" opacity="1"/>
<text x="1095.0" y="321" fill="#e9eef4" font-size="28" font-family="'Hiragino Sans GB', 'STHeiti', 'Arial Unicode MS', sans-serif" font-weight="700" text-anchor="middle" opacity="1">带标签样本</text>
<text x="1095.0" y="357" fill="#9aa8b7" font-size="21" font-family="'Hiragino Sans GB', 'STHeiti', 'Arial Unicode MS', sans-serif" font-weight="400" text-anchor="middle" opacity="1">输入 + 答案</text>
<rect x="930" y="420" width="330" height="82" rx="8" fill="#132033" stroke="#5cc8a7" stroke-width="3" opacity="1"/>
<text x="1095.0" y="466" fill="#e9eef4" font-size="28" font-family="'Hiragino Sans GB', 'STHeiti', 'Arial Unicode MS', sans-serif" font-weight="700" text-anchor="middle" opacity="1">训练过程</text>
<text x="1095.0" y="502" fill="#9aa8b7" font-size="21" font-family="'Hiragino Sans GB', 'STHeiti', 'Arial Unicode MS', sans-serif" font-weight="400" text-anchor="middle" opacity="1">从样本中调出模型</text>
<rect x="930" y="565" width="330" height="82" rx="8" fill="#132033" stroke="#5cc8a7" stroke-width="3" opacity="1"/>
<text x="1095.0" y="611" fill="#e9eef4" font-size="28" font-family="'Hiragino Sans GB', 'STHeiti', 'Arial Unicode MS', sans-serif" font-weight="700" text-anchor="middle" opacity="1">模型</text>
<text x="1095.0" y="647" fill="#9aa8b7" font-size="21" font-family="'Hiragino Sans GB', 'STHeiti', 'Arial Unicode MS', sans-serif" font-weight="400" text-anchor="middle" opacity="1">可调用的判断器</text>
<rect x="930" y="710" width="330" height="82" rx="8" fill="#132033" stroke="#5ec8d8" stroke-width="3" opacity="1"/>
<text x="1095.0" y="756" fill="#e9eef4" font-size="28" font-family="'Hiragino Sans GB', 'STHeiti', 'Arial Unicode MS', sans-serif" font-weight="700" text-anchor="middle" opacity="1">新输入 -&gt; 预测</text>
<line x1="1095" y1="369" x2="1095" y2="412" stroke="#6ea8fe" stroke-width="4" opacity="1" marker-end="url(#arrow)"/>
<line x1="1095" y1="514" x2="1095" y2="557" stroke="#5cc8a7" stroke-width="4" opacity="1" marker-end="url(#arrow)"/>
<line x1="1095" y1="659" x2="1095" y2="702" stroke="#5cc8a7" stroke-width="4" opacity="1" marker-end="url(#arrow)"/>
<text x="150" y="825" fill="#9aa8b7" font-size="26" font-family="'Hiragino Sans GB', 'STHeiti', 'Arial Unicode MS', sans-serif" font-weight="400" text-anchor="start" opacity="1">左侧：规则来自程序员，数据只是被处理。</text>
<text x="880" y="825" fill="#9aa8b7" font-size="26" font-family="'Hiragino Sans GB', 'STHeiti', 'Arial Unicode MS', sans-serif" font-weight="400" text-anchor="start" opacity="1">右侧：规则形状来自带标签样本，程序员审查边界。</text>
</svg>