<svg xmlns="http://www.w3.org/2000/svg" width="1600" height="900" viewBox="0 0 1600 900">
<defs>
<marker id="arrow" viewBox="0 0 10 10" refX="9" refY="5" markerWidth="7" markerHeight="7" orient="auto-start-reverse"><path d="M 0 0 L 10 5 L 0 10 z" fill="#9aa8b7"/></marker>
<marker id="arrow-amber" viewBox="0 0 10 10" refX="9" refY="5" markerWidth="7" markerHeight="7" orient="auto-start-reverse"><path d="M 0 0 L 10 5 L 0 10 z" fill="#d7a64a"/></marker>
</defs>
<rect width="1600" height="900" fill="#101821"/>
<line x1="80" y1="0" x2="80" y2="900" stroke="#263545" stroke-width="1" opacity="0.24"/>
<line x1="160" y1="0" x2="160" y2="900" stroke="#263545" stroke-width="1" opacity="0.24"/>
<line x1="240" y1="0" x2="240" y2="900" stroke="#263545" stroke-width="1" opacity="0.24"/>
<line x1="320" y1="0" x2="320" y2="900" stroke="#263545" stroke-width="1" opacity="0.24"/>
<line x1="400" y1="0" x2="400" y2="900" stroke="#263545" stroke-width="1" opacity="0.24"/>
<line x1="480" y1="0" x2="480" y2="900" stroke="#263545" stroke-width="1" opacity="0.24"/>
<line x1="560" y1="0" x2="560" y2="900" stroke="#263545" stroke-width="1" opacity="0.24"/>
<line x1="640" y1="0" x2="640" y2="900" stroke="#263545" stroke-width="1" opacity="0.24"/>
<line x1="720" y1="0" x2="720" y2="900" stroke="#263545" stroke-width="1" opacity="0.24"/>
<line x1="800" y1="0" x2="800" y2="900" stroke="#263545" stroke-width="1" opacity="0.24"/>
<line x1="880" y1="0" x2="880" y2="900" stroke="#263545" stroke-width="1" opacity="0.24"/>
<line x1="960" y1="0" x2="960" y2="900" stroke="#263545" stroke-width="1" opacity="0.24"/>
<line x1="1040" y1="0" x2="1040" y2="900" stroke="#263545" stroke-width="1" opacity="0.24"/>
<line x1="1120" y1="0" x2="1120" y2="900" stroke="#263545" stroke-width="1" opacity="0.24"/>
<line x1="1200" y1="0" x2="1200" y2="900" stroke="#263545" stroke-width="1" opacity="0.24"/>
<line x1="1280" y1="0" x2="1280" y2="900" stroke="#263545" stroke-width="1" opacity="0.24"/>
<line x1="1360" y1="0" x2="1360" y2="900" stroke="#263545" stroke-width="1" opacity="0.24"/>
<line x1="1440" y1="0" x2="1440" y2="900" stroke="#263545" stroke-width="1" opacity="0.24"/>
<line x1="1520" y1="0" x2="1520" y2="900" stroke="#263545" stroke-width="1" opacity="0.24"/>
<line x1="0" y1="60" x2="1600" y2="60" stroke="#263545" stroke-width="1" opacity="0.18"/>
<line x1="0" y1="120" x2="1600" y2="120" stroke="#263545" stroke-width="1" opacity="0.18"/>
<line x1="0" y1="180" x2="1600" y2="180" stroke="#263545" stroke-width="1" opacity="0.18"/>
<line x1="0" y1="240" x2="1600" y2="240" stroke="#263545" stroke-width="1" opacity="0.18"/>
<line x1="0" y1="300" x2="1600" y2="300" stroke="#263545" stroke-width="1" opacity="0.18"/>
<line x1="0" y1="360" x2="1600" y2="360" stroke="#263545" stroke-width="1" opacity="0.18"/>
<line x1="0" y1="420" x2="1600" y2="420" stroke="#263545" stroke-width="1" opacity="0.18"/>
<line x1="0" y1="480" x2="1600" y2="480" stroke="#263545" stroke-width="1" opacity="0.18"/>
<line x1="0" y1="540" x2="1600" y2="540" stroke="#263545" stroke-width="1" opacity="0.18"/>
<line x1="0" y1="600" x2="1600" y2="600" stroke="#263545" stroke-width="1" opacity="0.18"/>
<line x1="0" y1="660" x2="1600" y2="660" stroke="#263545" stroke-width="1" opacity="0.18"/>
<line x1="0" y1="720" x2="1600" y2="720" stroke="#263545" stroke-width="1" opacity="0.18"/>
<line x1="0" y1="780" x2="1600" y2="780" stroke="#263545" stroke-width="1" opacity="0.18"/>
<line x1="0" y1="840" x2="1600" y2="840" stroke="#263545" stroke-width="1" opacity="0.18"/>
<rect x="40" y="40" width="1520" height="820" rx="0" fill="none" stroke="#2e4054" stroke-width="2" opacity="0.75"/>
<text x="90" y="105" fill="#e9eef4" font-size="40" font-family="'Hiragino Sans GB', 'STHeiti', 'Arial Unicode MS', sans-serif" font-weight="700" text-anchor="start" opacity="1">embedding 把词面相似改成语义接近</text>
<text x="90" y="150" fill="#9aa8b7" font-size="24" font-family="'Hiragino Sans GB', 'STHeiti', 'Arial Unicode MS', sans-serif" font-weight="400" text-anchor="start" opacity="1">向量空间不是答案本身，而是让检索有了可计算的候选顺序</text>
<rect x="150" y="225" width="1050" height="520" rx="8" fill="#0f1722" stroke="#34475e" stroke-width="2" opacity="1"/>
<circle cx="330" cy="350" r="12" fill="#6ea8fe" stroke="#ffffff" stroke-width="1.5" opacity="1"/>
<text x="348" y="357" fill="#e9eef4" font-size="20" font-family="'Hiragino Sans GB', 'STHeiti', 'Arial Unicode MS', sans-serif" font-weight="400" text-anchor="start" opacity="1">支付接口超时</text>
<circle cx="430" cy="435" r="12" fill="#6ea8fe" stroke="#ffffff" stroke-width="1.5" opacity="1"/>
<text x="448" y="442" fill="#e9eef4" font-size="20" font-family="'Hiragino Sans GB', 'STHeiti', 'Arial Unicode MS', sans-serif" font-weight="400" text-anchor="start" opacity="1">扣款成功订单未支付</text>
<circle cx="610" cy="585" r="12" fill="#5cc8a7" stroke="#ffffff" stroke-width="1.5" opacity="1"/>
<text x="628" y="592" fill="#e9eef4" font-size="20" font-family="'Hiragino Sans GB', 'STHeiti', 'Arial Unicode MS', sans-serif" font-weight="400" text-anchor="start" opacity="1">报销多久到账</text>
<circle cx="705" cy="655" r="12" fill="#5cc8a7" stroke="#ffffff" stroke-width="1.5" opacity="1"/>
<text x="723" y="662" fill="#e9eef4" font-size="20" font-family="'Hiragino Sans GB', 'STHeiti', 'Arial Unicode MS', sans-serif" font-weight="400" text-anchor="start" opacity="1">发票缺失怎么办</text>
<circle cx="930" cy="350" r="12" fill="#e06c75" stroke="#ffffff" stroke-width="1.5" opacity="1"/>
<text x="948" y="357" fill="#e9eef4" font-size="20" font-family="'Hiragino Sans GB', 'STHeiti', 'Arial Unicode MS', sans-serif" font-weight="400" text-anchor="start" opacity="1">API Key 能否发工单</text>
<circle cx="1010" cy="450" r="12" fill="#e06c75" stroke="#ffffff" stroke-width="1.5" opacity="1"/>
<text x="1028" y="457" fill="#e9eef4" font-size="20" font-family="'Hiragino Sans GB', 'STHeiti', 'Arial Unicode MS', sans-serif" font-weight="400" text-anchor="start" opacity="1">Token 泄露怎么处理</text>
<circle cx="520" cy="300" r="12" fill="#d7a64a" stroke="#ffffff" stroke-width="1.5" opacity="1"/>
<text x="538" y="307" fill="#e9eef4" font-size="20" font-family="'Hiragino Sans GB', 'STHeiti', 'Arial Unicode MS', sans-serif" font-weight="400" text-anchor="start" opacity="1">周末值班交接</text>
<line x1="315" y1="363" x2="430" y2="435" stroke="#6ea8fe" stroke-width="2" opacity="0.7" stroke-dasharray="8 8"/>
<line x1="610" y1="585" x2="705" y2="655" stroke="#5cc8a7" stroke-width="2" opacity="0.7" stroke-dasharray="8 8"/>
<line x1="930" y1="350" x2="1010" y2="450" stroke="#e06c75" stroke-width="2" opacity="0.7" stroke-dasharray="8 8"/>
<rect x="1260" y="330" width="210" height="195" rx="8" fill="#0f1722" stroke="#34475e" stroke-width="2" opacity="1"/>
<text x="1365" y="380" fill="#5cc8a7" font-size="28" font-family="'Hiragino Sans GB', 'STHeiti', 'Arial Unicode MS', sans-serif" font-weight="700" text-anchor="middle" opacity="1">相似</text>
<text x="1365" y="425" fill="#e9eef4" font-size="22" font-family="'Hiragino Sans GB', 'STHeiti', 'Arial Unicode MS', sans-serif" font-weight="400" text-anchor="middle" opacity="1">只是候选</text>
<text x="1365" y="465" fill="#e9eef4" font-size="22" font-family="'SF Mono', 'Menlo', 'Consolas', monospace" font-weight="400" text-anchor="middle" opacity="1">仍要 eval</text>
<text x="190" y="805" fill="#9aa8b7" font-size="28" font-family="'Hiragino Sans GB', 'STHeiti', 'Arial Unicode MS', sans-serif" font-weight="400" text-anchor="start" opacity="1">向量能把候选资料排近，但不能证明答案已经正确，评估表必须跟着出现。</text>
</svg>