<svg xmlns="http://www.w3.org/2000/svg" width="1600" height="900" viewBox="0 0 1600 900">
<rect width="1600" height="900" fill="#101821"/>
<line x1="80" y1="0" x2="80" y2="900" stroke="#263545" stroke-width="1" opacity="0.24"/>
<line x1="160" y1="0" x2="160" y2="900" stroke="#263545" stroke-width="1" opacity="0.24"/>
<line x1="240" y1="0" x2="240" y2="900" stroke="#263545" stroke-width="1" opacity="0.24"/>
<line x1="320" y1="0" x2="320" y2="900" stroke="#263545" stroke-width="1" opacity="0.24"/>
<line x1="400" y1="0" x2="400" y2="900" stroke="#263545" stroke-width="1" opacity="0.24"/>
<line x1="480" y1="0" x2="480" y2="900" stroke="#263545" stroke-width="1" opacity="0.24"/>
<line x1="560" y1="0" x2="560" y2="900" stroke="#263545" stroke-width="1" opacity="0.24"/>
<line x1="640" y1="0" x2="640" y2="900" stroke="#263545" stroke-width="1" opacity="0.24"/>
<line x1="720" y1="0" x2="720" y2="900" stroke="#263545" stroke-width="1" opacity="0.24"/>
<line x1="800" y1="0" x2="800" y2="900" stroke="#263545" stroke-width="1" opacity="0.24"/>
<line x1="880" y1="0" x2="880" y2="900" stroke="#263545" stroke-width="1" opacity="0.24"/>
<line x1="960" y1="0" x2="960" y2="900" stroke="#263545" stroke-width="1" opacity="0.24"/>
<line x1="1040" y1="0" x2="1040" y2="900" stroke="#263545" stroke-width="1" opacity="0.24"/>
<line x1="1120" y1="0" x2="1120" y2="900" stroke="#263545" stroke-width="1" opacity="0.24"/>
<line x1="1200" y1="0" x2="1200" y2="900" stroke="#263545" stroke-width="1" opacity="0.24"/>
<line x1="1280" y1="0" x2="1280" y2="900" stroke="#263545" stroke-width="1" opacity="0.24"/>
<line x1="1360" y1="0" x2="1360" y2="900" stroke="#263545" stroke-width="1" opacity="0.24"/>
<line x1="1440" y1="0" x2="1440" y2="900" stroke="#263545" stroke-width="1" opacity="0.24"/>
<line x1="1520" y1="0" x2="1520" y2="900" stroke="#263545" stroke-width="1" opacity="0.24"/>
<line x1="0" y1="60" x2="1600" y2="60" stroke="#263545" stroke-width="1" opacity="0.18"/>
<line x1="0" y1="120" x2="1600" y2="120" stroke="#263545" stroke-width="1" opacity="0.18"/>
<line x1="0" y1="180" x2="1600" y2="180" stroke="#263545" stroke-width="1" opacity="0.18"/>
<line x1="0" y1="240" x2="1600" y2="240" stroke="#263545" stroke-width="1" opacity="0.18"/>
<line x1="0" y1="300" x2="1600" y2="300" stroke="#263545" stroke-width="1" opacity="0.18"/>
<line x1="0" y1="360" x2="1600" y2="360" stroke="#263545" stroke-width="1" opacity="0.18"/>
<line x1="0" y1="420" x2="1600" y2="420" stroke="#263545" stroke-width="1" opacity="0.18"/>
<line x1="0" y1="480" x2="1600" y2="480" stroke="#263545" stroke-width="1" opacity="0.18"/>
<line x1="0" y1="540" x2="1600" y2="540" stroke="#263545" stroke-width="1" opacity="0.18"/>
<line x1="0" y1="600" x2="1600" y2="600" stroke="#263545" stroke-width="1" opacity="0.18"/>
<line x1="0" y1="660" x2="1600" y2="660" stroke="#263545" stroke-width="1" opacity="0.18"/>
<line x1="0" y1="720" x2="1600" y2="720" stroke="#263545" stroke-width="1" opacity="0.18"/>
<line x1="0" y1="780" x2="1600" y2="780" stroke="#263545" stroke-width="1" opacity="0.18"/>
<line x1="0" y1="840" x2="1600" y2="840" stroke="#263545" stroke-width="1" opacity="0.18"/>
<rect x="40" y="40" width="1520" height="820" rx="0" fill="none" stroke="#2e4054" stroke-width="2" opacity="0.75"/>
<text x="90" y="105" fill="#e9eef4" font-size="40" font-family="'Hiragino Sans GB', 'STHeiti', 'Arial Unicode MS', sans-serif" font-weight="700" text-anchor="start" opacity="1">Pipeline 和 GridSearchCV 把隔离线写进代码</text>
<text x="90" y="150" fill="#9aa8b7" font-size="24" font-family="'Hiragino Sans GB', 'STHeiti', 'Arial Unicode MS', sans-serif" font-weight="400" text-anchor="start" opacity="1">预处理、交叉验证和最终测试各有边界；测试集不参与模型选择</text>
<marker id="arrow" markerWidth="12" markerHeight="12" refX="10" refY="6" orient="auto" markerUnits="strokeWidth"><path d="M2,2 L10,6 L2,10 Z" fill="#e9eef4"/></marker>
<marker id="arrow-green" markerWidth="12" markerHeight="12" refX="10" refY="6" orient="auto" markerUnits="strokeWidth"><path d="M2,2 L10,6 L2,10 Z" fill="#5cc8a7"/></marker>
<marker id="arrow-blue" markerWidth="12" markerHeight="12" refX="10" refY="6" orient="auto" markerUnits="strokeWidth"><path d="M2,2 L10,6 L2,10 Z" fill="#6ea8fe"/></marker>
<marker id="arrow-amber" markerWidth="12" markerHeight="12" refX="10" refY="6" orient="auto" markerUnits="strokeWidth"><path d="M2,2 L10,6 L2,10 Z" fill="#d7a64a"/></marker>
<marker id="arrow-red" markerWidth="12" markerHeight="12" refX="10" refY="6" orient="auto" markerUnits="strokeWidth"><path d="M2,2 L10,6 L2,10 Z" fill="#e06c75"/></marker>
<rect x="120" y="260" width="230" height="120" rx="8" fill="#0f1722" stroke="#e9eef4" stroke-width="3" opacity="1"/>
<text x="235" y="315" fill="#e9eef4" font-size="30" font-family="'Hiragino Sans GB', 'STHeiti', 'Arial Unicode MS', sans-serif" font-weight="700" text-anchor="middle" opacity="1">原始数据</text>
<text x="235" y="355" fill="#9aa8b7" font-size="23" font-family="'SF Mono', 'Menlo', 'Consolas', monospace" font-weight="400" text-anchor="middle" opacity="1">X, y</text>
<line x1="350" y1="320" x2="455" y2="320" stroke="#e9eef4" stroke-width="4" marker-end="url(#arrow)" opacity="1"/>
<rect x="455" y="225" width="250" height="120" rx="8" fill="#0f1722" stroke="#5cc8a7" stroke-width="4" opacity="1"/>
<text x="580" y="280" fill="#5cc8a7" font-size="30" font-family="'Hiragino Sans GB', 'STHeiti', 'Arial Unicode MS', sans-serif" font-weight="700" text-anchor="middle" opacity="1">训练池</text>
<text x="580" y="320" fill="#e9eef4" font-size="22" font-family="'SF Mono', 'Menlo', 'Consolas', monospace" font-weight="400" text-anchor="middle" opacity="1">train + valid</text>
<rect x="455" y="405" width="250" height="120" rx="8" fill="#0f1722" stroke="#d7a64a" stroke-width="4" opacity="1"/>
<text x="580" y="460" fill="#d7a64a" font-size="30" font-family="'Hiragino Sans GB', 'STHeiti', 'Arial Unicode MS', sans-serif" font-weight="700" text-anchor="middle" opacity="1">测试集</text>
<text x="580" y="500" fill="#e9eef4" font-size="22" font-family="'Hiragino Sans GB', 'STHeiti', 'Arial Unicode MS', sans-serif" font-weight="400" text-anchor="middle" opacity="1">最后打开一次</text>
<line x1="710" y1="465" x2="1460" y2="465" stroke="#e06c75" stroke-width="4" opacity="1" stroke-dasharray="12 10"/>
<line x1="705" y1="285" x2="810" y2="285" stroke="#5cc8a7" stroke-width="4" marker-end="url(#arrow-green)" opacity="1"/>
<rect x="810" y="185" width="470" height="245" rx="8" fill="#0f1722" stroke="#6ea8fe" stroke-width="4" opacity="1"/>
<text x="1045" y="235" fill="#6ea8fe" font-size="32" font-family="'SF Mono', 'Menlo', 'Consolas', monospace" font-weight="700" text-anchor="middle" opacity="1">GridSearchCV</text>
<text x="1045" y="275" fill="#e9eef4" font-size="24" font-family="'Hiragino Sans GB', 'STHeiti', 'Arial Unicode MS', sans-serif" font-weight="400" text-anchor="middle" opacity="1">只在训练池内部做 k 折轮换</text>
<text x="860" y="330" fill="#9aa8b7" font-size="21" font-family="'SF Mono', 'Menlo', 'Consolas', monospace" font-weight="400" text-anchor="start" opacity="1">候选 1：scaler -&gt; clf(C=0.1)</text>
<text x="860" y="365" fill="#9aa8b7" font-size="21" font-family="'SF Mono', 'Menlo', 'Consolas', monospace" font-weight="400" text-anchor="start" opacity="1">候选 2：scaler -&gt; clf(C=1.0)</text>
<text x="860" y="400" fill="#9aa8b7" font-size="21" font-family="'SF Mono', 'Menlo', 'Consolas', monospace" font-weight="400" text-anchor="start" opacity="1">候选 3：scaler -&gt; clf(C=10)</text>
<text x="1085" y="454" fill="#e06c75" font-size="24" font-family="'Hiragino Sans GB', 'STHeiti', 'Arial Unicode MS', sans-serif" font-weight="700" text-anchor="middle" opacity="1">不能回流调参</text>
<rect x="850" y="510" width="95" height="115" rx="6" fill="#132033" stroke="#5cc8a7" stroke-width="3" opacity="1"/>
<text x="897" y="555" fill="#5cc8a7" font-size="17" font-family="'Hiragino Sans GB', 'STHeiti', 'Arial Unicode MS', sans-serif" font-weight="700" text-anchor="middle" opacity="1">训练折 1</text>
<text x="897" y="590" fill="#e9eef4" font-size="21" font-family="'SF Mono', 'Menlo', 'Consolas', monospace" font-weight="400" text-anchor="middle" opacity="1">fit</text>
<rect x="980" y="510" width="95" height="115" rx="6" fill="#132033" stroke="#5cc8a7" stroke-width="3" opacity="1"/>
<text x="1027" y="555" fill="#5cc8a7" font-size="17" font-family="'Hiragino Sans GB', 'STHeiti', 'Arial Unicode MS', sans-serif" font-weight="700" text-anchor="middle" opacity="1">训练折 2</text>
<text x="1027" y="590" fill="#e9eef4" font-size="21" font-family="'SF Mono', 'Menlo', 'Consolas', monospace" font-weight="400" text-anchor="middle" opacity="1">fit</text>
<rect x="1110" y="510" width="95" height="115" rx="6" fill="#132033" stroke="#5cc8a7" stroke-width="3" opacity="1"/>
<text x="1157" y="555" fill="#5cc8a7" font-size="17" font-family="'Hiragino Sans GB', 'STHeiti', 'Arial Unicode MS', sans-serif" font-weight="700" text-anchor="middle" opacity="1">训练折 3</text>
<text x="1157" y="590" fill="#e9eef4" font-size="21" font-family="'SF Mono', 'Menlo', 'Consolas', monospace" font-weight="400" text-anchor="middle" opacity="1">fit</text>
<rect x="1240" y="510" width="95" height="115" rx="6" fill="#132033" stroke="#6ea8fe" stroke-width="3" opacity="1"/>
<text x="1287" y="555" fill="#6ea8fe" font-size="18" font-family="'Hiragino Sans GB', 'STHeiti', 'Arial Unicode MS', sans-serif" font-weight="700" text-anchor="middle" opacity="1">验证折</text>
<text x="1287" y="590" fill="#e9eef4" font-size="21" font-family="'SF Mono', 'Menlo', 'Consolas', monospace" font-weight="400" text-anchor="middle" opacity="1">score</text>
<line x1="1280" y1="430" x2="1280" y2="510" stroke="#6ea8fe" stroke-width="4" marker-end="url(#arrow-blue)" opacity="1"/>
<text x="980" y="675" fill="#e9eef4" font-size="25" font-family="'Hiragino Sans GB', 'STHeiti', 'Arial Unicode MS', sans-serif" font-weight="400" text-anchor="middle" opacity="1">Pipeline 在每一折内部重新 fit 预处理器，验证折只 transform，不学习统计量。</text>
<line x1="1280" y1="285" x2="1390" y2="285" stroke="#6ea8fe" stroke-width="4" marker-end="url(#arrow-blue)" opacity="1"/>
<rect x="1390" y="220" width="170" height="130" rx="8" fill="#0f1722" stroke="#5cc8a7" stroke-width="4" opacity="1"/>
<text x="1475" y="275" fill="#5cc8a7" font-size="28" font-family="'Hiragino Sans GB', 'STHeiti', 'Arial Unicode MS', sans-serif" font-weight="700" text-anchor="middle" opacity="1">最佳配置</text>
<text x="1475" y="315" fill="#e9eef4" font-size="23" font-family="'SF Mono', 'Menlo', 'Consolas', monospace" font-weight="400" text-anchor="middle" opacity="1">refit</text>
<line x1="1475" y1="350" x2="1475" y2="520" stroke="#d7a64a" stroke-width="4" marker-end="url(#arrow-amber)" opacity="1"/>
<text x="1475" y="580" fill="#d7a64a" font-size="27" font-family="'Hiragino Sans GB', 'STHeiti', 'Arial Unicode MS', sans-serif" font-weight="700" text-anchor="middle" opacity="1">最终测试分数</text>
<text x="130" y="785" fill="#9aa8b7" font-size="30" font-family="'Hiragino Sans GB', 'STHeiti', 'Arial Unicode MS', sans-serif" font-weight="400" text-anchor="start" opacity="1">关键纪律：搜索可以反复使用训练池，测试集只能给最终流程一次近似未来的审查。</text>
</svg>