<svg xmlns="http://www.w3.org/2000/svg" width="1600" height="900" viewBox="0 0 1600 900">
<defs>
<marker id="arrow" viewBox="0 0 10 10" refX="9" refY="5" markerWidth="8" markerHeight="8" orient="auto-start-reverse">
<path d="M 0 0 L 10 5 L 0 10 z" fill="#9aa8b7"/>
</marker>
</defs>
<rect width="1600" height="900" fill="#101821"/>
<line x1="80" y1="0" x2="80" y2="900" stroke="#263545" stroke-width="1" opacity="0.22"/>
<line x1="160" y1="0" x2="160" y2="900" stroke="#263545" stroke-width="1" opacity="0.22"/>
<line x1="240" y1="0" x2="240" y2="900" stroke="#263545" stroke-width="1" opacity="0.22"/>
<line x1="320" y1="0" x2="320" y2="900" stroke="#263545" stroke-width="1" opacity="0.22"/>
<line x1="400" y1="0" x2="400" y2="900" stroke="#263545" stroke-width="1" opacity="0.22"/>
<line x1="480" y1="0" x2="480" y2="900" stroke="#263545" stroke-width="1" opacity="0.22"/>
<line x1="560" y1="0" x2="560" y2="900" stroke="#263545" stroke-width="1" opacity="0.22"/>
<line x1="640" y1="0" x2="640" y2="900" stroke="#263545" stroke-width="1" opacity="0.22"/>
<line x1="720" y1="0" x2="720" y2="900" stroke="#263545" stroke-width="1" opacity="0.22"/>
<line x1="800" y1="0" x2="800" y2="900" stroke="#263545" stroke-width="1" opacity="0.22"/>
<line x1="880" y1="0" x2="880" y2="900" stroke="#263545" stroke-width="1" opacity="0.22"/>
<line x1="960" y1="0" x2="960" y2="900" stroke="#263545" stroke-width="1" opacity="0.22"/>
<line x1="1040" y1="0" x2="1040" y2="900" stroke="#263545" stroke-width="1" opacity="0.22"/>
<line x1="1120" y1="0" x2="1120" y2="900" stroke="#263545" stroke-width="1" opacity="0.22"/>
<line x1="1200" y1="0" x2="1200" y2="900" stroke="#263545" stroke-width="1" opacity="0.22"/>
<line x1="1280" y1="0" x2="1280" y2="900" stroke="#263545" stroke-width="1" opacity="0.22"/>
<line x1="1360" y1="0" x2="1360" y2="900" stroke="#263545" stroke-width="1" opacity="0.22"/>
<line x1="1440" y1="0" x2="1440" y2="900" stroke="#263545" stroke-width="1" opacity="0.22"/>
<line x1="1520" y1="0" x2="1520" y2="900" stroke="#263545" stroke-width="1" opacity="0.22"/>
<line x1="0" y1="60" x2="1600" y2="60" stroke="#263545" stroke-width="1" opacity="0.16"/>
<line x1="0" y1="120" x2="1600" y2="120" stroke="#263545" stroke-width="1" opacity="0.16"/>
<line x1="0" y1="180" x2="1600" y2="180" stroke="#263545" stroke-width="1" opacity="0.16"/>
<line x1="0" y1="240" x2="1600" y2="240" stroke="#263545" stroke-width="1" opacity="0.16"/>
<line x1="0" y1="300" x2="1600" y2="300" stroke="#263545" stroke-width="1" opacity="0.16"/>
<line x1="0" y1="360" x2="1600" y2="360" stroke="#263545" stroke-width="1" opacity="0.16"/>
<line x1="0" y1="420" x2="1600" y2="420" stroke="#263545" stroke-width="1" opacity="0.16"/>
<line x1="0" y1="480" x2="1600" y2="480" stroke="#263545" stroke-width="1" opacity="0.16"/>
<line x1="0" y1="540" x2="1600" y2="540" stroke="#263545" stroke-width="1" opacity="0.16"/>
<line x1="0" y1="600" x2="1600" y2="600" stroke="#263545" stroke-width="1" opacity="0.16"/>
<line x1="0" y1="660" x2="1600" y2="660" stroke="#263545" stroke-width="1" opacity="0.16"/>
<line x1="0" y1="720" x2="1600" y2="720" stroke="#263545" stroke-width="1" opacity="0.16"/>
<line x1="0" y1="780" x2="1600" y2="780" stroke="#263545" stroke-width="1" opacity="0.16"/>
<line x1="0" y1="840" x2="1600" y2="840" stroke="#263545" stroke-width="1" opacity="0.16"/>
<rect x="40" y="40" width="1520" height="820" rx="0" fill="none" stroke="#2e4054" stroke-width="2" opacity="0.78"/>
<text x="90" y="105" fill="#e9eef4" font-size="40" font-family="'Hiragino Sans GB', 'STHeiti', 'Arial Unicode MS', sans-serif" font-weight="700" text-anchor="start" opacity="1">损失地形和参数路径</text>
<text x="90" y="150" fill="#9aa8b7" font-size="24" font-family="'Hiragino Sans GB', 'STHeiti', 'Arial Unicode MS', sans-serif" font-weight="400" text-anchor="start" opacity="1">参数位置决定损失高度，训练沿局部下坡方向移动</text>
<rect x="145" y="225" width="900" height="530" rx="8" fill="#0f1722" stroke="#34475e" stroke-width="2" opacity="1"/>
<line x1="215" y1="695" x2="990" y2="695" stroke="#9aa8b7" stroke-width="3" opacity="1"/>
<line x1="215" y1="695" x2="215" y2="280" stroke="#9aa8b7" stroke-width="3" opacity="1"/>
<text x="990" y="733" fill="#9aa8b7" font-size="21" font-family="'Hiragino Sans GB', 'STHeiti', 'Arial Unicode MS', sans-serif" font-weight="400" text-anchor="end" opacity="1">参数 a</text>
<text x="197" y="262" fill="#9aa8b7" font-size="21" font-family="'Hiragino Sans GB', 'STHeiti', 'Arial Unicode MS', sans-serif" font-weight="400" text-anchor="end" opacity="1">损失 L</text>
<polyline points="215.0,328.3 221.5,337.4 227.9,346.3 234.4,355.1 240.8,363.8 247.3,372.4 253.8,380.9 260.2,389.3 266.7,397.5 273.1,405.7 279.6,413.7 286.0,421.6 292.5,429.4 299.0,437.1 305.4,444.7 311.9,452.1 318.3,459.5 324.8,466.7 331.2,473.8 337.7,480.9 344.2,487.8 350.6,494.5 357.1,501.2 363.5,507.8 370.0,514.2 376.5,520.6 382.9,526.8 389.4,532.9 395.8,538.9 402.3,544.8 408.8,550.5 415.2,556.2 421.7,561.7 428.1,567.2 434.6,572.5 441.0,577.7 447.5,582.8 454.0,587.8 460.4,592.6 466.9,597.4 473.3,602.0 479.8,606.5 486.2,611.0 492.7,615.3 499.2,619.5 505.6,623.5 512.1,627.5 518.5,631.3 525.0,635.1 531.5,638.7 537.9,642.2 544.4,645.6 550.8,648.9 557.3,652.1 563.8,655.1 570.2,658.1 576.7,660.9 583.1,663.6 589.6,666.2 596.0,668.7 602.5,671.1 609.0,673.4 615.4,675.5 621.9,677.6 628.3,679.5 634.8,681.3 641.2,683.0 647.7,684.6 654.2,686.1 660.6,687.4 667.1,688.7 673.5,689.8 680.0,690.9 686.5,691.8 692.9,692.6 699.4,693.2 705.8,693.8 712.3,694.3 718.8,694.6 725.2,694.9 731.7,695.0 738.1,695.0 744.6,694.9 751.0,694.7 757.5,694.3 764.0,693.9 770.4,693.3 776.9,692.7 783.3,691.9 789.8,691.0 796.2,690.0 802.7,688.9 809.2,687.6 815.6,686.3 822.1,684.8 828.5,683.2 835.0,681.6 841.5,679.8 847.9,677.8 854.4,675.8 860.8,673.7 867.3,671.4 873.8,669.1 880.2,666.6 886.7,664.0 893.1,661.3 899.6,658.5 906.0,655.5 912.5,652.5 919.0,649.3 925.4,646.1 931.9,642.7 938.3,639.2 944.8,635.6 951.2,631.9 957.7,628.0 964.2,624.1 970.6,620.0 977.1,615.9 983.5,611.6 990.0,607.2" fill="none" stroke="#6ea8fe" stroke-width="5" stroke-linecap="round" stroke-linejoin="round" opacity="1"/>
<polyline points="270.4,402.2 605.2,672.0 698.9,693.2 725.1,694.9 732.5,695.0 734.6,695.0 735.1,695.0" fill="none" stroke="#d7a64a" stroke-width="4" stroke-linecap="round" stroke-linejoin="round" opacity="1" marker-end="url(#arrow)"/>
<circle cx="270.35714285714283" cy="402.176" r="8" fill="#d7a64a" stroke="#101821" stroke-width="2"/>
<text x="282.35714285714283" y="390.176" fill="#d7a64a" font-size="19" font-family="'SF Mono', 'Menlo', 'Consolas', monospace" font-weight="400" text-anchor="start" opacity="1">start</text>
<circle cx="605.1571428571428" cy="672.0425984" r="8" fill="#d7a64a" stroke="#101821" stroke-width="2"/>
<circle cx="698.901142857143" cy="693.20013971456" r="8" fill="#d7a64a" stroke="#101821" stroke-width="2"/>
<circle cx="725.1494628571429" cy="694.8588909536215" r="8" fill="#d7a64a" stroke="#101821" stroke-width="2"/>
<circle cx="732.4989924571429" cy="694.988937050764" r="8" fill="#d7a64a" stroke="#101821" stroke-width="2"/>
<circle cx="734.5568607451429" cy="694.9991326647798" r="8" fill="#d7a64a" stroke="#101821" stroke-width="2"/>
<circle cx="735.1330638657829" cy="694.9999320009188" r="8" fill="#d7a64a" stroke="#101821" stroke-width="2"/>
<text x="747.1330638657829" y="682.9999320009188" fill="#d7a64a" font-size="19" font-family="'SF Mono', 'Menlo', 'Consolas', monospace" font-weight="400" text-anchor="start" opacity="1">低处附近</text>
<rect x="1110" y="280" width="330" height="235" rx="8" fill="#0f1722" stroke="#34475e" stroke-width="2" opacity="1"/>
<text x="1275" y="330" fill="#e9eef4" font-size="28" font-family="'Hiragino Sans GB', 'STHeiti', 'Arial Unicode MS', sans-serif" font-weight="700" text-anchor="middle" opacity="1">三件事</text>
<text x="1160" y="382" fill="#e9eef4" font-size="24" font-family="'Hiragino Sans GB', 'STHeiti', 'Arial Unicode MS', sans-serif" font-weight="400" text-anchor="start" opacity="1">损失塑造地形</text>
<text x="1160" y="427" fill="#e9eef4" font-size="24" font-family="'Hiragino Sans GB', 'STHeiti', 'Arial Unicode MS', sans-serif" font-weight="400" text-anchor="start" opacity="1">梯度给出局部方向</text>
<text x="1160" y="472" fill="#e9eef4" font-size="24" font-family="'Hiragino Sans GB', 'STHeiti', 'Arial Unicode MS', sans-serif" font-weight="400" text-anchor="start" opacity="1">学习率决定步长</text>
<text x="1115" y="625" fill="#e06c75" font-size="25" font-family="'Hiragino Sans GB', 'STHeiti', 'Arial Unicode MS', sans-serif" font-weight="700" text-anchor="start" opacity="1">目标写偏时，下坡也会认真走错路。</text>
</svg>