<svg xmlns="http://www.w3.org/2000/svg" width="1600" height="900" viewBox="0 0 1600 900">
<defs>
<marker id="arrow" viewBox="0 0 10 10" refX="9" refY="5" markerWidth="8" markerHeight="8" orient="auto-start-reverse">
<path d="M 0 0 L 10 5 L 0 10 z" fill="#9aa8b7"/>
</marker>
</defs>
<rect width="1600" height="900" fill="#101821"/>
<line x1="80" y1="0" x2="80" y2="900" stroke="#263545" stroke-width="1" opacity="0.22"/>
<line x1="160" y1="0" x2="160" y2="900" stroke="#263545" stroke-width="1" opacity="0.22"/>
<line x1="240" y1="0" x2="240" y2="900" stroke="#263545" stroke-width="1" opacity="0.22"/>
<line x1="320" y1="0" x2="320" y2="900" stroke="#263545" stroke-width="1" opacity="0.22"/>
<line x1="400" y1="0" x2="400" y2="900" stroke="#263545" stroke-width="1" opacity="0.22"/>
<line x1="480" y1="0" x2="480" y2="900" stroke="#263545" stroke-width="1" opacity="0.22"/>
<line x1="560" y1="0" x2="560" y2="900" stroke="#263545" stroke-width="1" opacity="0.22"/>
<line x1="640" y1="0" x2="640" y2="900" stroke="#263545" stroke-width="1" opacity="0.22"/>
<line x1="720" y1="0" x2="720" y2="900" stroke="#263545" stroke-width="1" opacity="0.22"/>
<line x1="800" y1="0" x2="800" y2="900" stroke="#263545" stroke-width="1" opacity="0.22"/>
<line x1="880" y1="0" x2="880" y2="900" stroke="#263545" stroke-width="1" opacity="0.22"/>
<line x1="960" y1="0" x2="960" y2="900" stroke="#263545" stroke-width="1" opacity="0.22"/>
<line x1="1040" y1="0" x2="1040" y2="900" stroke="#263545" stroke-width="1" opacity="0.22"/>
<line x1="1120" y1="0" x2="1120" y2="900" stroke="#263545" stroke-width="1" opacity="0.22"/>
<line x1="1200" y1="0" x2="1200" y2="900" stroke="#263545" stroke-width="1" opacity="0.22"/>
<line x1="1280" y1="0" x2="1280" y2="900" stroke="#263545" stroke-width="1" opacity="0.22"/>
<line x1="1360" y1="0" x2="1360" y2="900" stroke="#263545" stroke-width="1" opacity="0.22"/>
<line x1="1440" y1="0" x2="1440" y2="900" stroke="#263545" stroke-width="1" opacity="0.22"/>
<line x1="1520" y1="0" x2="1520" y2="900" stroke="#263545" stroke-width="1" opacity="0.22"/>
<line x1="0" y1="60" x2="1600" y2="60" stroke="#263545" stroke-width="1" opacity="0.16"/>
<line x1="0" y1="120" x2="1600" y2="120" stroke="#263545" stroke-width="1" opacity="0.16"/>
<line x1="0" y1="180" x2="1600" y2="180" stroke="#263545" stroke-width="1" opacity="0.16"/>
<line x1="0" y1="240" x2="1600" y2="240" stroke="#263545" stroke-width="1" opacity="0.16"/>
<line x1="0" y1="300" x2="1600" y2="300" stroke="#263545" stroke-width="1" opacity="0.16"/>
<line x1="0" y1="360" x2="1600" y2="360" stroke="#263545" stroke-width="1" opacity="0.16"/>
<line x1="0" y1="420" x2="1600" y2="420" stroke="#263545" stroke-width="1" opacity="0.16"/>
<line x1="0" y1="480" x2="1600" y2="480" stroke="#263545" stroke-width="1" opacity="0.16"/>
<line x1="0" y1="540" x2="1600" y2="540" stroke="#263545" stroke-width="1" opacity="0.16"/>
<line x1="0" y1="600" x2="1600" y2="600" stroke="#263545" stroke-width="1" opacity="0.16"/>
<line x1="0" y1="660" x2="1600" y2="660" stroke="#263545" stroke-width="1" opacity="0.16"/>
<line x1="0" y1="720" x2="1600" y2="720" stroke="#263545" stroke-width="1" opacity="0.16"/>
<line x1="0" y1="780" x2="1600" y2="780" stroke="#263545" stroke-width="1" opacity="0.16"/>
<line x1="0" y1="840" x2="1600" y2="840" stroke="#263545" stroke-width="1" opacity="0.16"/>
<rect x="40" y="40" width="1520" height="820" rx="0" fill="none" stroke="#2e4054" stroke-width="2" opacity="0.78"/>
<text x="90" y="105" fill="#e9eef4" font-size="40" font-family="'Hiragino Sans GB', 'STHeiti', 'Arial Unicode MS', sans-serif" font-weight="700" text-anchor="start" opacity="1">三份训练日志的诊断</text>
<text x="90" y="150" fill="#9aa8b7" font-size="24" font-family="'Hiragino Sans GB', 'STHeiti', 'Arial Unicode MS', sans-serif" font-weight="400" text-anchor="start" opacity="1">训练日志本身就是数据，曲线形状先于最终分数</text>
<rect x="95" y="245" width="430" height="430" rx="8" fill="#0f1722" stroke="#34475e" stroke-width="2" opacity="1"/>
<line x1="165" y1="615" x2="470" y2="615" stroke="#9aa8b7" stroke-width="3" opacity="1"/>
<line x1="165" y1="615" x2="165" y2="300" stroke="#9aa8b7" stroke-width="3" opacity="1"/>
<text x="470" y="653" fill="#9aa8b7" font-size="21" font-family="'Hiragino Sans GB', 'STHeiti', 'Arial Unicode MS', sans-serif" font-weight="400" text-anchor="end" opacity="1">epoch</text>
<text x="147" y="282" fill="#9aa8b7" font-size="21" font-family="'Hiragino Sans GB', 'STHeiti', 'Arial Unicode MS', sans-serif" font-weight="400" text-anchor="end" opacity="1">loss</text>
<text x="310" y="300" fill="#e9eef4" font-size="30" font-family="'Hiragino Sans GB', 'STHeiti', 'Arial Unicode MS', sans-serif" font-weight="700" text-anchor="middle" opacity="1">实验 A</text>
<text x="310" y="335" fill="#9aa8b7" font-size="18" font-family="'SF Mono', 'Menlo', 'Consolas', monospace" font-weight="400" text-anchor="middle" opacity="1">lr=0.0005, batch=256</text>
<polyline points="165.0,337.8 198.9,355.4 232.8,370.6 266.7,383.2 300.6,393.2 334.4,403.3 368.3,413.4 402.2,423.5 436.1,431.0 470.0,438.6" fill="none" stroke="#5cc8a7" stroke-width="5" stroke-linecap="round" stroke-linejoin="round" opacity="1"/>
<polyline points="165.0,325.2 198.9,342.8 232.8,355.4 266.7,368.0 300.6,375.6 334.4,385.7 368.3,393.2 402.2,403.3 436.1,410.9 470.0,418.4" fill="none" stroke="#5cc8a7" stroke-width="4" stroke-linecap="round" stroke-linejoin="round" opacity="0.85" stroke-dasharray="8 8"/>
<text x="310" y="725" fill="#5cc8a7" font-size="23" font-family="'Hiragino Sans GB', 'STHeiti', 'Arial Unicode MS', sans-serif" font-weight="700" text-anchor="middle" opacity="1">下降稳定但太慢</text>
<rect x="585" y="245" width="430" height="430" rx="8" fill="#0f1722" stroke="#34475e" stroke-width="2" opacity="1"/>
<line x1="655" y1="615" x2="960" y2="615" stroke="#9aa8b7" stroke-width="3" opacity="1"/>
<line x1="655" y1="615" x2="655" y2="300" stroke="#9aa8b7" stroke-width="3" opacity="1"/>
<text x="960" y="653" fill="#9aa8b7" font-size="21" font-family="'Hiragino Sans GB', 'STHeiti', 'Arial Unicode MS', sans-serif" font-weight="400" text-anchor="end" opacity="1">epoch</text>
<text x="637" y="282" fill="#9aa8b7" font-size="21" font-family="'Hiragino Sans GB', 'STHeiti', 'Arial Unicode MS', sans-serif" font-weight="400" text-anchor="end" opacity="1">loss</text>
<text x="800" y="300" fill="#e9eef4" font-size="30" font-family="'Hiragino Sans GB', 'STHeiti', 'Arial Unicode MS', sans-serif" font-weight="700" text-anchor="middle" opacity="1">实验 B</text>
<text x="800" y="335" fill="#9aa8b7" font-size="18" font-family="'SF Mono', 'Menlo', 'Consolas', monospace" font-weight="400" text-anchor="middle" opacity="1">lr=0.01, batch=256</text>
<polyline points="655.0,337.8 688.9,431.0 722.8,496.6 756.7,541.9 790.6,572.2 824.4,589.8 858.3,599.9 892.2,604.9 926.1,607.4 960.0,610.0" fill="none" stroke="#6ea8fe" stroke-width="5" stroke-linecap="round" stroke-linejoin="round" opacity="1"/>
<polyline points="655.0,325.2 688.9,413.4 722.8,473.9 756.7,514.2 790.6,536.9 824.4,549.5 858.3,554.5 892.2,554.5 926.1,552.0 960.0,549.5" fill="none" stroke="#6ea8fe" stroke-width="4" stroke-linecap="round" stroke-linejoin="round" opacity="0.85" stroke-dasharray="8 8"/>
<text x="800" y="725" fill="#6ea8fe" font-size="23" font-family="'Hiragino Sans GB', 'STHeiti', 'Arial Unicode MS', sans-serif" font-weight="700" text-anchor="middle" opacity="1">验证趋稳，保留基线</text>
<rect x="1075" y="245" width="430" height="430" rx="8" fill="#0f1722" stroke="#34475e" stroke-width="2" opacity="1"/>
<line x1="1145" y1="615" x2="1450" y2="615" stroke="#9aa8b7" stroke-width="3" opacity="1"/>
<line x1="1145" y1="615" x2="1145" y2="300" stroke="#9aa8b7" stroke-width="3" opacity="1"/>
<text x="1450" y="653" fill="#9aa8b7" font-size="21" font-family="'Hiragino Sans GB', 'STHeiti', 'Arial Unicode MS', sans-serif" font-weight="400" text-anchor="end" opacity="1">epoch</text>
<text x="1127" y="282" fill="#9aa8b7" font-size="21" font-family="'Hiragino Sans GB', 'STHeiti', 'Arial Unicode MS', sans-serif" font-weight="400" text-anchor="end" opacity="1">loss</text>
<text x="1290" y="300" fill="#e9eef4" font-size="30" font-family="'Hiragino Sans GB', 'STHeiti', 'Arial Unicode MS', sans-serif" font-weight="700" text-anchor="middle" opacity="1">实验 C</text>
<text x="1290" y="335" fill="#9aa8b7" font-size="18" font-family="'SF Mono', 'Menlo', 'Consolas', monospace" font-weight="400" text-anchor="middle" opacity="1">lr=0.08, batch=32</text>
<polyline points="1145.0,337.8 1178.9,471.4 1212.8,385.7 1246.7,516.7 1280.6,405.8 1314.4,531.8 1348.3,438.6 1382.2,547.0 1416.1,461.3 1450.0,557.0" fill="none" stroke="#e06c75" stroke-width="5" stroke-linecap="round" stroke-linejoin="round" opacity="1"/>
<polyline points="1145.0,320.2 1178.9,438.6 1212.8,345.4 1246.7,456.2 1280.6,363.0 1314.4,471.4 1348.3,380.6 1382.2,476.4 1416.1,388.2 1450.0,481.4" fill="none" stroke="#e06c75" stroke-width="4" stroke-linecap="round" stroke-linejoin="round" opacity="0.85" stroke-dasharray="8 8"/>
<text x="1290" y="725" fill="#e06c75" font-size="23" font-family="'Hiragino Sans GB', 'STHeiti', 'Arial Unicode MS', sans-serif" font-weight="700" text-anchor="middle" opacity="1">震荡明显，先降步长</text>
<text x="105" y="790" fill="#e9eef4" font-size="26" font-family="'Hiragino Sans GB', 'STHeiti', 'Arial Unicode MS', sans-serif" font-weight="400" text-anchor="start" opacity="1">A 可以调大学习率；B 进入泛化检查；C 先降学习率或增大 batch。</text>
</svg>