<svg xmlns="http://www.w3.org/2000/svg" width="1600" height="900" viewBox="0 0 1600 900">
<rect width="1600" height="900" fill="#101821"/>
<line x1="80" y1="0" x2="80" y2="900" stroke="#263545" stroke-width="1" opacity="0.22"/>
<line x1="160" y1="0" x2="160" y2="900" stroke="#263545" stroke-width="1" opacity="0.22"/>
<line x1="240" y1="0" x2="240" y2="900" stroke="#263545" stroke-width="1" opacity="0.22"/>
<line x1="320" y1="0" x2="320" y2="900" stroke="#263545" stroke-width="1" opacity="0.22"/>
<line x1="400" y1="0" x2="400" y2="900" stroke="#263545" stroke-width="1" opacity="0.22"/>
<line x1="480" y1="0" x2="480" y2="900" stroke="#263545" stroke-width="1" opacity="0.22"/>
<line x1="560" y1="0" x2="560" y2="900" stroke="#263545" stroke-width="1" opacity="0.22"/>
<line x1="640" y1="0" x2="640" y2="900" stroke="#263545" stroke-width="1" opacity="0.22"/>
<line x1="720" y1="0" x2="720" y2="900" stroke="#263545" stroke-width="1" opacity="0.22"/>
<line x1="800" y1="0" x2="800" y2="900" stroke="#263545" stroke-width="1" opacity="0.22"/>
<line x1="880" y1="0" x2="880" y2="900" stroke="#263545" stroke-width="1" opacity="0.22"/>
<line x1="960" y1="0" x2="960" y2="900" stroke="#263545" stroke-width="1" opacity="0.22"/>
<line x1="1040" y1="0" x2="1040" y2="900" stroke="#263545" stroke-width="1" opacity="0.22"/>
<line x1="1120" y1="0" x2="1120" y2="900" stroke="#263545" stroke-width="1" opacity="0.22"/>
<line x1="1200" y1="0" x2="1200" y2="900" stroke="#263545" stroke-width="1" opacity="0.22"/>
<line x1="1280" y1="0" x2="1280" y2="900" stroke="#263545" stroke-width="1" opacity="0.22"/>
<line x1="1360" y1="0" x2="1360" y2="900" stroke="#263545" stroke-width="1" opacity="0.22"/>
<line x1="1440" y1="0" x2="1440" y2="900" stroke="#263545" stroke-width="1" opacity="0.22"/>
<line x1="1520" y1="0" x2="1520" y2="900" stroke="#263545" stroke-width="1" opacity="0.22"/>
<line x1="0" y1="60" x2="1600" y2="60" stroke="#263545" stroke-width="1" opacity="0.18"/>
<line x1="0" y1="120" x2="1600" y2="120" stroke="#263545" stroke-width="1" opacity="0.18"/>
<line x1="0" y1="180" x2="1600" y2="180" stroke="#263545" stroke-width="1" opacity="0.18"/>
<line x1="0" y1="240" x2="1600" y2="240" stroke="#263545" stroke-width="1" opacity="0.18"/>
<line x1="0" y1="300" x2="1600" y2="300" stroke="#263545" stroke-width="1" opacity="0.18"/>
<line x1="0" y1="360" x2="1600" y2="360" stroke="#263545" stroke-width="1" opacity="0.18"/>
<line x1="0" y1="420" x2="1600" y2="420" stroke="#263545" stroke-width="1" opacity="0.18"/>
<line x1="0" y1="480" x2="1600" y2="480" stroke="#263545" stroke-width="1" opacity="0.18"/>
<line x1="0" y1="540" x2="1600" y2="540" stroke="#263545" stroke-width="1" opacity="0.18"/>
<line x1="0" y1="600" x2="1600" y2="600" stroke="#263545" stroke-width="1" opacity="0.18"/>
<line x1="0" y1="660" x2="1600" y2="660" stroke="#263545" stroke-width="1" opacity="0.18"/>
<line x1="0" y1="720" x2="1600" y2="720" stroke="#263545" stroke-width="1" opacity="0.18"/>
<line x1="0" y1="780" x2="1600" y2="780" stroke="#263545" stroke-width="1" opacity="0.18"/>
<line x1="0" y1="840" x2="1600" y2="840" stroke="#263545" stroke-width="1" opacity="0.18"/>
<rect x="40" y="40" width="1520" height="820" rx="0" fill="none" stroke="#2e4054" stroke-width="2" opacity="0.75"/>
<text x="90" y="105" fill="#e9eef4" font-size="40" font-family="'Hiragino Sans GB', 'STHeiti', 'Arial Unicode MS', sans-serif" font-weight="700" text-anchor="start" opacity="1">99% 准确率也可能完全失职</text>
<text x="90" y="150" fill="#9aa8b7" font-size="24" font-family="'Hiragino Sans GB', 'STHeiti', 'Arial Unicode MS', sans-serif" font-weight="400" text-anchor="start" opacity="1">类别不平衡时，多数类会把总体分数包装得很好看</text>
<text x="190" y="258" fill="#e9eef4" font-size="30" font-family="'Hiragino Sans GB', 'STHeiti', 'Arial Unicode MS', sans-serif" font-weight="700" text-anchor="start" opacity="1">100 万笔交易</text>
<rect x="190" y="300" width="1207.8" height="96" rx="8" fill="#6ea8fe" stroke="none" stroke-width="2" opacity="0.82"/>
<rect x="1397.8" y="300" width="12.200000000000001" height="96" rx="2" fill="#e06c75" stroke="none" stroke-width="2" opacity="1"/>
<text x="793.9" y="362" fill="#101821" font-size="28" font-family="'Hiragino Sans GB', 'STHeiti', 'Arial Unicode MS', sans-serif" font-weight="700" text-anchor="middle" opacity="1">99 万正常</text>
<text x="1398" y="432" fill="#e06c75" font-size="24" font-family="'Hiragino Sans GB', 'STHeiti', 'Arial Unicode MS', sans-serif" font-weight="700" text-anchor="end" opacity="1">1 万欺诈</text>
<line x1="1401.8" y1="306" x2="1401.8" y2="438" stroke="#e06c75" stroke-width="3" opacity="1"/>
<rect x="320" y="500" width="960" height="210" rx="8" fill="#0f1722" stroke="#34475e" stroke-width="2" opacity="1"/>
<text x="480.0" y="548" fill="#e9eef4" font-size="26" font-family="'Hiragino Sans GB', 'STHeiti', 'Arial Unicode MS', sans-serif" font-weight="700" text-anchor="middle" opacity="1">真实 \ 预测</text>
<text x="790.0" y="548" fill="#e9eef4" font-size="26" font-family="'Hiragino Sans GB', 'STHeiti', 'Arial Unicode MS', sans-serif" font-weight="700" text-anchor="middle" opacity="1">预测欺诈</text>
<text x="1110.0" y="548" fill="#e9eef4" font-size="26" font-family="'Hiragino Sans GB', 'STHeiti', 'Arial Unicode MS', sans-serif" font-weight="700" text-anchor="middle" opacity="1">预测正常</text>
<text x="480.0" y="605" fill="#e9eef4" font-size="30" font-family="'Hiragino Sans GB', 'STHeiti', 'Arial Unicode MS', sans-serif" font-weight="400" text-anchor="middle" opacity="1">真实欺诈</text>
<text x="790.0" y="605" fill="#e9eef4" font-size="30" font-family="'SF Mono', 'Menlo', 'Consolas', monospace" font-weight="700" text-anchor="middle" opacity="1">0</text>
<text x="1110.0" y="605" fill="#e06c75" font-size="30" font-family="'SF Mono', 'Menlo', 'Consolas', monospace" font-weight="700" text-anchor="middle" opacity="1">10,000</text>
<text x="480.0" y="677" fill="#e9eef4" font-size="30" font-family="'Hiragino Sans GB', 'STHeiti', 'Arial Unicode MS', sans-serif" font-weight="400" text-anchor="middle" opacity="1">真实正常</text>
<text x="790.0" y="677" fill="#e9eef4" font-size="30" font-family="'SF Mono', 'Menlo', 'Consolas', monospace" font-weight="700" text-anchor="middle" opacity="1">0</text>
<text x="1110.0" y="677" fill="#e9eef4" font-size="30" font-family="'SF Mono', 'Menlo', 'Consolas', monospace" font-weight="700" text-anchor="middle" opacity="1">990,000</text>
<line x1="320" y1="568" x2="1280" y2="568" stroke="#34475e" stroke-width="2" opacity="1"/>
<text x="430" y="780" fill="#d7a64a" font-size="30" font-family="'Hiragino Sans GB', 'STHeiti', 'Arial Unicode MS', sans-serif" font-weight="700" text-anchor="start" opacity="1">Accuracy = 990,000 / 1,000,000 = 99%，但 TP = 0，recall = 0。</text>
</svg>