<svg xmlns="http://www.w3.org/2000/svg" width="1600" height="900" viewBox="0 0 1600 900">
<rect width="1600" height="900" fill="#101821"/>
<line x1="80" y1="0" x2="80" y2="900" stroke="#263545" stroke-width="1" opacity="0.22"/>
<line x1="160" y1="0" x2="160" y2="900" stroke="#263545" stroke-width="1" opacity="0.22"/>
<line x1="240" y1="0" x2="240" y2="900" stroke="#263545" stroke-width="1" opacity="0.22"/>
<line x1="320" y1="0" x2="320" y2="900" stroke="#263545" stroke-width="1" opacity="0.22"/>
<line x1="400" y1="0" x2="400" y2="900" stroke="#263545" stroke-width="1" opacity="0.22"/>
<line x1="480" y1="0" x2="480" y2="900" stroke="#263545" stroke-width="1" opacity="0.22"/>
<line x1="560" y1="0" x2="560" y2="900" stroke="#263545" stroke-width="1" opacity="0.22"/>
<line x1="640" y1="0" x2="640" y2="900" stroke="#263545" stroke-width="1" opacity="0.22"/>
<line x1="720" y1="0" x2="720" y2="900" stroke="#263545" stroke-width="1" opacity="0.22"/>
<line x1="800" y1="0" x2="800" y2="900" stroke="#263545" stroke-width="1" opacity="0.22"/>
<line x1="880" y1="0" x2="880" y2="900" stroke="#263545" stroke-width="1" opacity="0.22"/>
<line x1="960" y1="0" x2="960" y2="900" stroke="#263545" stroke-width="1" opacity="0.22"/>
<line x1="1040" y1="0" x2="1040" y2="900" stroke="#263545" stroke-width="1" opacity="0.22"/>
<line x1="1120" y1="0" x2="1120" y2="900" stroke="#263545" stroke-width="1" opacity="0.22"/>
<line x1="1200" y1="0" x2="1200" y2="900" stroke="#263545" stroke-width="1" opacity="0.22"/>
<line x1="1280" y1="0" x2="1280" y2="900" stroke="#263545" stroke-width="1" opacity="0.22"/>
<line x1="1360" y1="0" x2="1360" y2="900" stroke="#263545" stroke-width="1" opacity="0.22"/>
<line x1="1440" y1="0" x2="1440" y2="900" stroke="#263545" stroke-width="1" opacity="0.22"/>
<line x1="1520" y1="0" x2="1520" y2="900" stroke="#263545" stroke-width="1" opacity="0.22"/>
<line x1="0" y1="60" x2="1600" y2="60" stroke="#263545" stroke-width="1" opacity="0.18"/>
<line x1="0" y1="120" x2="1600" y2="120" stroke="#263545" stroke-width="1" opacity="0.18"/>
<line x1="0" y1="180" x2="1600" y2="180" stroke="#263545" stroke-width="1" opacity="0.18"/>
<line x1="0" y1="240" x2="1600" y2="240" stroke="#263545" stroke-width="1" opacity="0.18"/>
<line x1="0" y1="300" x2="1600" y2="300" stroke="#263545" stroke-width="1" opacity="0.18"/>
<line x1="0" y1="360" x2="1600" y2="360" stroke="#263545" stroke-width="1" opacity="0.18"/>
<line x1="0" y1="420" x2="1600" y2="420" stroke="#263545" stroke-width="1" opacity="0.18"/>
<line x1="0" y1="480" x2="1600" y2="480" stroke="#263545" stroke-width="1" opacity="0.18"/>
<line x1="0" y1="540" x2="1600" y2="540" stroke="#263545" stroke-width="1" opacity="0.18"/>
<line x1="0" y1="600" x2="1600" y2="600" stroke="#263545" stroke-width="1" opacity="0.18"/>
<line x1="0" y1="660" x2="1600" y2="660" stroke="#263545" stroke-width="1" opacity="0.18"/>
<line x1="0" y1="720" x2="1600" y2="720" stroke="#263545" stroke-width="1" opacity="0.18"/>
<line x1="0" y1="780" x2="1600" y2="780" stroke="#263545" stroke-width="1" opacity="0.18"/>
<line x1="0" y1="840" x2="1600" y2="840" stroke="#263545" stroke-width="1" opacity="0.18"/>
<rect x="40" y="40" width="1520" height="820" rx="0" fill="none" stroke="#2e4054" stroke-width="2" opacity="0.75"/>
<text x="90" y="105" fill="#e9eef4" font-size="40" font-family="'Hiragino Sans GB', 'STHeiti', 'Arial Unicode MS', sans-serif" font-weight="700" text-anchor="start" opacity="1">混淆矩阵把错误拆成四格</text>
<text x="90" y="150" fill="#9aa8b7" font-size="24" font-family="'Hiragino Sans GB', 'STHeiti', 'Arial Unicode MS', sans-serif" font-weight="400" text-anchor="start" opacity="1">同样是错，FP 和 FN 接向完全不同的业务代价</text>
<text x="512.5" y="216" fill="#e9eef4" font-size="28" font-family="'Hiragino Sans GB', 'STHeiti', 'Arial Unicode MS', sans-serif" font-weight="700" text-anchor="middle" opacity="1">预测为欺诈</text>
<text x="757.5" y="216" fill="#e9eef4" font-size="28" font-family="'Hiragino Sans GB', 'STHeiti', 'Arial Unicode MS', sans-serif" font-weight="700" text-anchor="middle" opacity="1">预测为正常</text>
<text x="348" y="380.5" fill="#e9eef4" font-size="28" font-family="'Hiragino Sans GB', 'STHeiti', 'Arial Unicode MS', sans-serif" font-weight="700" text-anchor="end" opacity="1">真实为欺诈</text>
<text x="348" y="625.5" fill="#e9eef4" font-size="28" font-family="'Hiragino Sans GB', 'STHeiti', 'Arial Unicode MS', sans-serif" font-weight="700" text-anchor="end" opacity="1">真实为正常</text>
<rect x="390" y="250" width="245" height="245" rx="8" fill="#132033" stroke="#5cc8a7" stroke-width="4" opacity="1"/>
<text x="512.5" y="322" fill="#5cc8a7" font-size="36" font-family="'SF Mono', 'Menlo', 'Consolas', monospace" font-weight="700" text-anchor="middle" opacity="1">TP</text>
<text x="512.5" y="382" fill="#e9eef4" font-size="58" font-family="'SF Mono', 'Menlo', 'Consolas', monospace" font-weight="700" text-anchor="middle" opacity="1">2</text>
<text x="512.5" y="428" fill="#e9eef4" font-size="26" font-family="'Hiragino Sans GB', 'STHeiti', 'Arial Unicode MS', sans-serif" font-weight="400" text-anchor="middle" opacity="1">正确拦截</text>
<text x="512.5" y="465" fill="#9aa8b7" font-size="22" font-family="'Hiragino Sans GB', 'STHeiti', 'Arial Unicode MS', sans-serif" font-weight="400" text-anchor="middle" opacity="1">拦住风险</text>
<rect x="635" y="250" width="245" height="245" rx="8" fill="#132033" stroke="#e06c75" stroke-width="4" opacity="1"/>
<text x="757.5" y="322" fill="#e06c75" font-size="36" font-family="'SF Mono', 'Menlo', 'Consolas', monospace" font-weight="700" text-anchor="middle" opacity="1">FN</text>
<text x="757.5" y="382" fill="#e9eef4" font-size="58" font-family="'SF Mono', 'Menlo', 'Consolas', monospace" font-weight="700" text-anchor="middle" opacity="1">1</text>
<text x="757.5" y="428" fill="#e9eef4" font-size="26" font-family="'Hiragino Sans GB', 'STHeiti', 'Arial Unicode MS', sans-serif" font-weight="400" text-anchor="middle" opacity="1">漏掉欺诈</text>
<text x="757.5" y="465" fill="#9aa8b7" font-size="22" font-family="'Hiragino Sans GB', 'STHeiti', 'Arial Unicode MS', sans-serif" font-weight="400" text-anchor="middle" opacity="1">损失 670 元</text>
<rect x="390" y="495" width="245" height="245" rx="8" fill="#132033" stroke="#d7a64a" stroke-width="4" opacity="1"/>
<text x="512.5" y="567" fill="#d7a64a" font-size="36" font-family="'SF Mono', 'Menlo', 'Consolas', monospace" font-weight="700" text-anchor="middle" opacity="1">FP</text>
<text x="512.5" y="627" fill="#e9eef4" font-size="58" font-family="'SF Mono', 'Menlo', 'Consolas', monospace" font-weight="700" text-anchor="middle" opacity="1">3</text>
<text x="512.5" y="673" fill="#e9eef4" font-size="26" font-family="'Hiragino Sans GB', 'STHeiti', 'Arial Unicode MS', sans-serif" font-weight="400" text-anchor="middle" opacity="1">误拦正常</text>
<text x="512.5" y="710" fill="#9aa8b7" font-size="22" font-family="'Hiragino Sans GB', 'STHeiti', 'Arial Unicode MS', sans-serif" font-weight="400" text-anchor="middle" opacity="1">成本 15 元</text>
<rect x="635" y="495" width="245" height="245" rx="8" fill="#132033" stroke="#6ea8fe" stroke-width="4" opacity="1"/>
<text x="757.5" y="567" fill="#6ea8fe" font-size="36" font-family="'SF Mono', 'Menlo', 'Consolas', monospace" font-weight="700" text-anchor="middle" opacity="1">TN</text>
<text x="757.5" y="627" fill="#e9eef4" font-size="58" font-family="'SF Mono', 'Menlo', 'Consolas', monospace" font-weight="700" text-anchor="middle" opacity="1">14</text>
<text x="757.5" y="673" fill="#e9eef4" font-size="26" font-family="'Hiragino Sans GB', 'STHeiti', 'Arial Unicode MS', sans-serif" font-weight="400" text-anchor="middle" opacity="1">正确放行</text>
<text x="757.5" y="710" fill="#9aa8b7" font-size="22" font-family="'Hiragino Sans GB', 'STHeiti', 'Arial Unicode MS', sans-serif" font-weight="400" text-anchor="middle" opacity="1">保持顺畅</text>
<text x="210" y="780" fill="#9aa8b7" font-size="28" font-family="'Hiragino Sans GB', 'STHeiti', 'Arial Unicode MS', sans-serif" font-weight="400" text-anchor="start" opacity="1">读矩阵时先确认：行是真实标签，列是模型预测，正例定义是“欺诈”。</text>
</svg>