<svg xmlns="http://www.w3.org/2000/svg" width="1600" height="900" viewBox="0 0 1600 900">
<rect width="1600" height="900" fill="#101821"/>
<line x1="80" y1="0" x2="80" y2="900" stroke="#263545" stroke-width="1" opacity="0.22"/>
<line x1="160" y1="0" x2="160" y2="900" stroke="#263545" stroke-width="1" opacity="0.22"/>
<line x1="240" y1="0" x2="240" y2="900" stroke="#263545" stroke-width="1" opacity="0.22"/>
<line x1="320" y1="0" x2="320" y2="900" stroke="#263545" stroke-width="1" opacity="0.22"/>
<line x1="400" y1="0" x2="400" y2="900" stroke="#263545" stroke-width="1" opacity="0.22"/>
<line x1="480" y1="0" x2="480" y2="900" stroke="#263545" stroke-width="1" opacity="0.22"/>
<line x1="560" y1="0" x2="560" y2="900" stroke="#263545" stroke-width="1" opacity="0.22"/>
<line x1="640" y1="0" x2="640" y2="900" stroke="#263545" stroke-width="1" opacity="0.22"/>
<line x1="720" y1="0" x2="720" y2="900" stroke="#263545" stroke-width="1" opacity="0.22"/>
<line x1="800" y1="0" x2="800" y2="900" stroke="#263545" stroke-width="1" opacity="0.22"/>
<line x1="880" y1="0" x2="880" y2="900" stroke="#263545" stroke-width="1" opacity="0.22"/>
<line x1="960" y1="0" x2="960" y2="900" stroke="#263545" stroke-width="1" opacity="0.22"/>
<line x1="1040" y1="0" x2="1040" y2="900" stroke="#263545" stroke-width="1" opacity="0.22"/>
<line x1="1120" y1="0" x2="1120" y2="900" stroke="#263545" stroke-width="1" opacity="0.22"/>
<line x1="1200" y1="0" x2="1200" y2="900" stroke="#263545" stroke-width="1" opacity="0.22"/>
<line x1="1280" y1="0" x2="1280" y2="900" stroke="#263545" stroke-width="1" opacity="0.22"/>
<line x1="1360" y1="0" x2="1360" y2="900" stroke="#263545" stroke-width="1" opacity="0.22"/>
<line x1="1440" y1="0" x2="1440" y2="900" stroke="#263545" stroke-width="1" opacity="0.22"/>
<line x1="1520" y1="0" x2="1520" y2="900" stroke="#263545" stroke-width="1" opacity="0.22"/>
<line x1="0" y1="60" x2="1600" y2="60" stroke="#263545" stroke-width="1" opacity="0.18"/>
<line x1="0" y1="120" x2="1600" y2="120" stroke="#263545" stroke-width="1" opacity="0.18"/>
<line x1="0" y1="180" x2="1600" y2="180" stroke="#263545" stroke-width="1" opacity="0.18"/>
<line x1="0" y1="240" x2="1600" y2="240" stroke="#263545" stroke-width="1" opacity="0.18"/>
<line x1="0" y1="300" x2="1600" y2="300" stroke="#263545" stroke-width="1" opacity="0.18"/>
<line x1="0" y1="360" x2="1600" y2="360" stroke="#263545" stroke-width="1" opacity="0.18"/>
<line x1="0" y1="420" x2="1600" y2="420" stroke="#263545" stroke-width="1" opacity="0.18"/>
<line x1="0" y1="480" x2="1600" y2="480" stroke="#263545" stroke-width="1" opacity="0.18"/>
<line x1="0" y1="540" x2="1600" y2="540" stroke="#263545" stroke-width="1" opacity="0.18"/>
<line x1="0" y1="600" x2="1600" y2="600" stroke="#263545" stroke-width="1" opacity="0.18"/>
<line x1="0" y1="660" x2="1600" y2="660" stroke="#263545" stroke-width="1" opacity="0.18"/>
<line x1="0" y1="720" x2="1600" y2="720" stroke="#263545" stroke-width="1" opacity="0.18"/>
<line x1="0" y1="780" x2="1600" y2="780" stroke="#263545" stroke-width="1" opacity="0.18"/>
<line x1="0" y1="840" x2="1600" y2="840" stroke="#263545" stroke-width="1" opacity="0.18"/>
<rect x="40" y="40" width="1520" height="820" rx="0" fill="none" stroke="#2e4054" stroke-width="2" opacity="0.75"/>
<text x="90" y="105" fill="#e9eef4" font-size="40" font-family="'Hiragino Sans GB', 'STHeiti', 'Arial Unicode MS', sans-serif" font-weight="700" text-anchor="start" opacity="1">回归指标描述误差的不同形状</text>
<text x="90" y="150" fill="#9aa8b7" font-size="24" font-family="'Hiragino Sans GB', 'STHeiti', 'Arial Unicode MS', sans-serif" font-weight="400" text-anchor="start" opacity="1">MAE 看平均距离，RMSE 更讨厌少数大错，R² 要和均值基线比较</text>
<rect x="150" y="245" width="900" height="470" rx="8" fill="#0f1722" stroke="#34475e" stroke-width="2" opacity="1"/>
<rect x="230" y="624.375" width="70" height="20.625" rx="6" fill="#6ea8fe" stroke="none" stroke-width="2" opacity="0.88"/>
<text x="265.0" y="679" fill="#9aa8b7" font-size="18" font-family="'SF Mono', 'Menlo', 'Consolas', monospace" font-weight="400" text-anchor="middle" opacity="1">1</text>
<text x="265.0" y="608.375" fill="#e9eef4" font-size="20" font-family="'SF Mono', 'Menlo', 'Consolas', monospace" font-weight="700" text-anchor="middle" opacity="1">2</text>
<rect x="334" y="603.75" width="70" height="41.25" rx="6" fill="#6ea8fe" stroke="none" stroke-width="2" opacity="0.88"/>
<text x="369.0" y="679" fill="#9aa8b7" font-size="18" font-family="'SF Mono', 'Menlo', 'Consolas', monospace" font-weight="400" text-anchor="middle" opacity="1">2</text>
<text x="369.0" y="587.75" fill="#e9eef4" font-size="20" font-family="'SF Mono', 'Menlo', 'Consolas', monospace" font-weight="700" text-anchor="middle" opacity="1">4</text>
<rect x="438" y="603.75" width="70" height="41.25" rx="6" fill="#6ea8fe" stroke="none" stroke-width="2" opacity="0.88"/>
<text x="473.0" y="679" fill="#9aa8b7" font-size="18" font-family="'SF Mono', 'Menlo', 'Consolas', monospace" font-weight="400" text-anchor="middle" opacity="1">3</text>
<text x="473.0" y="587.75" fill="#e9eef4" font-size="20" font-family="'SF Mono', 'Menlo', 'Consolas', monospace" font-weight="700" text-anchor="middle" opacity="1">4</text>
<rect x="542" y="438.75" width="70" height="206.25" rx="6" fill="#e06c75" stroke="none" stroke-width="2" opacity="0.88"/>
<text x="577.0" y="679" fill="#9aa8b7" font-size="18" font-family="'SF Mono', 'Menlo', 'Consolas', monospace" font-weight="400" text-anchor="middle" opacity="1">4</text>
<text x="577.0" y="422.75" fill="#e9eef4" font-size="20" font-family="'SF Mono', 'Menlo', 'Consolas', monospace" font-weight="700" text-anchor="middle" opacity="1">20</text>
<rect x="646" y="634.6875" width="70" height="10.3125" rx="6" fill="#6ea8fe" stroke="none" stroke-width="2" opacity="0.88"/>
<text x="681.0" y="679" fill="#9aa8b7" font-size="18" font-family="'SF Mono', 'Menlo', 'Consolas', monospace" font-weight="400" text-anchor="middle" opacity="1">5</text>
<text x="681.0" y="618.6875" fill="#e9eef4" font-size="20" font-family="'SF Mono', 'Menlo', 'Consolas', monospace" font-weight="700" text-anchor="middle" opacity="1">1</text>
<rect x="750" y="335.625" width="70" height="309.375" rx="6" fill="#e06c75" stroke="none" stroke-width="2" opacity="0.88"/>
<text x="785.0" y="679" fill="#9aa8b7" font-size="18" font-family="'SF Mono', 'Menlo', 'Consolas', monospace" font-weight="400" text-anchor="middle" opacity="1">6</text>
<text x="785.0" y="319.625" fill="#e9eef4" font-size="20" font-family="'SF Mono', 'Menlo', 'Consolas', monospace" font-weight="700" text-anchor="middle" opacity="1">30</text>
<rect x="854" y="459.375" width="70" height="185.625" rx="6" fill="#e06c75" stroke="none" stroke-width="2" opacity="0.88"/>
<text x="889.0" y="679" fill="#9aa8b7" font-size="18" font-family="'SF Mono', 'Menlo', 'Consolas', monospace" font-weight="400" text-anchor="middle" opacity="1">7</text>
<text x="889.0" y="443.375" fill="#e9eef4" font-size="20" font-family="'SF Mono', 'Menlo', 'Consolas', monospace" font-weight="700" text-anchor="middle" opacity="1">18</text>
<rect x="958" y="614.0625" width="70" height="30.9375" rx="6" fill="#6ea8fe" stroke="none" stroke-width="2" opacity="0.88"/>
<text x="993.0" y="679" fill="#9aa8b7" font-size="18" font-family="'SF Mono', 'Menlo', 'Consolas', monospace" font-weight="400" text-anchor="middle" opacity="1">8</text>
<text x="993.0" y="598.0625" fill="#e9eef4" font-size="20" font-family="'SF Mono', 'Menlo', 'Consolas', monospace" font-weight="700" text-anchor="middle" opacity="1">3</text>
<text x="190" y="295" fill="#e9eef4" font-size="28" font-family="'Hiragino Sans GB', 'STHeiti', 'Arial Unicode MS', sans-serif" font-weight="700" text-anchor="start" opacity="1">每个样本的绝对误差</text>
<text x="190" y="725" fill="#9aa8b7" font-size="24" font-family="'Hiragino Sans GB', 'STHeiti', 'Arial Unicode MS', sans-serif" font-weight="400" text-anchor="start" opacity="1">少数大错会显著拉高 RMSE。</text>
<rect x="1120" y="265" width="330" height="370" rx="8" fill="#0f1722" stroke="#34475e" stroke-width="2" opacity="1"/>
<text x="1155" y="330" fill="#9aa8b7" font-size="25" font-family="'SF Mono', 'Menlo', 'Consolas', monospace" font-weight="400" text-anchor="start" opacity="1">MAE</text>
<text x="1330" y="330" fill="#e9eef4" font-size="28" font-family="'SF Mono', 'Menlo', 'Consolas', monospace" font-weight="700" text-anchor="end" opacity="1">10.25</text>
<text x="1155" y="388" fill="#9aa8b7" font-size="25" font-family="'SF Mono', 'Menlo', 'Consolas', monospace" font-weight="400" text-anchor="start" opacity="1">RMSE</text>
<text x="1330" y="388" fill="#e9eef4" font-size="28" font-family="'SF Mono', 'Menlo', 'Consolas', monospace" font-weight="700" text-anchor="end" opacity="1">14.45</text>
<text x="1155" y="446" fill="#9aa8b7" font-size="25" font-family="'SF Mono', 'Menlo', 'Consolas', monospace" font-weight="400" text-anchor="start" opacity="1">MedAE</text>
<text x="1330" y="446" fill="#e9eef4" font-size="28" font-family="'SF Mono', 'Menlo', 'Consolas', monospace" font-weight="700" text-anchor="end" opacity="1">4.00</text>
<text x="1155" y="504" fill="#9aa8b7" font-size="25" font-family="'SF Mono', 'Menlo', 'Consolas', monospace" font-weight="400" text-anchor="start" opacity="1">Max</text>
<text x="1330" y="504" fill="#e9eef4" font-size="28" font-family="'SF Mono', 'Menlo', 'Consolas', monospace" font-weight="700" text-anchor="end" opacity="1">30</text>
<text x="1155" y="562" fill="#9aa8b7" font-size="25" font-family="'SF Mono', 'Menlo', 'Consolas', monospace" font-weight="400" text-anchor="start" opacity="1">R²</text>
<text x="1330" y="562" fill="#e9eef4" font-size="28" font-family="'SF Mono', 'Menlo', 'Consolas', monospace" font-weight="700" text-anchor="end" opacity="1">0.44</text>
<text x="1155" y="700" fill="#d7a64a" font-size="24" font-family="'Hiragino Sans GB', 'STHeiti', 'Arial Unicode MS', sans-serif" font-weight="400" text-anchor="start" opacity="1">多个指标并列，是为了看见误差形状。</text>
</svg>