<svg xmlns="http://www.w3.org/2000/svg" width="1600" height="900" viewBox="0 0 1600 900">
<defs>
<marker id="arrow" viewBox="0 0 10 10" refX="9" refY="5" markerWidth="7" markerHeight="7" orient="auto-start-reverse"><path d="M 0 0 L 10 5 L 0 10 z" fill="#9aa8b7"/></marker>
<marker id="arrow-amber" viewBox="0 0 10 10" refX="9" refY="5" markerWidth="7" markerHeight="7" orient="auto-start-reverse"><path d="M 0 0 L 10 5 L 0 10 z" fill="#d7a64a"/></marker>
</defs>
<rect width="1600" height="900" fill="#101821"/>
<line x1="80" y1="0" x2="80" y2="900" stroke="#263545" stroke-width="1" opacity="0.24"/>
<line x1="160" y1="0" x2="160" y2="900" stroke="#263545" stroke-width="1" opacity="0.24"/>
<line x1="240" y1="0" x2="240" y2="900" stroke="#263545" stroke-width="1" opacity="0.24"/>
<line x1="320" y1="0" x2="320" y2="900" stroke="#263545" stroke-width="1" opacity="0.24"/>
<line x1="400" y1="0" x2="400" y2="900" stroke="#263545" stroke-width="1" opacity="0.24"/>
<line x1="480" y1="0" x2="480" y2="900" stroke="#263545" stroke-width="1" opacity="0.24"/>
<line x1="560" y1="0" x2="560" y2="900" stroke="#263545" stroke-width="1" opacity="0.24"/>
<line x1="640" y1="0" x2="640" y2="900" stroke="#263545" stroke-width="1" opacity="0.24"/>
<line x1="720" y1="0" x2="720" y2="900" stroke="#263545" stroke-width="1" opacity="0.24"/>
<line x1="800" y1="0" x2="800" y2="900" stroke="#263545" stroke-width="1" opacity="0.24"/>
<line x1="880" y1="0" x2="880" y2="900" stroke="#263545" stroke-width="1" opacity="0.24"/>
<line x1="960" y1="0" x2="960" y2="900" stroke="#263545" stroke-width="1" opacity="0.24"/>
<line x1="1040" y1="0" x2="1040" y2="900" stroke="#263545" stroke-width="1" opacity="0.24"/>
<line x1="1120" y1="0" x2="1120" y2="900" stroke="#263545" stroke-width="1" opacity="0.24"/>
<line x1="1200" y1="0" x2="1200" y2="900" stroke="#263545" stroke-width="1" opacity="0.24"/>
<line x1="1280" y1="0" x2="1280" y2="900" stroke="#263545" stroke-width="1" opacity="0.24"/>
<line x1="1360" y1="0" x2="1360" y2="900" stroke="#263545" stroke-width="1" opacity="0.24"/>
<line x1="1440" y1="0" x2="1440" y2="900" stroke="#263545" stroke-width="1" opacity="0.24"/>
<line x1="1520" y1="0" x2="1520" y2="900" stroke="#263545" stroke-width="1" opacity="0.24"/>
<line x1="0" y1="60" x2="1600" y2="60" stroke="#263545" stroke-width="1" opacity="0.18"/>
<line x1="0" y1="120" x2="1600" y2="120" stroke="#263545" stroke-width="1" opacity="0.18"/>
<line x1="0" y1="180" x2="1600" y2="180" stroke="#263545" stroke-width="1" opacity="0.18"/>
<line x1="0" y1="240" x2="1600" y2="240" stroke="#263545" stroke-width="1" opacity="0.18"/>
<line x1="0" y1="300" x2="1600" y2="300" stroke="#263545" stroke-width="1" opacity="0.18"/>
<line x1="0" y1="360" x2="1600" y2="360" stroke="#263545" stroke-width="1" opacity="0.18"/>
<line x1="0" y1="420" x2="1600" y2="420" stroke="#263545" stroke-width="1" opacity="0.18"/>
<line x1="0" y1="480" x2="1600" y2="480" stroke="#263545" stroke-width="1" opacity="0.18"/>
<line x1="0" y1="540" x2="1600" y2="540" stroke="#263545" stroke-width="1" opacity="0.18"/>
<line x1="0" y1="600" x2="1600" y2="600" stroke="#263545" stroke-width="1" opacity="0.18"/>
<line x1="0" y1="660" x2="1600" y2="660" stroke="#263545" stroke-width="1" opacity="0.18"/>
<line x1="0" y1="720" x2="1600" y2="720" stroke="#263545" stroke-width="1" opacity="0.18"/>
<line x1="0" y1="780" x2="1600" y2="780" stroke="#263545" stroke-width="1" opacity="0.18"/>
<line x1="0" y1="840" x2="1600" y2="840" stroke="#263545" stroke-width="1" opacity="0.18"/>
<rect x="40" y="40" width="1520" height="820" rx="0" fill="none" stroke="#2e4054" stroke-width="2" opacity="0.75"/>
<text x="90" y="105" fill="#e9eef4" font-size="40" font-family="'Hiragino Sans GB', 'STHeiti', 'Arial Unicode MS', sans-serif" font-weight="700" text-anchor="start" opacity="1">上线后，未来每天都在移动</text>
<text x="90" y="150" fill="#9aa8b7" font-size="24" font-family="'Hiragino Sans GB', 'STHeiti', 'Arial Unicode MS', sans-serif" font-weight="400" text-anchor="start" opacity="1">输入漂移、预测比例和质量指标要放在同一条时间线上读</text>
<rect x="170" y="245" width="1080" height="470" rx="8" fill="#0f1722" stroke="#34475e" stroke-width="2" opacity="1"/>
<line x1="255" y1="315.0" x2="1190" y2="315.0" stroke="#263545" stroke-width="1" opacity="0.55"/>
<line x1="255" y1="396.25" x2="1190" y2="396.25" stroke="#263545" stroke-width="1" opacity="0.55"/>
<line x1="255" y1="477.5" x2="1190" y2="477.5" stroke="#263545" stroke-width="1" opacity="0.55"/>
<line x1="255" y1="558.75" x2="1190" y2="558.75" stroke="#263545" stroke-width="1" opacity="0.55"/>
<line x1="255" y1="640.0" x2="1190" y2="640.0" stroke="#263545" stroke-width="1" opacity="0.55"/>
<polyline points="255.00,618.33 388.57,629.84 522.14,621.04 655.71,625.78 789.29,369.17 922.86,348.85 1056.43,335.31 1190.00,352.24" fill="none" stroke="#d7a64a" stroke-width="5" stroke-linecap="round" stroke-linejoin="round"/>
<polyline points="255.00,359.32 388.57,374.09 522.14,344.55 655.71,388.86 789.29,403.64 922.86,433.18 1056.43,507.05 1190.00,551.36" fill="none" stroke="#5cc8a7" stroke-width="5" stroke-linecap="round" stroke-linejoin="round"/>
<polyline points="255.00,580.91 388.57,580.91 522.14,610.45 655.71,551.36 789.29,403.64 922.86,344.55 1056.43,374.09 1190.00,374.09" fill="none" stroke="#6ea8fe" stroke-width="5" stroke-linecap="round" stroke-linejoin="round"/>
<line x1="255.0" y1="640" x2="255.0" y2="648" stroke="#9aa8b7" stroke-width="2" opacity="1"/>
<text x="255.0" y="678" fill="#9aa8b7" font-size="18" font-family="'SF Mono', 'Menlo', 'Consolas', monospace" font-weight="400" text-anchor="middle" opacity="1">W01</text>
<circle cx="255.0" cy="618.3333333333334" r="6" fill="#d7a64a" stroke="#ffffff" stroke-width="1.2" opacity="1"/>
<circle cx="255.0" cy="359.3181818181817" r="6" fill="#5cc8a7" stroke="#ffffff" stroke-width="1.2" opacity="1"/>
<circle cx="255.0" cy="580.9090909090909" r="6" fill="#6ea8fe" stroke="#ffffff" stroke-width="1.2" opacity="1"/>
<line x1="388.57142857142856" y1="640" x2="388.57142857142856" y2="648" stroke="#9aa8b7" stroke-width="2" opacity="1"/>
<text x="388.57142857142856" y="678" fill="#9aa8b7" font-size="18" font-family="'SF Mono', 'Menlo', 'Consolas', monospace" font-weight="400" text-anchor="middle" opacity="1">W02</text>
<circle cx="388.57142857142856" cy="629.84375" r="6" fill="#d7a64a" stroke="#ffffff" stroke-width="1.2" opacity="1"/>
<circle cx="388.57142857142856" cy="374.090909090909" r="6" fill="#5cc8a7" stroke="#ffffff" stroke-width="1.2" opacity="1"/>
<circle cx="388.57142857142856" cy="580.9090909090909" r="6" fill="#6ea8fe" stroke="#ffffff" stroke-width="1.2" opacity="1"/>
<line x1="522.1428571428571" y1="640" x2="522.1428571428571" y2="648" stroke="#9aa8b7" stroke-width="2" opacity="1"/>
<text x="522.1428571428571" y="678" fill="#9aa8b7" font-size="18" font-family="'SF Mono', 'Menlo', 'Consolas', monospace" font-weight="400" text-anchor="middle" opacity="1">W03</text>
<circle cx="522.1428571428571" cy="621.0416666666666" r="6" fill="#d7a64a" stroke="#ffffff" stroke-width="1.2" opacity="1"/>
<circle cx="522.1428571428571" cy="344.5454545454546" r="6" fill="#5cc8a7" stroke="#ffffff" stroke-width="1.2" opacity="1"/>
<circle cx="522.1428571428571" cy="610.4545454545455" r="6" fill="#6ea8fe" stroke="#ffffff" stroke-width="1.2" opacity="1"/>
<line x1="655.7142857142858" y1="640" x2="655.7142857142858" y2="648" stroke="#9aa8b7" stroke-width="2" opacity="1"/>
<text x="655.7142857142858" y="678" fill="#9aa8b7" font-size="18" font-family="'SF Mono', 'Menlo', 'Consolas', monospace" font-weight="400" text-anchor="middle" opacity="1">W04</text>
<circle cx="655.7142857142858" cy="625.78125" r="6" fill="#d7a64a" stroke="#ffffff" stroke-width="1.2" opacity="1"/>
<circle cx="655.7142857142858" cy="388.86363636363626" r="6" fill="#5cc8a7" stroke="#ffffff" stroke-width="1.2" opacity="1"/>
<circle cx="655.7142857142858" cy="551.3636363636364" r="6" fill="#6ea8fe" stroke="#ffffff" stroke-width="1.2" opacity="1"/>
<line x1="789.2857142857143" y1="640" x2="789.2857142857143" y2="648" stroke="#9aa8b7" stroke-width="2" opacity="1"/>
<text x="789.2857142857143" y="678" fill="#9aa8b7" font-size="18" font-family="'SF Mono', 'Menlo', 'Consolas', monospace" font-weight="400" text-anchor="middle" opacity="1">W05</text>
<circle cx="789.2857142857143" cy="369.16666666666663" r="6" fill="#d7a64a" stroke="#ffffff" stroke-width="1.2" opacity="1"/>
<circle cx="789.2857142857143" cy="403.63636363636357" r="6" fill="#5cc8a7" stroke="#ffffff" stroke-width="1.2" opacity="1"/>
<circle cx="789.2857142857143" cy="403.6363636363636" r="6" fill="#6ea8fe" stroke="#ffffff" stroke-width="1.2" opacity="1"/>
<line x1="922.8571428571429" y1="640" x2="922.8571428571429" y2="648" stroke="#9aa8b7" stroke-width="2" opacity="1"/>
<text x="922.8571428571429" y="678" fill="#9aa8b7" font-size="18" font-family="'SF Mono', 'Menlo', 'Consolas', monospace" font-weight="400" text-anchor="middle" opacity="1">W06</text>
<circle cx="922.8571428571429" cy="348.85416666666663" r="6" fill="#d7a64a" stroke="#ffffff" stroke-width="1.2" opacity="1"/>
<circle cx="922.8571428571429" cy="433.18181818181813" r="6" fill="#5cc8a7" stroke="#ffffff" stroke-width="1.2" opacity="1"/>
<circle cx="922.8571428571429" cy="344.5454545454545" r="6" fill="#6ea8fe" stroke="#ffffff" stroke-width="1.2" opacity="1"/>
<line x1="1056.4285714285716" y1="640" x2="1056.4285714285716" y2="648" stroke="#9aa8b7" stroke-width="2" opacity="1"/>
<text x="1056.4285714285716" y="678" fill="#9aa8b7" font-size="18" font-family="'SF Mono', 'Menlo', 'Consolas', monospace" font-weight="400" text-anchor="middle" opacity="1">W07</text>
<circle cx="1056.4285714285716" cy="335.3125" r="6" fill="#d7a64a" stroke="#ffffff" stroke-width="1.2" opacity="1"/>
<circle cx="1056.4285714285716" cy="507.04545454545456" r="6" fill="#5cc8a7" stroke="#ffffff" stroke-width="1.2" opacity="1"/>
<circle cx="1056.4285714285716" cy="374.09090909090907" r="6" fill="#6ea8fe" stroke="#ffffff" stroke-width="1.2" opacity="1"/>
<line x1="1190.0" y1="640" x2="1190.0" y2="648" stroke="#9aa8b7" stroke-width="2" opacity="1"/>
<text x="1190.0" y="678" fill="#9aa8b7" font-size="18" font-family="'SF Mono', 'Menlo', 'Consolas', monospace" font-weight="400" text-anchor="middle" opacity="1">W08</text>
<circle cx="1190.0" cy="352.23958333333337" r="6" fill="#d7a64a" stroke="#ffffff" stroke-width="1.2" opacity="1"/>
<circle cx="1190.0" cy="551.3636363636363" r="6" fill="#5cc8a7" stroke="#ffffff" stroke-width="1.2" opacity="1"/>
<circle cx="1190.0" cy="374.09090909090907" r="6" fill="#6ea8fe" stroke="#ffffff" stroke-width="1.2" opacity="1"/>
<line x1="789.2857142857143" y1="315" x2="789.2857142857143" y2="640" stroke="#e06c75" stroke-width="3" opacity="0.65" stroke-dasharray="9 8"/>
<line x1="1056.4285714285716" y1="315" x2="1056.4285714285716" y2="640" stroke="#e06c75" stroke-width="3" opacity="0.65" stroke-dasharray="9 8"/>
<text x="803.2857142857143" y="340" fill="#e06c75" font-size="20" font-family="'SF Mono', 'Menlo', 'Consolas', monospace" font-weight="400" text-anchor="start" opacity="1">拼接错误日志</text>
<text x="1070.4285714285716" y="377" fill="#e06c75" font-size="20" font-family="'SF Mono', 'Menlo', 'Consolas', monospace" font-weight="400" text-anchor="start" opacity="1">新产品线</text>
<rect x="1290" y="330" width="210" height="160" rx="8" fill="#0f1722" stroke="#34475e" stroke-width="2" opacity="1"/>
<line x1="1320" y1="370" x2="1370" y2="370" stroke="#d7a64a" stroke-width="5" opacity="1"/>
<text x="1390" y="378" fill="#e9eef4" font-size="20" font-family="'SF Mono', 'Menlo', 'Consolas', monospace" font-weight="400" text-anchor="start" opacity="1">message_length</text>
<line x1="1320" y1="415" x2="1370" y2="415" stroke="#5cc8a7" stroke-width="5" opacity="1"/>
<text x="1390" y="423" fill="#e9eef4" font-size="20" font-family="'SF Mono', 'Menlo', 'Consolas', monospace" font-weight="400" text-anchor="start" opacity="1">manual_f1</text>
<line x1="1320" y1="460" x2="1370" y2="460" stroke="#6ea8fe" stroke-width="5" opacity="1"/>
<text x="1390" y="468" fill="#e9eef4" font-size="20" font-family="'SF Mono', 'Menlo', 'Consolas', monospace" font-weight="400" text-anchor="start" opacity="1">P1 rate</text>
<text x="190" y="800" fill="#9aa8b7" font-size="28" font-family="'Hiragino Sans GB', 'STHeiti', 'Arial Unicode MS', sans-serif" font-weight="400" text-anchor="start" opacity="1">单独一条曲线只说明有变化；把变更、输入、预测和人工抽检放到一起，才接近诊断。</text>
</svg>